<?xml version="1.0" standalone="no"?>
<!DOCTYPE svg PUBLIC "-//W3C//DTD SVG 1.1//EN" "http://www.w3.org/Graphics/SVG/1.1/DTD/svg11.dtd" >
<svg xmlns="http://www.w3.org/2000/svg" xmlns:xlink="http://www.w3.org/1999/xlink" version="1.1">
<metadata>
Created by FontForge 20170731 at Thu Dec 22 15:22:58 2022
 By Aleksey,,,
Copyright (c) 2015 by Pangram Pangram. All rights reserved.
</metadata>
<defs>
<font id="PPPangramSans-Semibold" horiz-adv-x="0" >
  <font-face 
    font-family="PP Pangram Sans Semibold"
    font-weight="400"
    font-stretch="normal"
    units-per-em="2048"
    panose-1="0 0 5 0 0 0 0 0 0 0"
    ascent="1638"
    descent="-410"
    x-height="1063"
    cap-height="1454"
    bbox="-811 -502 2822 2007"
    underline-thickness="40"
    underline-position="-204"
    unicode-range="U+0020-FB01"
  />
<missing-glyph horiz-adv-x="1003" 
d="M186 1536h637v-2007h-637v2007zM668 1335v66h-330v-66h129v-73h-131v-68h332v68h-131v73h131zM537 1001v142h-201v-209h332v67h-131zM401 1075h66v-74h-66v74zM668 813v68h-332v-68h131v-74h-131v-65h201v139h131zM668 559v201h-66v-133h-266v-68h332zM668 287v227h-201
v-113h70v48h65v-95h-201v160h-65v-227h332zM668 -59v227h-332v-227h332zM401 100h201v-94h-201v94zM668 -172v66h-332v-66h139l-139 -94v-66h332v66h-205l141 94h64z" />
    <glyph glyph-name="fi" unicode="fi" horiz-adv-x="1021" 
d="M901 1063v-1063h-235v879h-242v-879h-234v879h-127v184h127v123q0 96 28 168.5t77.5 114t109.5 61.5t130 20q85 0 172 -26v-191q-75 21 -132 21q-170 0 -151 -201v-90h477z" />
    <glyph glyph-name="f_f_i.liga" unicode="ffi" horiz-adv-x="1499" 
d="M1376 1063v-1063h-233v879h-242v-879h-235v879h-242v-879h-234v879h-127v184h127v123q0 77 18.5 139t49.5 102.5t74 68t89.5 39t98.5 11.5q76 0 125 -22v-185q-45 15 -84.5 15t-73.5 -17.5t-51.5 -64t-11.5 -119.5v-90h242v123q0 96 28.5 168.5t77.5 114t109.5 61.5
t130.5 20q81 0 172 -26v-191q-79 21 -131 21q-171 0 -152 -201v-90h475z" />
    <glyph glyph-name=".notdef" horiz-adv-x="1003" 
d="M186 1536h637v-2007h-637v2007zM668 1335v66h-330v-66h129v-73h-131v-68h332v68h-131v73h131zM537 1001v142h-201v-209h332v67h-131zM401 1075h66v-74h-66v74zM668 813v68h-332v-68h131v-74h-131v-65h201v139h131zM668 559v201h-66v-133h-266v-68h332zM668 287v227h-201
v-113h70v48h65v-95h-201v160h-65v-227h332zM668 -59v227h-332v-227h332zM401 100h201v-94h-201v94zM668 -172v66h-332v-66h139l-139 -94v-66h332v66h-205l141 94h64z" />
    <glyph glyph-name=".null" 
 />
    <glyph glyph-name="nonmarkingreturn" horiz-adv-x="682" 
 />
    <glyph glyph-name="space" unicode=" " horiz-adv-x="446" 
 />
    <glyph glyph-name="exclam" unicode="!" horiz-adv-x="548" 
d="M379 399h-213l-12 1057h239zM274 -20q-56 0 -94.5 38t-38.5 95q0 55 38.5 93t94.5 38t95 -38t39 -93q0 -57 -39 -95t-95 -38z" />
    <glyph glyph-name="quotedbl" unicode="&#x22;" horiz-adv-x="782" 
d="M145 991v463h187v-463h-187zM451 991v463h186v-463h-186z" />
    <glyph glyph-name="numbersign" unicode="#" horiz-adv-x="1470" 
d="M1401 1096v-199h-262l-39 -371h239v-198h-262l-35 -328h-227l35 328h-309l-35 -328h-227l34 328h-243v198h266l39 371h-244v199h264l39 358h228l-39 -358h309l39 358h227l-39 -358h242zM563 526h309l39 371h-309z" />
    <glyph glyph-name="dollar" unicode="$" horiz-adv-x="1153" 
d="M1087 389q0 -167 -112.5 -274t-296.5 -129v-179h-201v181q-191 32 -303.5 158.5t-118.5 299.5h248q4 -126 85 -195t200 -69q114 0 181 53.5t67 139.5q0 61 -40 108.5t-104 81t-141 65.5t-154.5 70.5t-141.5 86.5t-104 124t-40 172q0 153 100.5 256.5t265.5 128.5v179h201
v-183q166 -29 265.5 -144t105.5 -284l-242 -6q-6 113 -69.5 177.5t-166.5 64.5q-93 0 -154 -48.5t-61 -131.5q0 -66 40.5 -115.5t105 -82.5t142.5 -63t155.5 -66t142 -82t105 -121t40.5 -173z" />
    <glyph glyph-name="percent" unicode="%" horiz-adv-x="2017" 
d="M479 692q-175 0 -288 110t-113 279q0 168 113.5 278.5t287.5 110.5q173 0 286.5 -110.5t113.5 -278.5t-114 -278.5t-286 -110.5zM1243 1454h195l-664 -1454h-196zM479 860q95 0 159 63t64 158t-63 158.5t-160 63.5q-95 0 -159 -63.5t-64 -158.5t64 -158t159 -63z
M1538 -23q-173 0 -286 110.5t-113 279.5q0 167 113 277t286 110t287 -110t114 -277q0 -169 -114 -279.5t-287 -110.5zM1538 145q96 0 159.5 63.5t63.5 158.5q0 96 -62.5 158.5t-160.5 62.5q-94 0 -157.5 -63t-63.5 -158t63.5 -158.5t157.5 -63.5z" />
    <glyph glyph-name="ampersand" unicode="&#x26;" horiz-adv-x="1673" 
d="M1362 1063h246l-377 -578l362 -483l-274 -2l-217 293q-127 -178 -235 -245.5t-265 -67.5q-225 0 -371.5 143.5t-146.5 363.5q0 212 146 347t370 135h8l-377 485h988v-190h-572l451 -600zM604 205q110 0 181.5 52.5t185.5 215.5l-115 156q-56 78 -116 112.5t-136 34.5
q-128 0 -209.5 -78.5t-81.5 -208.5q0 -122 82 -203t209 -81z" />
    <glyph glyph-name="quotesingle" unicode="'" horiz-adv-x="477" 
d="M145 991v463h187v-463h-187z" />
    <glyph glyph-name="parenleft" unicode="(" horiz-adv-x="628" 
d="M588 1454v-205q-43 0 -83 -11t-78.5 -35.5t-61.5 -71.5t-23 -111v-895q0 -64 23 -111t61.5 -71.5t78.5 -35.5t83 -11v-205q-473 0 -473 454v854q0 236 120.5 345.5t352.5 109.5z" />
    <glyph glyph-name="parenright" unicode=")" horiz-adv-x="628" 
d="M41 -307v205q43 0 83 11t78.5 35.5t61.5 71.5t23 111v895q0 64 -23 111t-61.5 71.5t-78.5 35.5t-83 11v205q471 0 471 -455v-854q0 -236 -119.5 -345t-351.5 -109z" />
    <glyph glyph-name="asterisk" unicode="*" horiz-adv-x="937" 
d="M408 858l-103 -149l-133 96l113 145q36 46 80 90q-35 0 -117 23l-180 51l53 156l172 -62q70 -24 108 -47q-10 45 -10 119l-6 174h164l-6 -176q0 -56 -13 -119q38 23 111 47l176 64l49 -156l-178 -51q-82 -23 -117 -23q32 -29 80 -90l113 -145l-133 -96l-101 147
q-40 53 -61 105q-17 -46 -61 -103z" />
    <glyph glyph-name="plus" unicode="+" horiz-adv-x="1001" 
d="M614 655h293v-211h-293v-301h-225v301h-295v211h295v301h225v-301z" />
    <glyph glyph-name="comma" unicode="," horiz-adv-x="565" 
d="M117 -213l106 432h244l-166 -432h-184z" />
    <glyph glyph-name="hyphen" unicode="-" horiz-adv-x="1054" 
d="M121 444v213h813v-213h-813z" />
    <glyph glyph-name="period" unicode="." horiz-adv-x="548" 
d="M274 -20q-56 0 -94.5 38t-38.5 95q0 55 38.5 93t94.5 38t95 -38t39 -93q0 -57 -39 -95t-95 -38z" />
    <glyph glyph-name="slash" unicode="/" horiz-adv-x="741" 
d="M541 1536h204l-544 -1804h-205z" />
    <glyph glyph-name="zero" unicode="0" horiz-adv-x="1298" 
d="M649 -20q-108 0 -207 35.5t-176.5 100.5t-123.5 166t-46 224v442q0 99 30 184.5t82.5 147.5t122.5 106.5t151 66.5t167 22q109 0 208 -35.5t177 -100.5t124 -166.5t46 -224.5v-442q0 -123 -46 -224t-124 -166t-177 -100.5t-208 -35.5zM649 205q132 0 224 84t92 217v442
q0 133 -92 217t-224 84q-131 0 -222 -84t-91 -217v-442q0 -133 91 -217t222 -84z" />
    <glyph glyph-name="one" unicode="1" horiz-adv-x="960" 
d="M614 211h320v-211h-879v211h320v965l-303 -76v217l542 137v-1243z" />
    <glyph glyph-name="two" unicode="2" horiz-adv-x="1136" 
d="M313 225h752v-225h-997v158q0 80 25.5 150t69 122.5t100 99t119 84.5t124.5 73.5t118.5 72.5t100 75.5t69 87t25.5 103.5q0 99 -68 164t-180 65q-114 0 -187 -70t-79 -181h-237q0 199 143 335t364 136q134 0 243 -52.5t175 -157t66 -243.5q0 -99 -37 -181t-98 -138.5
t-134.5 -104.5t-151 -89.5t-144 -81.5t-116.5 -91.5t-65 -110.5z" />
    <glyph glyph-name="three" unicode="3" horiz-adv-x="1169" 
d="M893 768q96 -44 153.5 -131.5t57.5 -218.5q0 -83 -33.5 -161t-96 -140t-161 -99.5t-217.5 -37.5q-244 0 -392.5 137.5t-148.5 351.5h234q0 -131 85.5 -200.5t209.5 -69.5q131 0 205.5 64.5t74.5 166.5q0 112 -82 163.5t-217 51.5h-114v205h120q117 6 177.5 65t60.5 140
q0 91 -65.5 145.5t-172.5 54.5q-116 0 -191 -70.5t-75 -187.5h-231q0 99 34.5 185.5t98 151.5t160.5 103t215 38q208 0 337.5 -112.5t129.5 -287.5q0 -194 -156 -307z" />
    <glyph glyph-name="four" unicode="4" horiz-adv-x="1224" 
d="M967 485h215v-192h-215v-293h-234v293h-680v166l692 995h222v-969zM754 1155l-449 -670h430v418q0 159 19 252z" />
    <glyph glyph-name="five" unicode="5" horiz-adv-x="1196" 
d="M649 985q209 0 343 -135t134 -352q0 -141 -65 -258.5t-187.5 -188.5t-277.5 -71q-119 0 -219 39.5t-166 105.5t-102.5 152t-36.5 180h239q3 -109 82.5 -183.5t204.5 -74.5q120 0 204.5 80.5t84.5 209.5q0 134 -81.5 212.5t-205.5 78.5q-92 0 -170 -44t-108 -128h-236
l129 846h809v-211h-618l-58 -362q126 104 301 104z" />
    <glyph glyph-name="six" unicode="6" horiz-adv-x="1196" 
d="M666 973q195 0 326.5 -135.5t131.5 -343.5q0 -143 -65 -260t-185.5 -185.5t-273.5 -68.5q-115 0 -214.5 40t-168 107.5t-107 159t-38.5 192.5q0 162 100 330l385 647l262 -2l-301 -506q67 25 148 25zM600 205q123 0 205 82.5t82 206.5t-82 206t-205 82
q-126 0 -207.5 -81.5t-81.5 -206.5q0 -124 82.5 -206.5t206.5 -82.5z" />
    <glyph glyph-name="seven" unicode="7" horiz-adv-x="1040" 
d="M27 1243v211h981v-182l-523 -1272h-254l523 1243h-727z" />
    <glyph glyph-name="eight" unicode="8" horiz-adv-x="1155" 
d="M877 774q103 -54 158 -145t55 -205q0 -195 -145 -319.5t-370 -124.5q-223 0 -367.5 124.5t-144.5 319.5q0 115 54.5 206t158.5 146q-155 105 -155 297q0 180 130.5 291t326.5 111q194 0 324 -111t130 -291q0 -196 -155 -299zM578 1278q-94 0 -161 -55.5t-67 -151.5
q0 -95 67 -152t161 -57t162.5 57.5t68.5 151.5q0 95 -68 151t-163 56zM578 193q120 0 198 67.5t78 173.5q0 108 -78 176t-198 68t-198.5 -68t-78.5 -176q0 -106 78.5 -173.5t198.5 -67.5z" />
    <glyph glyph-name="nine" unicode="9" horiz-adv-x="1202" 
d="M594 1475q154 0 276.5 -68.5t188 -182t65.5 -249.5q0 -159 -102 -330l-383 -647l-264 2l303 506q-67 -25 -148 -25q-195 0 -327.5 136t-132.5 344q0 218 147 366t377 148zM594 672q126 0 208.5 82t82.5 207q0 124 -83 206t-208 82q-122 0 -203.5 -82t-81.5 -206
t81.5 -206.5t203.5 -82.5z" />
    <glyph glyph-name="colon" unicode=":" horiz-adv-x="507" 
d="M254 750q-56 0 -95.5 38.5t-39.5 94.5q0 55 39.5 93t95.5 38q55 0 94 -38t39 -93q0 -56 -39 -94.5t-94 -38.5zM254 -20q-56 0 -95.5 38.5t-39.5 94.5q0 55 39.5 93t95.5 38q55 0 94 -38t39 -93q0 -56 -39 -94.5t-94 -38.5z" />
    <glyph glyph-name="semicolon" unicode=";" horiz-adv-x="618" 
d="M344 750q-56 0 -94.5 38t-38.5 95q0 55 38.5 93t94.5 38t94.5 -38t38.5 -93q0 -57 -38.5 -95t-94.5 -38zM117 -213l106 432h244l-166 -432h-184z" />
    <glyph glyph-name="less" unicode="&#x3c;" horiz-adv-x="1030" 
d="M94 709l813 309v-203q-304 -119 -408 -157t-171 -52q103 -28 579 -213v-203l-813 310v209z" />
    <glyph glyph-name="equal" unicode="=" horiz-adv-x="1175" 
d="M180 649v199h813v-199h-813zM180 256v199h813v-199h-813z" />
    <glyph glyph-name="greater" unicode="&#x3e;" horiz-adv-x="1030" 
d="M123 817v203l813 -309v-211l-813 -307v202q304 119 408 157t171 52q-69 19 -165 54.5t-414 158.5z" />
    <glyph glyph-name="question" unicode="?" horiz-adv-x="1003" 
d="M504 1475q206 0 335.5 -114.5t129.5 -295.5q0 -162 -97.5 -277.5t-275.5 -148.5v-238h-215v412h57q137 0 214 62t77 167q0 89 -61 148t-164 59q-105 0 -175.5 -72t-70.5 -190h-238q0 216 135.5 352t348.5 136zM487 244q56 0 95 -38t39 -93q0 -57 -39 -95t-95 -38
t-94.5 38t-38.5 95q0 55 38.5 93t94.5 38z" />
    <glyph glyph-name="at" unicode="@" horiz-adv-x="1812" 
d="M907 1341q172 0 322.5 -58.5t257.5 -160t169 -244t62 -305.5q0 -224 -90.5 -355.5t-245.5 -131.5q-125 0 -194.5 86t-69.5 217q-20 -109 -96 -169t-186 -60q-155 0 -257 112.5t-102 274.5q0 163 104.5 272t262.5 109q80 0 147 -31t101 -88l36 106h168v-489
q0 -85 28.5 -125.5t72.5 -40.5q64 0 108 79.5t43 233.5q-2 263 -183.5 436t-457.5 173q-134 0 -252 -49t-202 -133.5t-132.5 -202.5t-48.5 -252q0 -178 78.5 -320.5t221 -223.5t323.5 -81q170 0 256 47v-155q-95 -50 -272 -50q-221 0 -401 102t-282 282t-102 401
q0 223 106 405t292.5 285.5t414.5 103.5zM885 330q95 0 155 60t60 153t-60 154t-155 61q-90 0 -150.5 -61.5t-60.5 -153.5t60.5 -152.5t150.5 -60.5z" />
    <glyph glyph-name="A" unicode="A" horiz-adv-x="1415" 
d="M1368 0h-258q-17 50 -59 171t-62 179h-575l-119 -350h-248l522 1454h273zM479 549h443q-131 383 -173.5 528t-50.5 228q-10 -88 -52 -236.5t-167 -519.5z" />
    <glyph glyph-name="B" unicode="B" horiz-adv-x="1314" 
d="M717 0h-567v1454h534q229 0 351 -94.5t122 -265.5q0 -126 -56 -204t-149 -106q131 -23 209 -123t78 -239q0 -192 -135.5 -307t-386.5 -115zM389 1249v-403h295q111 0 171 51t60 152q0 96 -61 148t-170 52h-295zM389 664v-459h328q133 0 206.5 59t73.5 164
q0 108 -72.5 172t-199.5 64h-336z" />
    <glyph glyph-name="C" unicode="C" horiz-adv-x="1331" 
d="M809 -20q-151 0 -285.5 58t-231.5 157.5t-153.5 238t-56.5 293.5t56.5 293.5t153.5 238.5t232 158t285 58q147 0 255 -38t171 -89v-236q-56 56 -156 99.5t-241 43.5q-142 0 -260 -67.5t-187 -189t-69 -271.5q0 -226 150 -377t366 -151q140 0 239.5 43.5t157.5 99.5v-236
q-63 -51 -171 -88.5t-255 -37.5z" />
    <glyph glyph-name="D" unicode="D" horiz-adv-x="1437" 
d="M633 0h-483v1454h483q166 0 303.5 -56t228.5 -154.5t141 -231t50 -285.5t-50 -285.5t-141 -231t-228.5 -154.5t-303.5 -56zM389 1237v-1020h244q220 0 352.5 135.5t132.5 374.5t-132.5 374.5t-352.5 135.5h-244z" />
    <glyph glyph-name="E" unicode="E" horiz-adv-x="1130" 
d="M1055 1454v-217h-666v-395h541v-211h-541v-414h666v-217h-905v1454h905z" />
    <glyph glyph-name="F" unicode="F" horiz-adv-x="1085" 
d="M389 0h-239v1454h878v-219h-639v-410h555v-211h-555v-614z" />
    <glyph glyph-name="G" unicode="G" horiz-adv-x="1613" 
d="M664 592v211h876q0 -192 -54.5 -348.5t-151.5 -259.5t-229.5 -159t-287.5 -56q-159 0 -296.5 58t-233.5 158.5t-150.5 238.5t-54.5 294q0 206 92 376t261.5 270t383.5 100q192 0 354 -79.5t246 -205.5l-172 -152q-59 94 -170 154.5t-250 60.5q-223 0 -364 -149t-141 -379
q0 -229 135.5 -376.5t355.5 -147.5q185 0 312 107.5t163 283.5h-624z" />
    <glyph glyph-name="H" unicode="H" horiz-adv-x="1472" 
d="M1081 834v620h240v-1454h-240v621h-692v-621h-239v1454h239v-620h692z" />
    <glyph glyph-name="I" unicode="I" horiz-adv-x="540" 
d="M389 0h-239v1454h239v-1454z" />
    <glyph glyph-name="J" unicode="J" horiz-adv-x="872" 
d="M27 117l77 194q50 -45 96.5 -70t102.5 -26q92 -2 144.5 58t52.5 204v977h239v-989q0 -121 -33 -216t-90 -152.5t-129.5 -87t-156.5 -29.5q-108 0 -186 42.5t-117 94.5z" />
    <glyph glyph-name="K" unicode="K" horiz-adv-x="1273" 
d="M950 1454h283l-608 -709l600 -745h-289l-557 702q10 -156 10 -702h-239v1454h239q0 -520 -10 -657z" />
    <glyph glyph-name="L" unicode="L" horiz-adv-x="1077" 
d="M1012 0h-862v1454h239v-1237h623v-217z" />
    <glyph glyph-name="M" unicode="M" horiz-adv-x="1759" 
d="M881 725l503 729h226v-1454h-240q0 592 2.5 795.5t13.5 287.5l-507 -743l-504 739q10 -86 12 -290.5t2 -788.5h-239v1454h225z" />
    <glyph glyph-name="N" unicode="N" horiz-adv-x="1509" 
d="M1126 1454h234v-1454h-223l-764 1073q12 -138 12 -1073h-235v1454h225l764 -1081q-9 84 -11 292t-2 789z" />
    <glyph glyph-name="O" unicode="O" horiz-adv-x="1640" 
d="M819 -20q-157 0 -294 57t-234 155.5t-153 237.5t-56 297t56 297t153 238t234 156t294 57t294.5 -57t235 -156t154 -238t56.5 -297q0 -211 -96 -382t-265.5 -268t-378.5 -97zM819 205q142 0 257.5 70t179 189.5t63.5 262.5t-63.5 262.5t-179 189.5t-257.5 70
q-214 0 -355.5 -151.5t-141.5 -370.5t141.5 -370.5t355.5 -151.5z" />
    <glyph glyph-name="P" unicode="P" horiz-adv-x="1290" 
d="M150 1454h544q153 0 271.5 -54t188 -163.5t69.5 -261.5q0 -228 -150 -360t-391 -132h-293v-483h-239v1454zM389 700h305q129 0 209 70t80 199q0 128 -80 197t-209 69h-305v-535z" />
    <glyph glyph-name="Q" unicode="Q" horiz-adv-x="1640" 
d="M1559 727q0 -197 -86.5 -357.5t-238 -251.5t-337.5 -91q-78 0 -131 18l418 -389h-293l-520 473q-289 264 -289 598q0 157 56.5 296t154 238t234.5 156.5t292 57.5q208 0 377.5 -97.5t266 -269t96.5 -381.5zM322 727q0 -141 63.5 -260.5t178.5 -190.5t255 -71
q217 0 358.5 150.5t141.5 371.5t-141.5 371.5t-358.5 150.5q-143 0 -257 -69.5t-177 -189t-63 -263.5z" />
    <glyph glyph-name="R" unicode="R" horiz-adv-x="1290" 
d="M1223 0h-295l-555 647q11 -80 13.5 -214.5t2.5 -432.5h-239v1454h552q233 0 366.5 -116.5t133.5 -317.5q0 -111 -42 -197.5t-111 -137t-149 -76t-165 -25.5h-51q34 -34 89.5 -94t190.5 -208t259 -282zM963 997q0 110 -73.5 175t-207.5 65h-293v-481h293q134 0 207.5 65.5
t73.5 175.5z" />
    <glyph glyph-name="S" unicode="S" horiz-adv-x="1153" 
d="M588 -20q-237 0 -382 133.5t-151 332.5h248q4 -126 85 -195t200 -69q114 0 181 53.5t67 139.5q0 61 -40 108.5t-104 81t-141 65.5t-154.5 70.5t-141.5 86.5t-104 124t-40 172q0 174 128 283t328 109q212 0 343 -121t139 -318l-242 -6q-6 113 -69.5 177.5t-166.5 64.5
q-93 0 -154 -48.5t-61 -131.5q0 -66 40.5 -115.5t105 -82.5t142.5 -63t155.5 -66t142 -82t105 -121t40.5 -173q0 -187 -140 -298t-359 -111z" />
    <glyph glyph-name="T" unicode="T" horiz-adv-x="1157" 
d="M698 0h-239v1237h-396v217h1029v-217h-394v-1237z" />
    <glyph glyph-name="U" unicode="U" horiz-adv-x="1462" 
d="M731 -20q-274 0 -432 162t-158 464v848h240v-854q0 -199 94 -300t256 -101q163 0 257.5 101t94.5 300v854h238v-848q0 -302 -158 -464t-432 -162z" />
    <glyph glyph-name="V" unicode="V" horiz-adv-x="1374" 
d="M1098 1454h250l-523 -1454h-272l-526 1454h260q241 -693 317 -930.5t90 -335.5q14 99 90 337.5t314 928.5z" />
    <glyph glyph-name="W" unicode="W" horiz-adv-x="1978" 
d="M1704 1454h242l-402 -1454h-274q-153 580 -209 817.5t-70 358.5q-13 -120 -69.5 -347.5t-221.5 -828.5h-268l-399 1454h252q155 -589 215.5 -837t79.5 -371q17 133 73 370t213 838h260q251 -939 291 -1186q19 130 78.5 375.5t208.5 810.5z" />
    <glyph glyph-name="X" unicode="X" horiz-adv-x="1386" 
d="M1051 1454h290l-510 -713l510 -741h-290q-189 273 -264.5 398t-94.5 186q-20 -62 -94 -184.5t-262 -399.5h-291l510 731l-510 723h291q191 -270 265.5 -392.5t90.5 -178.5q17 54 92.5 176t266.5 395z" />
    <glyph glyph-name="Y" unicode="Y" horiz-adv-x="1286" 
d="M999 1454h269l-506 -852v-602h-238v602l-506 852h273q174 -296 250.5 -441.5t103.5 -228.5q26 80 103 225t251 445z" />
    <glyph glyph-name="Z" unicode="Z" horiz-adv-x="1275" 
d="M78 1454h1139l-764 -1243h745v-211h-1139l770 1243h-751v211z" />
    <glyph glyph-name="bracketleft" unicode="[" horiz-adv-x="651" 
d="M610 -311h-465v1765h465v-199h-245v-1368h245v-198z" />
    <glyph glyph-name="backslash" unicode="\" horiz-adv-x="741" 
d="M541 -268l-545 1804h205l544 -1804h-204z" />
    <glyph glyph-name="bracketright" unicode="]" horiz-adv-x="651" 
d="M41 1454h465v-1765h-465v198h246v1368h-246v199z" />
    <glyph glyph-name="asciicircum" unicode="^" horiz-adv-x="1089" 
d="M651 1454l377 -819h-211q-136 307 -189 434.5t-83 226.5q-29 -101 -82.5 -230.5t-188.5 -430.5h-211l377 819h211z" />
    <glyph glyph-name="underscore" unicode="_" horiz-adv-x="1490" 
d="M121 -186v186h1249v-186h-1249z" />
    <glyph glyph-name="grave" unicode="`" horiz-adv-x="475" 
d="M272 1503l162 -319h-186l-223 319h247z" />
    <glyph glyph-name="a" unicode="a" horiz-adv-x="1353" 
d="M995 860l37 203h199v-1063h-236v217q-45 -110 -150.5 -173.5t-250.5 -63.5q-158 0 -278 75t-182 200.5t-62 279.5q0 240 146 395t388 155q121 0 224.5 -57t164.5 -160v-8zM653 190q148 0 244 97.5t96 244.5q0 146 -96 243t-244 97q-151 0 -247.5 -95.5t-96.5 -244.5
q0 -151 96.5 -246.5t247.5 -95.5z" />
    <glyph glyph-name="b" unicode="b" horiz-adv-x="1349" 
d="M756 1083q158 0 278 -75t182 -200.5t62 -279.5q0 -240 -146.5 -395.5t-388.5 -155.5q-121 0 -224.5 57.5t-162.5 160.5v-195h-235v1536h235v-690q43 108 150 172.5t250 64.5zM698 190q151 0 247.5 95.5t96.5 244.5q0 151 -96.5 246.5t-247.5 95.5q-149 0 -245.5 -97.5
t-96.5 -244.5q0 -146 97 -243t245 -97z" />
    <glyph glyph-name="c" unicode="c" horiz-adv-x="1060" 
d="M639 -23q-125 0 -231.5 42t-180 115.5t-114.5 176t-41 221.5q0 240 157.5 396.5t409.5 156.5q200 0 332 -114v-228q-132 129 -309 129q-152 0 -254.5 -98t-102.5 -244t102 -243t255 -97q177 0 309 129v-227q-133 -115 -332 -115z" />
    <glyph glyph-name="d" unicode="d" horiz-adv-x="1349" 
d="M995 868v668h234v-1536h-234v217q-45 -110 -150.5 -173.5t-250.5 -63.5q-158 0 -278 75t-182 200.5t-62 279.5q0 240 146 395t388 155q121 0 224.5 -57t164.5 -160zM653 190q148 0 244 97.5t96 244.5q0 146 -96 243t-244 97q-151 0 -247.5 -95.5t-96.5 -244.5
q0 -151 96.5 -246.5t247.5 -95.5z" />
    <glyph glyph-name="e" unicode="e" horiz-adv-x="1232" 
d="M616 1085q250 0 401 -166.5t144 -463.5h-854q10 -124 102.5 -202.5t225.5 -78.5q108 0 183 47.5t112 122.5l207 -22q-44 -147 -182.5 -244.5t-321.5 -97.5q-246 0 -403.5 152t-157.5 398q0 238 154 396.5t390 158.5zM616 895q-126 0 -213 -74t-96 -188h613
q-5 113 -90 187.5t-214 74.5z" />
    <glyph glyph-name="f" unicode="f" horiz-adv-x="747" 
d="M575 1354q-170 0 -151 -201v-90h278v-184h-278v-879h-234v879h-127v184h127v123q0 96 28 168.5t77.5 114t109.5 61.5t130 20q85 0 172 -26v-191q-75 21 -132 21z" />
    <glyph glyph-name="g" unicode="g" horiz-adv-x="1349" 
d="M995 858l41 205h193v-961q0 -286 -146.5 -445t-418.5 -159q-127 0 -256 35.5t-211 95.5v205q223 -131 419 -131q379 0 379 399v115q-45 -110 -150.5 -173.5t-250.5 -63.5q-158 0 -278 75t-182 200.5t-62 279.5q0 240 146 395t388 155q121 0 224.5 -57t164.5 -160v-10z
M653 190q148 0 244 97.5t96 244.5q0 146 -96 243t-244 97q-151 0 -247.5 -95.5t-96.5 -244.5q0 -151 96.5 -246.5t247.5 -95.5z" />
    <glyph glyph-name="h" unicode="h" horiz-adv-x="1241" 
d="M705 1085q87 0 162.5 -27t136.5 -81t96 -145t35 -209v-623h-238v588q0 82 -21.5 141.5t-60 92t-83 47t-97.5 14.5q-130 0 -204.5 -81t-74.5 -231v-571h-235v1536h235v-643q106 192 349 192z" />
    <glyph glyph-name="i" unicode="i" horiz-adv-x="477" 
d="M240 1196q-58 0 -99 40t-41 97q0 59 41 99.5t99 40.5q57 0 97 -41t40 -99q0 -57 -40 -97t-97 -40zM121 1063h235v-1063h-235v1063z" />
    <glyph glyph-name="j" unicode="j" horiz-adv-x="477" 
d="M242 1196q-58 0 -99 40t-41 97q0 59 41 99.5t99 40.5q57 0 97 -41t40 -99q0 -57 -40 -97t-97 -40zM121 1063h235v-1534h-235v1534z" />
    <glyph glyph-name="k" unicode="k" horiz-adv-x="1124" 
d="M567 567l529 -567h-279l-475 518q14 -181 14 -518h-235v1536h235q0 -434 -2.5 -612t-13.5 -308l475 447h279z" />
    <glyph glyph-name="l" unicode="l" horiz-adv-x="477" 
d="M121 1536h235v-1536h-235v1536z" />
    <glyph glyph-name="m" unicode="m" horiz-adv-x="1863" 
d="M1356 1085q181 0 291 -113.5t110 -307.5v-664h-233v604q0 139 -63 209t-167 70q-106 0 -171.5 -71.5t-65.5 -207.5v-604h-234v604q0 138 -63 208.5t-164 70.5q-107 0 -173.5 -71.5t-66.5 -207.5v-604h-235v1063h194l35 -160q102 182 324 182q107 0 192.5 -48t132.5 -136
q118 184 357 184z" />
    <glyph glyph-name="n" unicode="n" horiz-adv-x="1243" 
d="M709 1085q87 0 162 -27t135.5 -81t95.5 -145t35 -209v-623h-238v588q0 82 -21.5 141.5t-60 92t-83 47t-97.5 14.5q-129 0 -204 -81t-75 -231v-571h-237v1063h201l32 -178q104 200 355 200z" />
    <glyph glyph-name="o" unicode="o" horiz-adv-x="1282" 
d="M641 -20q-246 0 -407.5 156.5t-161.5 395.5q0 156 73.5 283t203.5 198.5t292 71.5q247 0 408 -157.5t161 -395.5q0 -239 -161 -395.5t-408 -156.5zM641 190q147 0 244.5 97.5t97.5 244.5q0 148 -97 245t-245 97q-147 0 -244.5 -97.5t-97.5 -244.5q0 -146 98 -244t244 -98
z" />
    <glyph glyph-name="p" unicode="p" horiz-adv-x="1349" 
d="M756 1083q158 0 278 -75t182 -200.5t62 -279.5q0 -240 -146.5 -395.5t-388.5 -155.5q-121 0 -224.5 57.5t-162.5 160.5v-666h-235v1534h194l41 -211v-6q43 108 150 172.5t250 64.5zM698 190q151 0 247.5 95.5t96.5 244.5q0 151 -96.5 246.5t-247.5 95.5
q-149 0 -245.5 -97.5t-96.5 -244.5q0 -146 97 -243t245 -97z" />
    <glyph glyph-name="q" unicode="q" horiz-adv-x="1349" 
d="M995 868l39 195h195v-1534h-234v688q-45 -110 -150.5 -173.5t-250.5 -63.5q-158 0 -278 75t-182 200.5t-62 279.5q0 240 146 395t388 155q121 0 224.5 -57t164.5 -160zM653 190q148 0 244 97.5t96 244.5q0 146 -96 243t-244 97q-151 0 -247.5 -95.5t-96.5 -244.5
q0 -151 96.5 -246.5t247.5 -95.5z" />
    <glyph glyph-name="r" unicode="r" horiz-adv-x="739" 
d="M313 1063l33 -160q99 196 344 162l-2 -203q-155 20 -241.5 -33.5t-92.5 -175.5l2 -653h-235v1063h192z" />
    <glyph glyph-name="s" unicode="s" horiz-adv-x="1024" 
d="M526 -20q-95 0 -176.5 21t-147 62t-105.5 109.5t-44 157.5l230 8q9 -82 78 -128t174 -46q89 0 142.5 34t53.5 93q0 43 -35 73t-90.5 48t-123 34.5t-134.5 40t-122.5 56t-90.5 90.5t-35 137q0 95 55 167t146.5 109t204.5 37q181 0 299.5 -92.5t124.5 -232.5l-223 -6
q-9 69 -63 111t-140 42q-76 0 -126 -32.5t-50 -86.5q0 -33 22 -58t59 -41t85 -29.5t101 -27t105.5 -30t100.5 -41.5t85 -58t59 -84t22 -116q0 -152 -121.5 -236.5t-319.5 -84.5z" />
    <glyph glyph-name="t" unicode="t" horiz-adv-x="733" 
d="M449 1063h235v-184h-235v-879h-234v879h-166v184h166v309h234v-309z" />
    <glyph glyph-name="u" unicode="u" horiz-adv-x="1241" 
d="M883 492v571h237v-1063h-200l-29 188q-105 -211 -359 -211q-86 0 -161 27t-135 81.5t-95 145.5t-35 209v623h234v-588q0 -82 22 -141.5t60.5 -92.5t83.5 -48t98 -15q128 0 203.5 82t75.5 232z" />
    <glyph glyph-name="v" unicode="v" horiz-adv-x="1155" 
d="M874 1063h248l-415 -1063h-240l-434 1063h254q159 -419 218.5 -588.5t84.5 -269.5q19 105 72.5 266.5t211.5 591.5z" />
    <glyph glyph-name="w" unicode="w" horiz-adv-x="1716" 
d="M1430 1063h239l-338 -1063h-237q-138 441 -179 589t-53 247q-13 -96 -54 -238.5t-185 -597.5h-240l-334 1063h244q131 -440 170 -588t53 -254q14 103 53 242t181 600h233q129 -422 168.5 -566.5t56.5 -258.5q13 92 49.5 226.5t172.5 598.5z" />
    <glyph glyph-name="x" unicode="x" horiz-adv-x="1150" 
d="M854 1063h268l-415 -516l415 -547h-268q-136 176 -197.5 267t-85.5 153q-24 -64 -84 -156.5t-190 -263.5h-268l415 535l-415 528h268q139 -173 196 -254.5t80 -140.5q22 55 81.5 138.5t199.5 256.5z" />
    <glyph glyph-name="y" unicode="y" horiz-adv-x="1198" 
d="M915 1063h250l-620 -1534h-244l184 465l-452 1069h256q166 -401 231.5 -575t87.5 -275q21 102 84.5 279t222.5 571z" />
    <glyph glyph-name="z" unicode="z" horiz-adv-x="985" 
d="M70 1063h868l-522 -864h504v-199h-873l524 864h-501v199z" />
    <glyph glyph-name="braceleft" unicode="{" horiz-adv-x="628" 
d="M588 1454v-192q-33 4 -67 6t-65 -8.5t-54 -28.5t-34 -54t-6 -85l39 -347q13 -127 -90 -172q44 -23 70 -69t20 -107l-39 -342q-5 -48 6 -84t34 -54.5t54 -29t65 -8.5t67 6v-192q-102 -15 -187 -2.5t-145 48t-89.5 108t-19.5 176.5l37 346q13 112 -110 112h-25v187h25
q123 0 110 112l-37 344q-9 84 8.5 147.5t56.5 102.5t96 62t128 25t152 -7z" />
    <glyph glyph-name="bar" unicode="|" horiz-adv-x="548" 
d="M369 -164h-189v1782h189v-1782z" />
    <glyph glyph-name="braceright" unicode="}" horiz-adv-x="628" 
d="M555 668h25v-189h-25q-124 0 -111 -112l35 -342q9 -84 -8 -147.5t-55.5 -102.5t-95 -62t-127.5 -25t-152 7v192q33 -4 67 -6t64.5 8t53.5 28.5t34 54t6 83.5l-39 346q-14 130 90 172q-45 23 -70.5 68.5t-19.5 108.5l39 344q5 48 -6 83.5t-34 54t-53.5 28.5t-64.5 8
t-67 -6v194q81 8 152 5.5t127.5 -26t95 -62t55.5 -102t8 -147.5l-35 -344q-13 -112 111 -112z" />
    <glyph glyph-name="asciitilde" unicode="~" horiz-adv-x="1191" 
d="M295 428l-164 51q13 98 81.5 170t178.5 72q67 0 143.5 -33.5t142 -66.5t105.5 -33q91 0 109 108l170 -51q-17 -109 -87 -175.5t-171 -66.5q-52 0 -113 20.5t-106.5 45.5t-95.5 45.5t-82 20.5q-89 0 -111 -107z" />
    <glyph glyph-name="exclamdown" unicode="&#xa1;" horiz-adv-x="548" 
d="M274 1079q56 0 95 -39t39 -94t-39 -94t-95 -39t-94.5 38.5t-38.5 94.5t38.5 94.5t94.5 38.5zM168 657h213l14 -1054h-239z" />
    <glyph glyph-name="cent" unicode="&#xa2;" horiz-adv-x="1060" 
d="M662 872q-152 0 -254.5 -98t-102.5 -244t102 -243t255 -97q177 0 309 129v-227q-103 -87 -244 -108v-201h-201v203q-207 35 -330.5 184t-123.5 362q0 211 124 360.5t330 184.5v209h201v-207q141 -21 244 -108v-228q-132 129 -309 129z" />
    <glyph glyph-name="sterling" unicode="&#xa3;" horiz-adv-x="1218" 
d="M854 186q148 0 262 78v-213q-109 -67 -262 -67q-90 0 -227 38.5t-224 38.5q-147 0 -262 -75v211q150 70 207.5 124.5t57.5 135.5q0 30 -9 57h-256v158h168q-81 115 -109 172q-50 105 -50 213q0 190 132.5 304t338.5 114q212 0 342.5 -139.5t130.5 -358.5h-240
q0 133 -63.5 210t-176.5 77q-101 0 -163 -61.5t-62 -164.5q0 -65 27 -124t78 -131.5t71 -110.5h375v-158h-326v-27q0 -58 -24 -118t-74 -107q32 -6 147 -41t191 -35z" />
    <glyph glyph-name="currency" unicode="&#xa4;" horiz-adv-x="1304" 
d="M1106 719q0 -122 -62 -227l154 -156l-147 -143l-148 149q-112 -76 -250 -76q-139 0 -252 74l-145 -147l-150 143l152 153q-61 106 -61 230q0 117 59 225l-150 152l150 143l143 -143q115 75 254 75q141 0 254 -77l144 145l147 -143l-151 -154q59 -100 59 -223zM653 465
q106 0 179 73.5t73 180.5t-73 180.5t-179 73.5q-107 0 -180.5 -73.5t-73.5 -180.5t73.5 -180.5t180.5 -73.5z" />
    <glyph glyph-name="yen" unicode="&#xa5;" horiz-adv-x="1286" 
d="M999 1454h269l-418 -702h299v-158h-387v-133h387v-158h-387v-303h-238v303h-387v158h387v133h-387v158h299l-418 702h273q174 -296 250.5 -441.5t103.5 -228.5q26 80 103 225t251 445z" />
    <glyph glyph-name="brokenbar" unicode="&#xa6;" horiz-adv-x="548" 
d="M369 1024h-189v594h189v-594zM369 -164h-189v594h189v-594z" />
    <glyph glyph-name="section" unicode="&#xa7;" horiz-adv-x="1085" 
d="M827 504q125 -88 125 -217q0 -95 -54.5 -166t-143.5 -106t-199 -35q-203 0 -323 87.5t-123 260.5l227 6q7 -83 64.5 -130.5t146.5 -47.5q76 0 122 30.5t46 87.5q0 46 -37.5 76.5t-116.5 61.5l-178 63q-50 18 -93.5 44t-83.5 62t-63.5 86.5t-23.5 108.5q0 83 44 151.5
t120 110.5q-136 84 -136 222q0 137 110 218t271 81q179 0 289 -93t115 -233l-225 -6q-4 74 -56 119t-131 45q-60 0 -100.5 -30t-40.5 -81q0 -47 45 -79t137 -68l131 -50q141 -51 216 -134t75 -189q0 -80 -42 -147t-114 -109zM537 621l94 -33q61 13 97 54t36 95
q0 60 -52 108.5t-167 88.5l-70 24q-64 -10 -103.5 -53t-39.5 -100q0 -59 49.5 -104t155.5 -80z" />
    <glyph glyph-name="dieresis" unicode="&#xa8;" horiz-adv-x="837" 
d="M221 1214q-53 0 -88 35.5t-35 89.5q0 53 35 88t88 35t89 -35.5t36 -87.5q0 -54 -36 -89.5t-89 -35.5zM614 1214q-53 0 -87.5 35.5t-34.5 89.5q0 53 35 88t87 35q53 0 89 -35.5t36 -87.5q0 -54 -36 -89.5t-89 -35.5z" />
    <glyph glyph-name="copyright" unicode="&#xa9;" horiz-adv-x="1845" 
d="M922 -88q-171 0 -324.5 64.5t-264.5 174t-176 262t-65 322.5t65 323t176 263.5t264.5 175t324.5 64.5t325.5 -64.5t265 -174.5t175.5 -263t65 -324q0 -170 -65 -322.5t-175.5 -262.5t-265 -174t-325.5 -64zM922 49q140 0 265.5 53.5t215.5 145.5t143 219t53 268t-53 268
t-143 219t-215.5 145.5t-265.5 53.5q-111 0 -214.5 -34t-186.5 -97.5t-145 -147.5t-96 -189t-34 -218t34 -218t96 -189t145 -147.5t186.5 -97.5t214.5 -34zM954 274q-188 0 -318 134t-130 327q0 195 130 328t318 133q69 0 131 -19.5t91.5 -38t50.5 -38.5v-213
q-48 64 -107 100.5t-147 36.5q-124 0 -204.5 -82t-80.5 -207t81 -208t204 -83q150 0 254 140v-215q-37 -35 -106 -65t-167 -30z" />
    <glyph glyph-name="ordfeminine" unicode="&#xaa;" horiz-adv-x="1001" 
d="M692 1327l31 127h158v-747h-189v141q-29 -73 -101 -114.5t-167 -41.5q-165 0 -265 112.5t-100 276.5q0 169 102.5 279t272.5 110q78 0 148 -36t110 -101v-6zM471 860q96 0 158.5 62.5t62.5 158.5t-62.5 159t-158.5 63q-97 0 -160 -62.5t-63 -159.5q0 -98 63 -159.5
t160 -61.5z" />
    <glyph glyph-name="guillemotleft" unicode="&#xab;" horiz-adv-x="976" 
d="M301 866h238l-250 -370l250 -373h-238l-258 371zM698 866h238l-252 -370l252 -373h-238l-260 371z" />
    <glyph glyph-name="logicalnot" unicode="&#xac;" horiz-adv-x="1099" 
d="M106 512v199h812v-508h-220v309h-592z" />
    <glyph glyph-name="registered" unicode="&#xae;" horiz-adv-x="1142" 
d="M567 1466q211 0 351.5 -137t140.5 -342q0 -204 -140.5 -340.5t-351.5 -136.5q-207 0 -346 137t-139 340q0 205 139 342t346 137zM567 610q166 0 275.5 105t109.5 272q0 163 -110.5 272t-274.5 109q-162 0 -270.5 -106.5t-108.5 -274.5q0 -161 109.5 -269t269.5 -108z
M788 1102q0 -44 -17 -77.5t-44.5 -52t-57 -27t-59.5 -9.5l187 -207h-127l-183 217v-217h-102v537h215q86 0 137 -44.5t51 -119.5zM592 1169h-105v-159h105q42 0 67 22.5t25 59.5q0 77 -92 77z" />
    <glyph glyph-name="macron" unicode="&#xaf;" horiz-adv-x="927" 
d="M121 1214v185h686v-185h-686z" />
    <glyph glyph-name="degree" unicode="&#xb0;" horiz-adv-x="937" 
d="M469 786q-146 0 -247 99.5t-101 244.5t101 245t247 100t247 -100t101 -245t-101 -244.5t-247 -99.5zM469 946q75 0 126.5 53.5t51.5 130.5q0 75 -51.5 129t-126.5 54t-126.5 -54t-51.5 -129q0 -77 51.5 -130.5t126.5 -53.5z" />
    <glyph glyph-name="plusminus" unicode="&#xb1;" horiz-adv-x="1001" 
d="M614 1204v-301h293v-211h-293v-301h-225v301h-295v211h295v301h225zM907 78h-813v211h813v-211z" />
    <glyph glyph-name="uni00B2" unicode="&#xb2;" horiz-adv-x="778" 
d="M250 893h455v-168h-639v119q0 67 25.5 122t66 92.5t89.5 69t98 58t89.5 52.5t66 59.5t25.5 72.5q0 51 -37 87t-98 36q-65 0 -104.5 -40t-42.5 -107h-178q0 132 93.5 220.5t231.5 88.5q133 0 222 -76t89 -207q0 -63 -22 -114.5t-58.5 -86t-80.5 -63t-91 -51.5t-87 -46
t-71 -53t-42 -65z" />
    <glyph glyph-name="uni00B3" unicode="&#xb3;" horiz-adv-x="782" 
d="M592 1206q129 -71 129 -215q0 -118 -86.5 -198t-237.5 -80q-158 0 -252 87t-94 224h172q0 -73 48 -115.5t118 -42.5q68 0 111 37.5t43 95.5q0 36 -16.5 61.5t-43.5 37.5t-53 17t-55 5h-72v152h76q61 0 96 30t35 80q0 53 -37.5 85t-95.5 32q-62 0 -104 -39t-42 -106h-172
q0 130 88.5 215.5t237.5 85.5q135 0 218 -68t83 -182q0 -126 -94 -199z" />
    <glyph glyph-name="acute" unicode="&#xb4;" horiz-adv-x="475" 
d="M227 1184h-186l162 319h248z" />
    <glyph glyph-name="uni00B5" unicode="&#xb5;" horiz-adv-x="1337" 
d="M956 492v571h238v-1063h-201l-41 145q-100 -168 -295 -168q-71 0 -137 25.5t-104 83.5l-2 -557h-234v1534h236v-588q0 -157 74.5 -227t187.5 -70q128 0 203 82t75 232z" />
    <glyph glyph-name="paragraph" unicode="&#xb6;" horiz-adv-x="1349" 
d="M84 981q0 147 70 256t185.5 163t258.5 54h186v-1454h-186v510q-143 -1 -258.5 52.5t-185.5 162.5t-70 256zM983 0v1454h186v-1454h-186z" />
    <glyph glyph-name="periodcentered" unicode="&#xb7;" horiz-adv-x="548" 
d="M274 387q-56 0 -94.5 38t-38.5 95q0 55 38.5 93t94.5 38t95 -38t39 -93q0 -57 -39 -95t-95 -38z" />
    <glyph glyph-name="cedilla" unicode="&#xb8;" horiz-adv-x="546" 
d="M395 0l-47 -115q66 -14 107 -59t41 -113q0 -93 -75.5 -146.5t-199.5 -53.5q-78 0 -155 32l4 160q83 -27 133 -27q37 0 56.5 13t19.5 33q0 61 -181 61l84 215h213z" />
    <glyph glyph-name="uni00B9" unicode="&#xb9;" horiz-adv-x="688" 
d="M629 725h-563v156h192v567l-186 -49v157l362 84v-759h195v-156z" />
    <glyph glyph-name="ordmasculine" unicode="&#xba;" horiz-adv-x="915" 
d="M457 692q-173 0 -286.5 110t-113.5 279q0 168 113.5 278.5t286.5 110.5q174 0 287.5 -110.5t113.5 -278.5q0 -169 -114 -279t-287 -110zM457 860q97 0 161 63t64 158q0 96 -63.5 159t-161.5 63q-94 0 -157.5 -63.5t-63.5 -158.5t63.5 -158t157.5 -63z" />
    <glyph glyph-name="guillemotright" unicode="&#xbb;" horiz-adv-x="976" 
d="M43 866h238l258 -372l-258 -371h-238l252 373zM438 866h238l258 -372l-258 -371h-238l252 373z" />
    <glyph glyph-name="onequarter" unicode="&#xbc;" horiz-adv-x="1736" 
d="M434 694h195v-155h-563v155h192v568l-186 -50v158l362 84v-760zM442 0l664 1454h197l-666 -1454h-195zM1561 915v-596h129v-141h-129v-178h-172v178h-416v121l426 616h162zM1157 319h232q0 262 22 420q-96 -191 -254 -420z" />
    <glyph glyph-name="onehalf" unicode="&#xbd;" horiz-adv-x="1832" 
d="M434 694h195v-155h-563v155h192v568l-186 -50v158l362 84v-760zM442 0l664 1454h197l-666 -1454h-195zM1307 168h454v-168h-639v119q0 67 25.5 122t66 92.5t89.5 69t98.5 58t90 52.5t66 59.5t25.5 72.5q0 51 -37 87t-98 36q-65 0 -105 -40t-43 -107h-178q0 132 94 220.5
t232 88.5q133 0 222 -76t89 -207q0 -63 -22 -114.5t-58.5 -86t-80.5 -63t-91 -51.5t-87 -46t-71 -53t-42 -65z" />
    <glyph glyph-name="threequarters" unicode="&#xbe;" horiz-adv-x="1830" 
d="M721 805q0 -118 -86.5 -198.5t-237.5 -80.5q-157 0 -251.5 87.5t-94.5 224.5h172q0 -73 48 -115.5t118 -42.5q68 0 111 37.5t43 95.5q0 36 -16.5 61.5t-43.5 37.5t-53 17t-55 5h-72v151h76q61 0 96 30.5t35 80.5q0 53 -37.5 85t-95.5 32q-62 0 -104 -39.5t-42 -106.5
h-172q0 130 88.5 215.5t237.5 85.5q135 0 218 -67.5t83 -181.5q0 -126 -94 -199q129 -71 129 -215zM537 0l663 1454h197l-666 -1454h-194zM1655 915v-596h129v-141h-129v-178h-172v178h-416v121l426 616h162zM1251 319h232q0 262 22 420q-96 -191 -254 -420z" />
    <glyph glyph-name="questiondown" unicode="&#xbf;" horiz-adv-x="1003" 
d="M518 811q-56 0 -94.5 38.5t-38.5 94.5t38.5 94.5t94.5 38.5t94.5 -38.5t38.5 -94.5t-38.5 -94.5t-94.5 -38.5zM745 70h240q0 -216 -136 -352t-349 -136q-206 0 -335.5 114.5t-129.5 295.5q0 162 98 276.5t277 149.5v235h213v-409h-58q-135 0 -213 -62.5t-78 -167.5
q0 -89 62.5 -148t165.5 -59q105 0 174 72.5t69 190.5z" />
    <glyph glyph-name="Agrave" unicode="&#xc0;" horiz-adv-x="1415" 
d="M645 1894l162 -319h-186l-224 319h248zM1368 0h-258q-17 50 -59 171t-62 179h-575l-119 -350h-248l522 1454h273zM479 549h443q-131 383 -173.5 528t-50.5 228q-10 -88 -52 -236.5t-167 -519.5z" />
    <glyph glyph-name="Aacute" unicode="&#xc1;" horiz-adv-x="1415" 
d="M772 1894h248l-223 -319h-187zM1368 0h-258q-17 50 -59 171t-62 179h-575l-119 -350h-248l522 1454h273zM479 549h443q-131 383 -173.5 528t-50.5 228q-10 -88 -52 -236.5t-167 -519.5z" />
    <glyph glyph-name="Acircumflex" unicode="&#xc2;" horiz-adv-x="1415" 
d="M709 1759q-49 -94 -121 -194h-213l241 319h183l243 -319h-215q-63 96 -118 194zM1368 0h-258q-17 50 -59 171t-62 179h-575l-119 -350h-248l522 1454h273zM479 549h443q-131 383 -173.5 528t-50.5 228q-10 -88 -52 -236.5t-167 -519.5z" />
    <glyph glyph-name="Atilde" unicode="&#xc3;" horiz-adv-x="1415" 
d="M584 1683q-34 0 -53 -22t-31 -62l-158 52q11 55 36.5 101t75.5 79t115 33q48 0 95.5 -21.5t88 -43t72.5 -21.5q34 0 53.5 21.5t30.5 64.5l166 -54q-22 -102 -80 -157.5t-147 -55.5q-52 0 -101.5 21.5t-90.5 43t-72 21.5zM1368 0h-258q-17 50 -59 171t-62 179h-575
l-119 -350h-248l522 1454h273zM479 549h443q-131 383 -173.5 528t-50.5 228q-10 -88 -52 -236.5t-167 -519.5z" />
    <glyph glyph-name="Adieresis" unicode="&#xc4;" horiz-adv-x="1415" 
d="M510 1606q-53 0 -88 35.5t-35 89.5q0 52 35 87t88 35t89 -35t36 -87q0 -54 -36 -89.5t-89 -35.5zM903 1606q-53 0 -88 35.5t-35 89.5q0 52 35 87t88 35t89 -35t36 -87q0 -54 -36 -89.5t-89 -35.5zM1368 0h-258q-17 50 -59 171t-62 179h-575l-119 -350h-248l522 1454h273z
M479 549h443q-131 383 -173.5 528t-50.5 228q-10 -88 -52 -236.5t-167 -519.5z" />
    <glyph glyph-name="Aring" unicode="&#xc5;" horiz-adv-x="1415" 
d="M707 1575q-89 0 -152 63t-63 154q0 89 63 152t152 63q91 0 154 -63t63 -152q0 -91 -63 -154t-154 -63zM707 1884q-39 0 -66 -26.5t-27 -65.5t27 -65.5t66 -26.5q40 0 67 26t27 66t-27 66t-67 26zM1368 0h-258q-17 50 -59 171t-62 179h-575l-119 -350h-248l522 1454h273z
M479 549h443q-131 383 -173.5 528t-50.5 228q-10 -88 -52 -236.5t-167 -519.5z" />
    <glyph glyph-name="AE" unicode="&#xc6;" horiz-adv-x="1869" 
d="M1792 1454v-217h-664v-395h541v-211h-541v-414h664v-217h-903v344h-469l-172 -344h-260l749 1454h1055zM879 1255l-359 -712h369v712h-10z" />
    <glyph glyph-name="Ccedilla" unicode="&#xc7;" horiz-adv-x="1331" 
d="M838 1255q-142 0 -260 -67.5t-187 -189t-69 -271.5q0 -226 150 -377t366 -151q140 0 239.5 43.5t157.5 99.5v-236q-51 -42 -135.5 -76.5t-196.5 -45.5l-41 -99q66 -14 107 -59t41 -113q0 -93 -75.5 -146.5t-199.5 -53.5q-78 0 -155 32l4 160q82 -27 133 -27q37 0 56.5 13
t19.5 33q0 61 -181 61l80 203q-130 21 -243 86.5t-193.5 162t-127 223.5t-46.5 267q0 155 56.5 293.5t153.5 238.5t232 158t285 58q147 0 255 -38t171 -89v-236q-56 56 -156 99.5t-241 43.5z" />
    <glyph glyph-name="Egrave" unicode="&#xc8;" horiz-adv-x="1130" 
d="M541 1894l161 -319h-186l-223 319h248zM1055 1454v-217h-666v-395h541v-211h-541v-414h666v-217h-905v1454h905z" />
    <glyph glyph-name="Eacute" unicode="&#xc9;" horiz-adv-x="1130" 
d="M670 1894h248l-224 -319h-186zM1055 1454v-217h-666v-395h541v-211h-541v-414h666v-217h-905v1454h905z" />
    <glyph glyph-name="Ecircumflex" unicode="&#xca;" horiz-adv-x="1130" 
d="M606 1759q-49 -94 -121 -194h-213l242 319h182l244 -319h-215q-70 107 -119 194zM1055 1454v-217h-666v-395h541v-211h-541v-414h666v-217h-905v1454h905z" />
    <glyph glyph-name="Edieresis" unicode="&#xcb;" horiz-adv-x="1130" 
d="M408 1606q-53 0 -88 35.5t-35 89.5q0 52 35 87t88 35t88.5 -35t35.5 -87q0 -54 -35.5 -89.5t-88.5 -35.5zM801 1606q-53 0 -88 35.5t-35 89.5q0 52 35 87t88 35t89 -35t36 -87q0 -54 -36 -89.5t-89 -35.5zM1055 1454v-217h-666v-395h541v-211h-541v-414h666v-217h-905
v1454h905z" />
    <glyph glyph-name="Igrave" unicode="&#xcc;" horiz-adv-x="540" 
d="M207 1894l162 -319h-187l-223 319h248zM389 0h-239v1454h239v-1454z" />
    <glyph glyph-name="Iacute" unicode="&#xcd;" horiz-adv-x="540" 
d="M358 1575h-186l162 319h248zM389 0h-239v1454h239v-1454z" />
    <glyph glyph-name="Icircumflex" unicode="&#xce;" horiz-adv-x="540" 
d="M178 1884h182l244 -319h-215q-70 107 -119 194q-52 -99 -120 -194h-213zM389 0h-239v1454h239v-1454z" />
    <glyph glyph-name="Idieresis" unicode="&#xcf;" horiz-adv-x="540" 
d="M72 1606q-53 0 -88 35.5t-35 89.5q0 52 35 87t88 35t89 -35t36 -87q0 -54 -36 -89.5t-89 -35.5zM465 1606q-53 0 -88 35.5t-35 89.5q0 52 35 87t88 35t89 -35t36 -87q0 -54 -36 -89.5t-89 -35.5zM389 0h-239v1454h239v-1454z" />
    <glyph glyph-name="Eth" unicode="&#xd0;" horiz-adv-x="1513" 
d="M225 1454h484q166 0 303.5 -56t228.5 -154.5t141 -231t50 -285.5t-50 -285.5t-141 -231t-228.5 -154.5t-303.5 -56h-484v645h-225v172h225v637zM465 217h244q220 0 351.5 135t131.5 375t-131.5 375t-351.5 135h-244v-420h268v-172h-268v-428z" />
    <glyph glyph-name="Ntilde" unicode="&#xd1;" horiz-adv-x="1509" 
d="M643 1683q-34 0 -53 -22t-31 -62l-158 52q17 87 75 150t153 63q48 0 95.5 -21.5t88 -43t72.5 -21.5q34 0 53.5 21.5t30.5 64.5l166 -54q-22 -101 -80.5 -157t-147.5 -56q-52 0 -101.5 21.5t-90.5 43t-72 21.5zM1126 1454h234v-1454h-223l-764 1073q12 -138 12 -1073h-235
v1454h225l764 -1081q-9 84 -11 292t-2 789z" />
    <glyph glyph-name="Ograve" unicode="&#xd2;" horiz-adv-x="1640" 
d="M756 1894l162 -319h-187l-223 319h248zM819 -20q-157 0 -294 57t-234 155.5t-153 237.5t-56 297t56 297t153 238t234 156t294 57t294.5 -57t235 -156t154 -238t56.5 -297q0 -211 -96 -382t-265.5 -268t-378.5 -97zM819 205q142 0 257.5 70t179 189.5t63.5 262.5
t-63.5 262.5t-179 189.5t-257.5 70q-214 0 -355.5 -151.5t-141.5 -370.5t141.5 -370.5t355.5 -151.5z" />
    <glyph glyph-name="Oacute" unicode="&#xd3;" horiz-adv-x="1640" 
d="M909 1575h-186l162 319h248zM819 -20q-157 0 -294 57t-234 155.5t-153 237.5t-56 297t56 297t153 238t234 156t294 57t294.5 -57t235 -156t154 -238t56.5 -297q0 -211 -96 -382t-265.5 -268t-378.5 -97zM819 205q142 0 257.5 70t179 189.5t63.5 262.5t-63.5 262.5
t-179 189.5t-257.5 70q-214 0 -355.5 -151.5t-141.5 -370.5t141.5 -370.5t355.5 -151.5z" />
    <glyph glyph-name="Ocircumflex" unicode="&#xd4;" horiz-adv-x="1640" 
d="M819 1759q-49 -94 -121 -194h-213l242 319h182l244 -319h-215q-70 107 -119 194zM819 1475q157 0 294.5 -57t235 -156t154 -238t56.5 -297q0 -211 -96 -382t-265.5 -268t-378.5 -97q-157 0 -294 57t-234 155.5t-153 237.5t-56 297t56 297t153 238t234 156t294 57z
M819 205q142 0 257.5 70t179 189.5t63.5 262.5t-63.5 262.5t-179 189.5t-257.5 70q-214 0 -355.5 -151.5t-141.5 -370.5t141.5 -370.5t355.5 -151.5z" />
    <glyph glyph-name="Otilde" unicode="&#xd5;" horiz-adv-x="1640" 
d="M610 1599l-157 52q11 55 36.5 101t75.5 79t115 33q48 0 95.5 -21.5t88 -43t72.5 -21.5q34 0 53.5 21.5t30.5 64.5l166 -54q-22 -101 -80.5 -157t-147.5 -56q-52 0 -101.5 21.5t-90.5 43t-72 21.5q-34 0 -53 -22t-31 -62zM819 -20q-157 0 -294 57t-234 155.5t-153 237.5
t-56 297t56 297t153 238t234 156t294 57t294.5 -57t235 -156t154 -238t56.5 -297q0 -211 -96 -382t-265.5 -268t-378.5 -97zM819 205q142 0 257.5 70t179 189.5t63.5 262.5t-63.5 262.5t-179 189.5t-257.5 70q-214 0 -355.5 -151.5t-141.5 -370.5t141.5 -370.5t355.5 -151.5
z" />
    <glyph glyph-name="Odieresis" unicode="&#xd6;" horiz-adv-x="1640" 
d="M623 1606q-53 0 -88 35.5t-35 89.5q0 52 35 87t88 35t89 -35t36 -87q0 -54 -36 -89.5t-89 -35.5zM1016 1606q-53 0 -88 35.5t-35 89.5q0 52 35 87t88 35t89 -35t36 -87q0 -54 -36 -89.5t-89 -35.5zM819 -20q-157 0 -294 57t-234 155.5t-153 237.5t-56 297t56 297t153 238
t234 156t294 57t294.5 -57t235 -156t154 -238t56.5 -297q0 -211 -96 -382t-265.5 -268t-378.5 -97zM819 205q142 0 257.5 70t179 189.5t63.5 262.5t-63.5 262.5t-179 189.5t-257.5 70q-214 0 -355.5 -151.5t-141.5 -370.5t141.5 -370.5t355.5 -151.5z" />
    <glyph glyph-name="multiply" unicode="&#xd7;" horiz-adv-x="917" 
d="M614 553l213 -211l-159 -160l-213 211l-207 -207l-150 152l207 207l-213 211l160 159l213 -210l209 208l149 -151z" />
    <glyph glyph-name="Oslash" unicode="&#xd8;" horiz-adv-x="1652" 
d="M1526 1495l-172 -229q103 -103 159 -241.5t56 -297.5q0 -211 -96 -382t-265.5 -268t-378.5 -97q-199 0 -366 90l-82 -111h-256l174 236q-100 101 -154.5 238t-54.5 294q0 158 56 297t154 238t235 156t294 57q196 0 359 -86l80 106h258zM330 727q0 -199 114 -338l605 811
q-104 49 -220 49q-142 0 -257 -70t-178.5 -189.5t-63.5 -262.5zM829 205q142 0 257 70t179 189.5t64 262.5q0 200 -119 344l-606 -813q100 -53 225 -53z" />
    <glyph glyph-name="Ugrave" unicode="&#xd9;" horiz-adv-x="1462" 
d="M668 1894l161 -319h-186l-223 319h248zM731 -20q-274 0 -432 162t-158 464v848h240v-854q0 -199 94 -300t256 -101q163 0 257.5 101t94.5 300v854h238v-848q0 -302 -158 -464t-432 -162z" />
    <glyph glyph-name="Uacute" unicode="&#xda;" horiz-adv-x="1462" 
d="M819 1575h-186l162 319h247zM731 -20q-274 0 -432 162t-158 464v848h240v-854q0 -199 94 -300t256 -101q163 0 257.5 101t94.5 300v854h238v-848q0 -302 -158 -464t-432 -162z" />
    <glyph glyph-name="Ucircumflex" unicode="&#xdb;" horiz-adv-x="1462" 
d="M731 1759q-49 -94 -121 -194h-213l242 319h182l244 -319h-215q-70 107 -119 194zM1083 600v854h238v-848q0 -302 -158 -464t-432 -162t-432 162t-158 464v848h240v-854q0 -199 94 -300t256 -101q163 0 257.5 101t94.5 300z" />
    <glyph glyph-name="Udieresis" unicode="&#xdc;" horiz-adv-x="1462" 
d="M532 1606q-53 0 -87.5 35.5t-34.5 89.5q0 53 35 87.5t87 34.5q53 0 89 -35t36 -87q0 -54 -36 -89.5t-89 -35.5zM926 1606q-53 0 -88 35.5t-35 89.5q0 52 35 87t88 35t89 -35t36 -87q0 -54 -36 -89.5t-89 -35.5zM731 -20q-274 0 -432 162t-158 464v848h240v-854
q0 -199 94 -300t256 -101q163 0 257.5 101t94.5 300v854h238v-848q0 -302 -158 -464t-432 -162z" />
    <glyph glyph-name="Yacute" unicode="&#xdd;" horiz-adv-x="1286" 
d="M707 1894h247l-223 -319h-186zM999 1454h269l-506 -852v-602h-238v602l-506 852h273q174 -296 250.5 -441.5t103.5 -228.5q26 80 103 225t251 445z" />
    <glyph glyph-name="Thorn" unicode="&#xde;" horiz-adv-x="1277" 
d="M389 1223h305q153 0 271.5 -54t188 -164t69.5 -262q0 -228 -150 -360.5t-391 -132.5h-293v-250h-239v1454h239v-231zM389 469h305q129 0 209 69.5t80 198.5q0 128 -80 197.5t-209 69.5h-305v-535z" />
    <glyph glyph-name="germandbls" unicode="&#xdf;" horiz-adv-x="1269" 
d="M930 850q140 -35 219.5 -144.5t79.5 -267.5q0 -87 -27.5 -165t-81.5 -141t-143 -100.5t-201 -37.5q-165 0 -274 78v227q118 -86 243 -86q122 0 186 63.5t64 165.5q0 122 -94 193.5t-244 71.5h-28v190h16q83 0 133.5 57t50.5 142q0 89 -58.5 143.5t-162.5 54.5
q-113 0 -182.5 -73.5t-69.5 -208.5v-1012h-235v1012q0 82 17 155t55 137t94 110t138.5 72.5t184.5 26.5q217 0 335 -111t118 -272q0 -89 -33.5 -163t-99.5 -117z" />
    <glyph glyph-name="agrave" unicode="&#xe0;" horiz-adv-x="1353" 
d="M627 1503l161 -319h-186l-223 319h248zM995 860l37 203h199v-1063h-236v217q-45 -110 -150.5 -173.5t-250.5 -63.5q-158 0 -278 75t-182 200.5t-62 279.5q0 240 146 395t388 155q121 0 224.5 -57t164.5 -160v-8zM653 190q148 0 244 97.5t96 244.5q0 146 -96 243t-244 97
q-151 0 -247.5 -95.5t-96.5 -244.5q0 -151 96.5 -246.5t247.5 -95.5z" />
    <glyph glyph-name="aacute" unicode="&#xe1;" horiz-adv-x="1353" 
d="M756 1503h248l-224 -319h-186zM995 860l37 203h199v-1063h-236v217q-45 -110 -150.5 -173.5t-250.5 -63.5q-158 0 -278 75t-182 200.5t-62 279.5q0 240 146 395t388 155q121 0 224.5 -57t164.5 -160v-8zM653 190q148 0 244 97.5t96 244.5q0 146 -96 243t-244 97
q-151 0 -247.5 -95.5t-96.5 -244.5q0 -151 96.5 -246.5t247.5 -95.5z" />
    <glyph glyph-name="acircumflex" unicode="&#xe2;" horiz-adv-x="1353" 
d="M692 1368q-43 -82 -121 -192h-213l242 317h182l244 -317h-215q-78 120 -119 192zM995 860l37 203h199v-1063h-236v217q-45 -110 -150.5 -173.5t-250.5 -63.5q-158 0 -278 75t-182 200.5t-62 279.5q0 240 146 395t388 155q121 0 224.5 -57t164.5 -160v-8zM653 190
q148 0 244 97.5t96 244.5q0 146 -96 243t-244 97q-151 0 -247.5 -95.5t-96.5 -244.5q0 -151 96.5 -246.5t247.5 -95.5z" />
    <glyph glyph-name="atilde" unicode="&#xe3;" horiz-adv-x="1353" 
d="M565 1292q-34 0 -53 -22t-31 -62l-157 52q11 55 36.5 101t75.5 79t115 33q48 0 95.5 -21.5t88 -43.5t72.5 -22q34 0 53.5 22t30.5 65l166 -54q-22 -101 -80.5 -157t-147.5 -56q-52 0 -101.5 21.5t-90.5 43t-72 21.5zM995 860l37 203h199v-1063h-236v217
q-45 -110 -150.5 -173.5t-250.5 -63.5q-158 0 -278 75t-182 200.5t-62 279.5q0 240 146 395t388 155q121 0 224.5 -57t164.5 -160v-8zM653 190q148 0 244 97.5t96 244.5q0 146 -96 243t-244 97q-151 0 -247.5 -95.5t-96.5 -244.5q0 -151 96.5 -246.5t247.5 -95.5z" />
    <glyph glyph-name="adieresis" unicode="&#xe4;" horiz-adv-x="1353" 
d="M494 1214q-53 0 -88 35.5t-35 89.5q0 53 35.5 88t87.5 35q53 0 88.5 -35.5t35.5 -87.5q0 -54 -35.5 -89.5t-88.5 -35.5zM887 1214q-53 0 -88 35.5t-35 89.5q0 53 35 88t88 35t89 -35.5t36 -87.5q0 -54 -36 -89.5t-89 -35.5zM995 860l37 203h199v-1063h-236v217
q-45 -110 -150.5 -173.5t-250.5 -63.5q-158 0 -278 75t-182 200.5t-62 279.5q0 240 146 395t388 155q121 0 224.5 -57t164.5 -160v-8zM653 190q148 0 244 97.5t96 244.5q0 146 -96 243t-244 97q-151 0 -247.5 -95.5t-96.5 -244.5q0 -151 96.5 -246.5t247.5 -95.5z" />
    <glyph glyph-name="aring" unicode="&#xe5;" horiz-adv-x="1353" 
d="M690 1186q-90 0 -152.5 62.5t-62.5 152.5q0 91 63 154t152 63q91 0 154 -63t63 -154t-63 -153t-154 -62zM690 1493q-39 0 -65.5 -26.5t-26.5 -65.5t26.5 -65.5t65.5 -26.5q40 0 67 26t27 66t-27 66t-67 26zM995 860l37 203h199v-1063h-236v217q-45 -110 -150.5 -173.5
t-250.5 -63.5q-158 0 -278 75t-182 200.5t-62 279.5q0 240 146 395t388 155q121 0 224.5 -57t164.5 -160v-8zM653 190q148 0 244 97.5t96 244.5q0 146 -96 243t-244 97q-151 0 -247.5 -95.5t-96.5 -244.5q0 -151 96.5 -246.5t247.5 -95.5z" />
    <glyph glyph-name="ae" unicode="&#xe6;" horiz-adv-x="1953" 
d="M1882 442h-854v-8q13 -121 105 -196.5t223 -75.5q108 0 183 47.5t112 122.5l207 -23q-44 -147 -182.5 -244.5t-321.5 -97.5q-148 0 -267.5 58t-195.5 163q-51 -103 -157.5 -155.5t-248.5 -52.5q-195 0 -315.5 97t-120.5 263q0 165 117 261.5t299 96.5q106 0 194 -36
t134 -97v41q0 281 -306 281q-198 0 -378 -84v201q194 81 419 81q293 0 416 -172q74 75 175 117.5t218 42.5q250 0 401 -167t144 -464zM1337 883q-124 0 -210.5 -71.5t-98.5 -184.5v-6h612q-5 114 -89.5 188t-213.5 74zM535 154q112 0 184 53.5t74 138.5q-2 80 -75 134.5
t-183 54.5q-107 0 -176.5 -53.5t-69.5 -137.5q0 -85 69.5 -137.5t176.5 -52.5z" />
    <glyph glyph-name="ccedilla" unicode="&#xe7;" horiz-adv-x="1060" 
d="M662 872q-152 0 -254.5 -98t-102.5 -244t102 -243t255 -97q177 0 309 129v-227q-111 -95 -271 -110l-38 -97q66 -14 106.5 -59t40.5 -113q0 -93 -75 -146.5t-199 -53.5q-79 0 -156 32l4 160q83 -27 133 -27q37 0 56.5 13t19.5 33q0 61 -180 61l82 209q-193 43 -307.5 189
t-114.5 349q0 240 157.5 396.5t409.5 156.5q200 0 332 -114v-228q-132 129 -309 129z" />
    <glyph glyph-name="egrave" unicode="&#xe8;" horiz-adv-x="1232" 
d="M553 1503l162 -319h-187l-223 319h248zM616 1085q250 0 401 -166.5t144 -463.5h-854q10 -124 102.5 -202.5t225.5 -78.5q108 0 183 47.5t112 122.5l207 -22q-44 -147 -182.5 -244.5t-321.5 -97.5q-246 0 -403.5 152t-157.5 398q0 238 154 396.5t390 158.5zM616 895
q-126 0 -213 -74t-96 -188h613q-5 113 -90 187.5t-214 74.5z" />
    <glyph glyph-name="eacute" unicode="&#xe9;" horiz-adv-x="1232" 
d="M680 1503h248l-223 -319h-187zM616 1085q250 0 401 -166.5t144 -463.5h-854q10 -124 102.5 -202.5t225.5 -78.5q108 0 183 47.5t112 122.5l207 -22q-44 -147 -182.5 -244.5t-321.5 -97.5q-246 0 -403.5 152t-157.5 398q0 238 154 396.5t390 158.5zM616 895
q-126 0 -213 -74t-96 -188h613q-5 113 -90 187.5t-214 74.5z" />
    <glyph glyph-name="ecircumflex" unicode="&#xea;" horiz-adv-x="1232" 
d="M616 1368q-46 -87 -120 -192h-213l241 317h183l243 -317h-215q-78 120 -119 192zM616 1085q250 0 401 -166.5t144 -463.5h-854q10 -124 102.5 -202.5t225.5 -78.5q108 0 183 47.5t112 122.5l207 -22q-44 -147 -182.5 -244.5t-321.5 -97.5q-246 0 -403.5 152t-157.5 398
q0 238 154 396.5t390 158.5zM616 895q-126 0 -213 -74t-96 -188h613q-5 113 -90 187.5t-214 74.5z" />
    <glyph glyph-name="edieresis" unicode="&#xeb;" horiz-adv-x="1232" 
d="M418 1214q-53 0 -88 35.5t-35 89.5q0 53 35.5 88t87.5 35q53 0 89 -35.5t36 -87.5q0 -54 -36 -89.5t-89 -35.5zM811 1214q-53 0 -88 35.5t-35 89.5q0 53 35 88t88 35t89 -35.5t36 -87.5q0 -54 -36 -89.5t-89 -35.5zM616 1085q250 0 401 -166.5t144 -463.5h-854
q10 -124 102.5 -202.5t225.5 -78.5q108 0 183 47.5t112 122.5l207 -22q-44 -147 -182.5 -244.5t-321.5 -97.5q-246 0 -403.5 152t-157.5 398q0 238 154 396.5t390 158.5zM616 895q-126 0 -213 -74t-96 -188h613q-5 113 -90 187.5t-214 74.5z" />
    <glyph glyph-name="igrave" unicode="&#xec;" horiz-adv-x="477" 
d="M174 1503l162 -319h-186l-224 319h248zM121 1063h235v-1063h-235v1063z" />
    <glyph glyph-name="iacute" unicode="&#xed;" horiz-adv-x="477" 
d="M328 1184h-187l162 319h248zM121 1063h235v-1063h-235v1063z" />
    <glyph glyph-name="icircumflex" unicode="&#xee;" horiz-adv-x="477" 
d="M145 1493h183l243 -317h-215q-71 108 -118 192q-43 -82 -121 -192h-213zM356 0h-235v1063h235v-1063z" />
    <glyph glyph-name="idieresis" unicode="&#xef;" horiz-adv-x="477" 
d="M41 1214q-53 0 -88 35.5t-35 89.5q0 53 35 88t88 35t89 -35.5t36 -87.5q0 -54 -36 -89.5t-89 -35.5zM434 1214q-53 0 -88 35.5t-35 89.5q0 53 35.5 88t87.5 35q53 0 89 -35.5t36 -87.5q0 -54 -36 -89.5t-89 -35.5zM121 1063h235v-1063h-235v1063z" />
    <glyph glyph-name="eth" unicode="&#xf0;" horiz-adv-x="1224" 
d="M791 1288l204 -260q176 -225 176 -465q0 -258 -158.5 -422t-404.5 -164q-244 0 -401.5 151t-157.5 386q0 162 67.5 281.5t184 180t266.5 60.5q103 0 178 -47l-167 209l-334 -139v164l237 98l-172 215h285l100 -127l285 119v-162zM608 197q145 0 238.5 91.5t93.5 233.5
q0 145 -92 235.5t-240 90.5q-142 0 -233.5 -91t-91.5 -235q0 -142 92 -233.5t233 -91.5z" />
    <glyph glyph-name="ntilde" unicode="&#xf1;" horiz-adv-x="1243" 
d="M510 1292q-34 0 -53 -22t-31 -62l-158 52q17 87 75 150t153 63q48 0 95.5 -21.5t88 -43.5t72.5 -22q34 0 53.5 22t30.5 65l165 -54q-22 -102 -80 -157.5t-147 -55.5q-52 0 -101.5 21.5t-90.5 43t-72 21.5zM709 1085q87 0 162 -27t135.5 -81t95.5 -145t35 -209v-623h-238
v588q0 82 -21.5 141.5t-60 92t-83 47t-97.5 14.5q-129 0 -204 -81t-75 -231v-571h-237v1063h201l32 -178q104 200 355 200z" />
    <glyph glyph-name="ograve" unicode="&#xf2;" horiz-adv-x="1282" 
d="M575 1503l162 -319h-186l-223 319h247zM641 -20q-246 0 -407.5 156.5t-161.5 395.5q0 156 73.5 283t203.5 198.5t292 71.5q247 0 408 -157.5t161 -395.5q0 -239 -161 -395.5t-408 -156.5zM641 190q147 0 244.5 97.5t97.5 244.5q0 148 -97 245t-245 97
q-147 0 -244.5 -97.5t-97.5 -244.5q0 -146 98 -244t244 -98z" />
    <glyph glyph-name="oacute" unicode="&#xf3;" horiz-adv-x="1282" 
d="M729 1184h-186l162 319h247zM641 -20q-246 0 -407.5 156.5t-161.5 395.5q0 156 73.5 283t203.5 198.5t292 71.5q247 0 408 -157.5t161 -395.5q0 -239 -161 -395.5t-408 -156.5zM641 190q147 0 244.5 97.5t97.5 244.5q0 148 -97 245t-245 97q-147 0 -244.5 -97.5
t-97.5 -244.5q0 -146 98 -244t244 -98z" />
    <glyph glyph-name="ocircumflex" unicode="&#xf4;" horiz-adv-x="1282" 
d="M641 1368q-43 -82 -121 -192h-213l242 317h182l244 -317h-215q-78 120 -119 192zM641 1085q247 0 408 -157.5t161 -395.5q0 -239 -161 -395.5t-408 -156.5q-246 0 -407.5 156.5t-161.5 395.5q0 156 73.5 283t203.5 198.5t292 71.5zM641 190q147 0 244.5 97.5t97.5 244.5
q0 148 -97 245t-245 97q-147 0 -244.5 -97.5t-97.5 -244.5q0 -146 98 -244t244 -98z" />
    <glyph glyph-name="otilde" unicode="&#xf5;" horiz-adv-x="1282" 
d="M432 1208l-158 52q17 87 75 150t153 63q48 0 95.5 -21.5t88 -43.5t72.5 -22q34 0 53.5 22t30.5 65l166 -54q-22 -101 -80.5 -157t-147.5 -56q-52 0 -101.5 21.5t-90.5 43t-72 21.5q-34 0 -53 -22t-31 -62zM641 -20q-246 0 -407.5 156.5t-161.5 395.5q0 156 73.5 283
t203.5 198.5t292 71.5q247 0 408 -157.5t161 -395.5q0 -239 -161 -395.5t-408 -156.5zM641 190q147 0 244.5 97.5t97.5 244.5q0 148 -97 245t-245 97q-147 0 -244.5 -97.5t-97.5 -244.5q0 -146 98 -244t244 -98z" />
    <glyph glyph-name="odieresis" unicode="&#xf6;" horiz-adv-x="1282" 
d="M442 1214q-53 0 -88 35.5t-35 89.5q0 53 35.5 88t87.5 35q53 0 89 -35.5t36 -87.5q0 -54 -36 -89.5t-89 -35.5zM836 1214q-53 0 -88 35.5t-35 89.5q0 53 35.5 88t87.5 35q53 0 89 -35.5t36 -87.5q0 -54 -36 -89.5t-89 -35.5zM641 -20q-246 0 -407.5 156.5t-161.5 395.5
q0 156 73.5 283t203.5 198.5t292 71.5q247 0 408 -157.5t161 -395.5q0 -239 -161 -395.5t-408 -156.5zM641 190q147 0 244.5 97.5t97.5 244.5q0 148 -97 245t-245 97q-147 0 -244.5 -97.5t-97.5 -244.5q0 -146 98 -244t244 -98z" />
    <glyph glyph-name="divide" unicode="&#xf7;" horiz-adv-x="997" 
d="M498 743q-52 0 -88.5 36.5t-36.5 88.5t36 87.5t89 35.5q52 0 87.5 -35.5t35.5 -87.5q0 -53 -35.5 -89t-87.5 -36zM905 446h-813v211h813v-211zM498 109q-53 0 -89 36t-36 88t36 87.5t89 35.5q52 0 87.5 -35t35.5 -88t-35.5 -88.5t-87.5 -35.5z" />
    <glyph glyph-name="oslash" unicode="&#xf8;" horiz-adv-x="1282" 
d="M1198 1116l-147 -190q159 -156 159 -394q0 -239 -161 -395.5t-408 -156.5q-153 0 -276 63l-78 -98h-217l155 198q-153 156 -153 389q0 156 73.5 283t203.5 198.5t292 71.5q148 0 270 -61l72 92h215zM299 532q0 -119 68 -206l409 524q-62 24 -135 24q-147 0 -244.5 -97.5
t-97.5 -244.5zM641 190q147 0 244.5 97.5t97.5 244.5q0 125 -72 216l-411 -529q69 -29 141 -29z" />
    <glyph glyph-name="ugrave" unicode="&#xf9;" horiz-adv-x="1241" 
d="M539 1503l161 -319h-186l-223 319h248zM883 492v571h237v-1063h-200l-29 188q-105 -211 -359 -211q-86 0 -161 27t-135 81.5t-95 145.5t-35 209v623h234v-588q0 -82 22 -141.5t60.5 -92.5t83.5 -48t98 -15q128 0 203.5 82t75.5 232z" />
    <glyph glyph-name="uacute" unicode="&#xfa;" horiz-adv-x="1241" 
d="M666 1503h247l-223 -319h-186zM883 492v571h237v-1063h-200l-29 188q-105 -211 -359 -211q-86 0 -161 27t-135 81.5t-95 145.5t-35 209v623h234v-588q0 -82 22 -141.5t60.5 -92.5t83.5 -48t98 -15q128 0 203.5 82t75.5 232z" />
    <glyph glyph-name="ucircumflex" unicode="&#xfb;" horiz-adv-x="1241" 
d="M602 1368q-43 -82 -121 -192h-213l242 317h182l244 -317h-215q-78 120 -119 192zM883 492v571h237v-1063h-200l-29 188q-105 -211 -359 -211q-86 0 -161 27t-135 81.5t-95 145.5t-35 209v623h234v-588q0 -82 22 -141.5t60.5 -92.5t83.5 -48t98 -15q128 0 203.5 82
t75.5 232z" />
    <glyph glyph-name="udieresis" unicode="&#xfc;" horiz-adv-x="1241" 
d="M403 1214q-53 0 -87.5 35.5t-34.5 89.5q0 53 35 88t87 35q53 0 89 -35.5t36 -87.5q0 -54 -36 -89.5t-89 -35.5zM797 1214q-53 0 -88 35.5t-35 89.5q0 53 35 88t88 35t89 -35.5t36 -87.5q0 -54 -36 -89.5t-89 -35.5zM883 492v571h237v-1063h-200l-29 188
q-105 -211 -359 -211q-86 0 -161 27t-135 81.5t-95 145.5t-35 209v623h234v-588q0 -82 22 -141.5t60.5 -92.5t83.5 -48t98 -15q128 0 203.5 82t75.5 232z" />
    <glyph glyph-name="yacute" unicode="&#xfd;" horiz-adv-x="1198" 
d="M664 1503h247l-223 -319h-186zM915 1063h250l-620 -1534h-244l184 465l-452 1069h256q166 -401 231.5 -575t87.5 -275q21 102 84.5 279t222.5 571z" />
    <glyph glyph-name="thorn" unicode="&#xfe;" horiz-adv-x="1347" 
d="M754 1083q158 0 278 -75t182 -200.5t62 -279.5q0 -240 -146.5 -395.5t-388.5 -155.5q-120 0 -223 56t-162 157v-661h-235v2007h235v-686q45 107 151 170t247 63zM696 190q151 0 247.5 95.5t96.5 244.5q0 151 -96.5 246.5t-247.5 95.5q-137 0 -231.5 -85t-108.5 -218v-77
q14 -132 108.5 -217t231.5 -85z" />
    <glyph glyph-name="ydieresis" unicode="&#xff;" horiz-adv-x="1198" 
d="M401 1214q-53 0 -87.5 35.5t-34.5 89.5q0 53 35 88t87 35q53 0 89 -35.5t36 -87.5q0 -54 -36 -89.5t-89 -35.5zM795 1214q-53 0 -88 35.5t-35 89.5q0 53 35 88t88 35t89 -35.5t36 -87.5q0 -54 -36 -89.5t-89 -35.5zM915 1063h250l-620 -1534h-244l184 465l-452 1069h256
q166 -401 231.5 -575t87.5 -275q21 102 84.5 279t222.5 571z" />
    <glyph glyph-name="Amacron" unicode="&#x100;" horiz-adv-x="1415" 
d="M365 1790h686v-184h-686v184zM1368 0h-258q-17 50 -59 171t-62 179h-575l-119 -350h-248l522 1454h273zM479 549h443q-131 383 -173.5 528t-50.5 228q-10 -88 -52 -236.5t-167 -519.5z" />
    <glyph glyph-name="amacron" unicode="&#x101;" horiz-adv-x="1353" 
d="M348 1399h686v-185h-686v185zM995 860l37 203h199v-1063h-236v217q-45 -110 -150.5 -173.5t-250.5 -63.5q-158 0 -278 75t-182 200.5t-62 279.5q0 240 146 395t388 155q121 0 224.5 -57t164.5 -160v-8zM653 190q148 0 244 97.5t96 244.5q0 146 -96 243t-244 97
q-151 0 -247.5 -95.5t-96.5 -244.5q0 -151 96.5 -246.5t247.5 -95.5z" />
    <glyph glyph-name="Abreve" unicode="&#x102;" horiz-adv-x="1415" 
d="M709 1561q-51 0 -99 10.5t-93 34t-78 58.5t-52.5 87.5t-19.5 116.5h184q0 -64 40 -109t118 -45t117.5 45t39.5 109h183q0 -79 -29.5 -140.5t-79.5 -96.5t-108.5 -52.5t-122.5 -17.5zM1368 0h-258q-17 50 -59 171t-62 179h-575l-119 -350h-248l522 1454h273zM479 549h443
q-131 383 -173.5 528t-50.5 228q-10 -88 -52 -236.5t-167 -519.5z" />
    <glyph glyph-name="abreve" unicode="&#x103;" horiz-adv-x="1353" 
d="M692 1169q-65 0 -124 17.5t-109 53t-79.5 96.5t-29.5 141h185q0 -64 39.5 -109t117.5 -45t118 45t40 109h182q0 -79 -29.5 -140.5t-79.5 -97t-108.5 -53t-122.5 -17.5zM995 860l37 203h199v-1063h-236v217q-45 -110 -150.5 -173.5t-250.5 -63.5q-158 0 -278 75
t-182 200.5t-62 279.5q0 240 146 395t388 155q121 0 224.5 -57t164.5 -160v-8zM653 190q148 0 244 97.5t96 244.5q0 146 -96 243t-244 97q-151 0 -247.5 -95.5t-96.5 -244.5q0 -151 96.5 -246.5t247.5 -95.5z" />
    <glyph glyph-name="Aogonek" unicode="&#x104;" horiz-adv-x="1415" 
d="M1264 -319q76 0 143 59v-158q-74 -63 -197 -63q-107 0 -169 58t-62 155q0 65 36 136t95 132q-17 50 -59 171t-62 179h-575l-119 -350h-248l522 1454h273l526 -1454h-65q-68 -53 -105 -113t-37 -106q0 -45 28.5 -72.5t74.5 -27.5zM479 549h443q-131 383 -173.5 528
t-50.5 228q-10 -88 -52 -236.5t-167 -519.5z" />
    <glyph glyph-name="aogonek" unicode="&#x105;" horiz-adv-x="1353" 
d="M1149 -319q76 0 143 59v-158q-74 -63 -196 -63q-107 0 -169.5 58t-62.5 155q0 65 36 136t95 132v217q-45 -110 -150.5 -173.5t-250.5 -63.5q-158 0 -278 75t-182 200.5t-62 279.5q0 240 146 395t388 155q121 0 224.5 -57t164.5 -160v-8l37 203h199v-1063h-43
q-68 -53 -104.5 -112.5t-36.5 -106.5q0 -46 28 -73t74 -27zM653 190q148 0 244 97.5t96 244.5q0 146 -96 243t-244 97q-151 0 -247.5 -95.5t-96.5 -244.5q0 -151 96.5 -246.5t247.5 -95.5z" />
    <glyph glyph-name="Cacute" unicode="&#x106;" horiz-adv-x="1331" 
d="M883 1575h-187l162 319h248zM809 -20q-151 0 -285.5 58t-231.5 157.5t-153.5 238t-56.5 293.5t56.5 293.5t153.5 238.5t232 158t285 58q147 0 255 -38t171 -89v-236q-56 56 -156 99.5t-241 43.5q-142 0 -260 -67.5t-187 -189t-69 -271.5q0 -226 150 -377t366 -151
q140 0 239.5 43.5t157.5 99.5v-236q-63 -51 -171 -88.5t-255 -37.5z" />
    <glyph glyph-name="cacute" unicode="&#x107;" horiz-adv-x="1060" 
d="M707 1184h-187l162 319h248zM639 -23q-125 0 -231.5 42t-180 115.5t-114.5 176t-41 221.5q0 240 157.5 396.5t409.5 156.5q200 0 332 -114v-228q-132 129 -309 129q-152 0 -254.5 -98t-102.5 -244t102 -243t255 -97q177 0 309 129v-227q-133 -115 -332 -115z" />
    <glyph glyph-name="Cdotaccent" unicode="&#x10a;" horiz-adv-x="1331" 
d="M795 1587q-58 0 -99 40t-41 97q0 58 40.5 99t99.5 41q57 0 97 -41t40 -99q0 -57 -40 -97t-97 -40zM809 -20q-151 0 -285.5 58t-231.5 157.5t-153.5 238t-56.5 293.5t56.5 293.5t153.5 238.5t232 158t285 58q147 0 255 -38t171 -89v-236q-56 56 -156 99.5t-241 43.5
q-142 0 -260 -67.5t-187 -189t-69 -271.5q0 -226 150 -377t366 -151q140 0 239.5 43.5t157.5 99.5v-236q-63 -51 -171 -88.5t-255 -37.5z" />
    <glyph glyph-name="cdotaccent" unicode="&#x10b;" horiz-adv-x="1060" 
d="M618 1196q-58 0 -98.5 40t-40.5 97q0 59 40.5 99.5t98.5 40.5q57 0 97.5 -41t40.5 -99q0 -57 -40.5 -97t-97.5 -40zM639 -23q-125 0 -231.5 42t-180 115.5t-114.5 176t-41 221.5q0 240 157.5 396.5t409.5 156.5q200 0 332 -114v-228q-132 129 -309 129q-152 0 -254.5 -98
t-102.5 -244t102 -243t255 -97q177 0 309 129v-227q-133 -115 -332 -115z" />
    <glyph glyph-name="Ccaron" unicode="&#x10c;" horiz-adv-x="1331" 
d="M1128 1890l-243 -319h-183l-241 319h213q52 -77 78.5 -127.5t40.5 -105.5q29 103 120 233h215zM838 1255q-142 0 -260 -67.5t-187 -189t-69 -271.5q0 -226 150 -377t366 -151q140 0 239.5 43.5t157.5 99.5v-236q-63 -51 -171 -88.5t-255 -37.5q-151 0 -285.5 58
t-231.5 157.5t-153.5 238t-56.5 293.5t56.5 293.5t153.5 238.5t232 158t285 58q147 0 255 -38t171 -89v-236q-56 56 -156 99.5t-241 43.5z" />
    <glyph glyph-name="ccaron" unicode="&#x10d;" horiz-adv-x="1060" 
d="M952 1499l-243 -319h-183l-241 319h213q52 -78 78 -129t40 -106q16 59 43.5 110t77.5 125h215zM662 872q-152 0 -254.5 -98t-102.5 -244t102 -243t255 -97q177 0 309 129v-227q-133 -115 -332 -115q-125 0 -231.5 42t-180 115.5t-114.5 176t-41 221.5q0 240 157.5 396.5
t409.5 156.5q200 0 332 -114v-228q-132 129 -309 129z" />
    <glyph glyph-name="Dcaron" unicode="&#x10e;" horiz-adv-x="1437" 
d="M948 1890l-243 -319h-183l-241 319h213q51 -76 77 -127t41 -106q17 59 44 110.5t77 122.5h215zM150 1454h483q166 0 303.5 -56t228.5 -154.5t141 -231t50 -285.5t-50 -285.5t-141 -231t-228.5 -154.5t-303.5 -56h-483v1454zM389 217h244q220 0 352.5 135.5t132.5 374.5
t-132.5 374.5t-352.5 135.5h-244v-1020z" />
    <glyph glyph-name="dcaron" unicode="&#x10f;" horiz-adv-x="1558" 
d="M995 868v668h234v-1536h-234v217q-45 -110 -150.5 -173.5t-250.5 -63.5q-158 0 -278 75t-182 200.5t-62 279.5q0 240 146 395t388 155q121 0 224.5 -57t164.5 -160zM1292 1104l109 432h244l-168 -432h-185zM653 190q148 0 244 97.5t96 244.5q0 146 -96 243t-244 97
q-151 0 -247.5 -95.5t-96.5 -244.5q0 -151 96.5 -246.5t247.5 -95.5z" />
    <glyph glyph-name="Dcroat" unicode="&#x110;" horiz-adv-x="1513" 
d="M225 1454h484q166 0 303.5 -56t228.5 -154.5t141 -231t50 -285.5t-50 -285.5t-141 -231t-228.5 -154.5t-303.5 -56h-484v645h-225v172h225v637zM465 217h244q220 0 351.5 135t131.5 375t-131.5 375t-351.5 135h-244v-420h268v-172h-268v-428z" />
    <glyph glyph-name="dcroat" unicode="&#x111;" horiz-adv-x="1349" 
d="M1229 1346h250v-172h-250v-1174h-234v217q-45 -110 -150.5 -173.5t-250.5 -63.5q-158 0 -278 75t-182 200.5t-62 279.5q0 240 146 395t388 155q121 0 224.5 -57t164.5 -160v306h-250v172h250v190h234v-190zM653 190q148 0 244 97.5t96 244.5q0 146 -96 243t-244 97
q-151 0 -247.5 -95.5t-96.5 -244.5q0 -151 96.5 -246.5t247.5 -95.5z" />
    <glyph glyph-name="Emacron" unicode="&#x112;" horiz-adv-x="1130" 
d="M262 1790h686v-184h-686v184zM1055 1454v-217h-666v-395h541v-211h-541v-414h666v-217h-905v1454h905z" />
    <glyph glyph-name="emacron" unicode="&#x113;" horiz-adv-x="1232" 
d="M272 1399h686v-185h-686v185zM616 1085q250 0 401 -166.5t144 -463.5h-854q10 -124 102.5 -202.5t225.5 -78.5q108 0 183 47.5t112 122.5l207 -22q-44 -147 -182.5 -244.5t-321.5 -97.5q-246 0 -403.5 152t-157.5 398q0 238 154 396.5t390 158.5zM616 895
q-126 0 -213 -74t-96 -188h613q-5 113 -90 187.5t-214 74.5z" />
    <glyph glyph-name="Edotaccent" unicode="&#x116;" horiz-adv-x="1130" 
d="M606 1587q-58 0 -98.5 40t-40.5 97q0 59 40.5 99.5t98.5 40.5q57 0 97 -41t40 -99q0 -57 -40 -97t-97 -40zM1055 1454v-217h-666v-395h541v-211h-541v-414h666v-217h-905v1454h905z" />
    <glyph glyph-name="edotaccent" unicode="&#x117;" horiz-adv-x="1232" 
d="M616 1196q-58 0 -98.5 40t-40.5 97q0 59 40.5 99.5t98.5 40.5q57 0 97.5 -41t40.5 -99q0 -57 -40.5 -97t-97.5 -40zM616 1085q250 0 401 -166.5t144 -463.5h-854q10 -124 102.5 -202.5t225.5 -78.5q108 0 183 47.5t112 122.5l207 -22q-44 -147 -182.5 -244.5
t-321.5 -97.5q-246 0 -403.5 152t-157.5 398q0 238 154 396.5t390 158.5zM616 895q-126 0 -213 -74t-96 -188h613q-5 113 -90 187.5t-214 74.5z" />
    <glyph glyph-name="Eogonek" unicode="&#x118;" horiz-adv-x="1130" 
d="M1008 -319q76 0 143 59v-158q-74 -63 -197 -63q-107 0 -169 58t-62 155q0 65 36 136t95 132h-704v1454h905v-217h-666v-395h541v-211h-541v-414h666v-217h-8q-68 -53 -105 -113t-37 -106q0 -45 28.5 -72.5t74.5 -27.5z" />
    <glyph glyph-name="eogonek" unicode="&#x119;" horiz-adv-x="1232" 
d="M616 1085q250 0 401 -166.5t144 -463.5h-854q10 -124 102.5 -202.5t225.5 -78.5q108 0 183 47.5t112 122.5l207 -22q-36 -122 -139 -211.5t-246 -118.5q-63 -52 -97 -109t-34 -102q0 -46 28 -73t74 -27q76 0 143 59v-158q-74 -63 -196 -63q-107 0 -169.5 58t-62.5 155
q0 125 117 252q-215 25 -349 172.5t-134 373.5q0 238 154 396.5t390 158.5zM616 895q-126 0 -213 -74t-96 -188h613q-5 113 -90 187.5t-214 74.5z" />
    <glyph glyph-name="Ecaron" unicode="&#x11a;" horiz-adv-x="1130" 
d="M940 1890l-244 -319h-182l-242 319h213q52 -77 78.5 -127.5t40.5 -105.5q17 59 44 110.5t77 122.5h215zM1055 1454v-217h-666v-395h541v-211h-541v-414h666v-217h-905v1454h905z" />
    <glyph glyph-name="ecaron" unicode="&#x11b;" horiz-adv-x="1232" 
d="M950 1499l-243 -319h-183l-241 319h213q52 -78 78 -129t40 -106q16 59 43.5 110t77.5 125h215zM616 1085q250 0 401 -166.5t144 -463.5h-854q10 -124 102.5 -202.5t225.5 -78.5q108 0 183 47.5t112 122.5l207 -22q-44 -147 -182.5 -244.5t-321.5 -97.5q-246 0 -403.5 152
t-157.5 398q0 238 154 396.5t390 158.5zM616 895q-126 0 -213 -74t-96 -188h613q-5 113 -90 187.5t-214 74.5z" />
    <glyph glyph-name="Gbreve" unicode="&#x11e;" horiz-adv-x="1613" 
d="M821 1561q-51 0 -99 10.5t-93 34t-78 58.5t-52.5 87.5t-19.5 116.5h185q0 -64 39.5 -109t117.5 -45t118 45t40 109h182q0 -79 -29.5 -140.5t-79.5 -96.5t-108.5 -52.5t-122.5 -17.5zM664 592v211h876q0 -192 -54.5 -348.5t-151.5 -259.5t-229.5 -159t-287.5 -56
q-159 0 -296.5 58t-233.5 158.5t-150.5 238.5t-54.5 294q0 206 92 376t261.5 270t383.5 100q192 0 354 -79.5t246 -205.5l-172 -152q-59 94 -170 154.5t-250 60.5q-223 0 -364 -149t-141 -379q0 -229 135.5 -376.5t355.5 -147.5q185 0 312 107.5t163 283.5h-624z" />
    <glyph glyph-name="gbreve" unicode="&#x11f;" horiz-adv-x="1349" 
d="M692 1169q-65 0 -124 17.5t-109 53t-79.5 96.5t-29.5 141h185q0 -64 39.5 -109t117.5 -45t118 45t40 109h182q0 -79 -29.5 -140.5t-79.5 -97t-108.5 -53t-122.5 -17.5zM995 858l41 205h193v-961q0 -286 -146.5 -445t-418.5 -159q-127 0 -256 35.5t-211 95.5v205
q223 -131 419 -131q379 0 379 399v115q-45 -110 -150.5 -173.5t-250.5 -63.5q-158 0 -278 75t-182 200.5t-62 279.5q0 240 146 395t388 155q121 0 224.5 -57t164.5 -160v-10zM653 190q148 0 244 97.5t96 244.5q0 146 -96 243t-244 97q-151 0 -247.5 -95.5t-96.5 -244.5
q0 -151 96.5 -246.5t247.5 -95.5z" />
    <glyph glyph-name="Gdotaccent" unicode="&#x120;" horiz-adv-x="1613" 
d="M821 1587q-58 0 -98.5 40t-40.5 97q0 59 40.5 99.5t98.5 40.5q57 0 97 -41t40 -99q0 -57 -40 -97t-97 -40zM664 592v211h876q0 -192 -54.5 -348.5t-151.5 -259.5t-229.5 -159t-287.5 -56q-159 0 -296.5 58t-233.5 158.5t-150.5 238.5t-54.5 294q0 206 92 376t261.5 270
t383.5 100q192 0 354 -79.5t246 -205.5l-172 -152q-59 94 -170 154.5t-250 60.5q-223 0 -364 -149t-141 -379q0 -229 135.5 -376.5t355.5 -147.5q185 0 312 107.5t163 283.5h-624z" />
    <glyph glyph-name="gdotaccent" unicode="&#x121;" horiz-adv-x="1349" 
d="M692 1196q-58 0 -98.5 40t-40.5 97q0 59 40.5 99.5t98.5 40.5q57 0 97 -41t40 -99q0 -57 -40 -97t-97 -40zM995 858l41 205h193v-961q0 -286 -146.5 -445t-418.5 -159q-127 0 -256 35.5t-211 95.5v205q223 -131 419 -131q379 0 379 399v115q-45 -110 -150.5 -173.5
t-250.5 -63.5q-158 0 -278 75t-182 200.5t-62 279.5q0 240 146 395t388 155q121 0 224.5 -57t164.5 -160v-10zM653 190q148 0 244 97.5t96 244.5q0 146 -96 243t-244 97q-151 0 -247.5 -95.5t-96.5 -244.5q0 -151 96.5 -246.5t247.5 -95.5z" />
    <glyph glyph-name="uni0122" unicode="&#x122;" horiz-adv-x="1613" 
d="M664 592v211h876q0 -192 -54.5 -348.5t-151.5 -259.5t-229.5 -159t-287.5 -56q-159 0 -296.5 58t-233.5 158.5t-150.5 238.5t-54.5 294q0 206 92 376t261.5 270t383.5 100q192 0 354 -79.5t246 -205.5l-172 -152q-59 94 -170 154.5t-250 60.5q-223 0 -364 -149t-141 -379
q0 -229 135.5 -376.5t355.5 -147.5q185 0 312 107.5t163 283.5h-624zM791 -471h-185l99 367h243z" />
    <glyph glyph-name="uni0123" unicode="&#x123;" horiz-adv-x="1349" 
d="M725 1505h186l-106 -325h-248zM995 858l41 205h193v-961q0 -286 -146.5 -445t-418.5 -159q-127 0 -256 35.5t-211 95.5v205q223 -131 419 -131q379 0 379 399v115q-45 -110 -150.5 -173.5t-250.5 -63.5q-158 0 -278 75t-182 200.5t-62 279.5q0 240 146 395t388 155
q121 0 224.5 -57t164.5 -160v-10zM653 190q148 0 244 97.5t96 244.5q0 146 -96 243t-244 97q-151 0 -247.5 -95.5t-96.5 -244.5q0 -151 96.5 -246.5t247.5 -95.5z" />
    <glyph glyph-name="Hbar" unicode="&#x126;" horiz-adv-x="1472" 
d="M1321 1200h192v-170h-192v-1030h-240v621h-692v-621h-239v1030h-197v170h197v254h239v-254h692v254h240v-254zM389 834h692v196h-692v-196z" />
    <glyph glyph-name="hbar" unicode="&#x127;" horiz-adv-x="1230" 
d="M705 1085q87 0 162.5 -27t136.5 -81t96 -145t35 -209v-623h-238v588q0 82 -21.5 141.5t-60 92t-83 47t-97.5 14.5q-130 0 -204.5 -81t-74.5 -231v-571h-235v1174h-250v172h250v190h235v-190h248v-172h-248v-281q106 192 349 192z" />
    <glyph glyph-name="Imacron" unicode="&#x12a;" horiz-adv-x="540" 
d="M-74 1606v184h686v-184h-686zM389 0h-239v1454h239v-1454z" />
    <glyph glyph-name="imacron" unicode="&#x12b;" horiz-adv-x="477" 
d="M-104 1214v185h686v-185h-686zM121 1063h235v-1063h-235v1063z" />
    <glyph glyph-name="Iogonek" unicode="&#x12e;" horiz-adv-x="540" 
d="M305 -319q77 0 144 59v-158q-74 -63 -197 -63q-107 0 -169.5 58t-62.5 155q0 65 36 136t96 132h-2v1454h239v-1454h-45q-68 -53 -104.5 -112.5t-36.5 -106.5q0 -46 28 -73t74 -27z" />
    <glyph glyph-name="iogonek" unicode="&#x12f;" horiz-adv-x="477" 
d="M240 1196q-58 0 -99 40t-41 97q0 59 41 99.5t99 40.5q57 0 97 -41t40 -99q0 -57 -40 -97t-97 -40zM276 -319q77 0 144 59v-158q-74 -63 -197 -63q-107 0 -169 58t-62 155q0 65 36 136t95 132h-2v1063h235v-1063h-41q-68 -53 -104.5 -112.5t-36.5 -106.5q0 -46 28 -73
t74 -27z" />
    <glyph glyph-name="Idotaccent" unicode="&#x130;" horiz-adv-x="540" 
d="M270 1587q-58 0 -98.5 40t-40.5 97q0 59 40.5 99.5t98.5 40.5q57 0 97.5 -41t40.5 -99q0 -57 -40.5 -97t-97.5 -40zM389 0h-239v1454h239v-1454z" />
    <glyph glyph-name="dotlessi" unicode="&#x131;" horiz-adv-x="477" 
d="M121 1063h235v-1063h-235v1063z" />
    <glyph glyph-name="uni0136" unicode="&#x136;" horiz-adv-x="1273" 
d="M950 1454h283l-608 -709l600 -745h-289l-557 702q10 -156 10 -702h-239v1454h239q0 -520 -10 -657zM588 -471h-185l99 367h243z" />
    <glyph glyph-name="uni0137" unicode="&#x137;" horiz-adv-x="1124" 
d="M1094 1063l-527 -496l529 -567h-279l-475 518q14 -181 14 -518h-235v1536h235q0 -434 -2.5 -612t-13.5 -308l475 447h279zM508 -471h-184l98 367h244z" />
    <glyph glyph-name="kgreenlandic" unicode="&#x138;" horiz-adv-x="1093" 
d="M567 567l529 -567h-279l-475 518q14 -181 14 -518h-235v1063h235q0 -354 -12 -442l471 442h279z" />
    <glyph glyph-name="Lacute" unicode="&#x139;" horiz-adv-x="1077" 
d="M360 1575h-186l162 319h248zM1012 0h-862v1454h239v-1237h623v-217z" />
    <glyph glyph-name="lacute" unicode="&#x13a;" horiz-adv-x="477" 
d="M332 1657h-187l162 319h248zM121 1536h235v-1536h-235v1536z" />
    <glyph glyph-name="uni013B" unicode="&#x13b;" horiz-adv-x="1077" 
d="M1012 0h-862v1454h239v-1237h623v-217zM360 -471l99 367h243l-157 -367h-185z" />
    <glyph glyph-name="uni013C" unicode="&#x13c;" horiz-adv-x="477" 
d="M121 1536h235v-1536h-235v1536zM23 -471l98 367h244l-158 -367h-184z" />
    <glyph glyph-name="Lcaron" unicode="&#x13d;" horiz-adv-x="1060" 
d="M1012 0h-862v1454h239v-1237h623v-217zM608 1022l109 432h244l-168 -432h-185z" />
    <glyph glyph-name="lcaron" unicode="&#x13e;" horiz-adv-x="638" 
d="M72 1536h233v-1536h-233v1536zM371 1104l106 432h244l-168 -432h-182z" />
    <glyph glyph-name="Ldot" unicode="&#x13f;" horiz-adv-x="1077" 
d="M1012 0h-862v1454h239v-1237h623v-217zM754 592q-56 0 -94.5 38t-38.5 95q0 55 38.5 93t94.5 38t94.5 -38t38.5 -93q0 -57 -38.5 -95t-94.5 -38z" />
    <glyph glyph-name="ldot" unicode="&#x140;" horiz-adv-x="813" 
d="M121 1536h235v-1536h-235v1536zM645 592q-56 0 -94.5 38t-38.5 95q0 55 38.5 93t94.5 38t94.5 -38t38.5 -93q0 -57 -38.5 -95t-94.5 -38z" />
    <glyph glyph-name="Lslash" unicode="&#x141;" horiz-adv-x="1077" 
d="M389 766v-549h623v-217h-862v610l-150 -96v215l150 96v629h239v-473l164 106v-215z" />
    <glyph glyph-name="lslash" unicode="&#x142;" horiz-adv-x="585" 
d="M414 965l159 104v-217l-159 -102v-750h-234v598l-160 -102v215l160 104v721h234v-571z" />
    <glyph glyph-name="Nacute" unicode="&#x143;" horiz-adv-x="1509" 
d="M831 1894h248l-223 -319h-186zM1126 1454h234v-1454h-223l-764 1073q12 -138 12 -1073h-235v1454h225l764 -1081q-9 84 -11 292t-2 789z" />
    <glyph glyph-name="nacute" unicode="&#x144;" horiz-adv-x="1243" 
d="M698 1503h248l-223 -319h-186zM709 1085q87 0 162 -27t135.5 -81t95.5 -145t35 -209v-623h-238v588q0 82 -21.5 141.5t-60 92t-83 47t-97.5 14.5q-129 0 -204 -81t-75 -231v-571h-237v1063h201l32 -178q104 200 355 200z" />
    <glyph glyph-name="uni0145" unicode="&#x145;" horiz-adv-x="1509" 
d="M1126 1454h234v-1454h-223l-764 1073q12 -138 12 -1073h-235v1454h225l764 -1081q-9 84 -11 292t-2 789zM739 -471h-184l98 367h244z" />
    <glyph glyph-name="uni0146" unicode="&#x146;" horiz-adv-x="1243" 
d="M709 1085q87 0 162 -27t135.5 -81t95.5 -145t35 -209v-623h-238v588q0 82 -21.5 141.5t-60 92t-83 47t-97.5 14.5q-129 0 -204 -81t-75 -231v-571h-237v1063h201l32 -178q104 200 355 200zM606 -471h-184l98 367h244z" />
    <glyph glyph-name="Ncaron" unicode="&#x147;" horiz-adv-x="1509" 
d="M1104 1890l-244 -319h-182l-242 319h213q52 -77 78.5 -127.5t40.5 -105.5q17 59 44 110.5t77 122.5h215zM1126 1454h234v-1454h-223l-764 1073q12 -138 12 -1073h-235v1454h225l764 -1081q-9 84 -11 292t-2 789z" />
    <glyph glyph-name="ncaron" unicode="&#x148;" horiz-adv-x="1243" 
d="M969 1499l-244 -319h-182l-242 319h213q52 -79 78.5 -129.5t40.5 -105.5q16 59 43.5 110t77.5 125h215zM709 1085q87 0 162 -27t135.5 -81t95.5 -145t35 -209v-623h-238v588q0 82 -21.5 141.5t-60 92t-83 47t-97.5 14.5q-129 0 -204 -81t-75 -231v-571h-237v1063h201
l32 -178q104 200 355 200z" />
    <glyph glyph-name="Eng" unicode="&#x14a;" horiz-adv-x="1509" 
d="M1126 1454h234v-1925h-234v485l-753 1059q12 -138 12 -1073h-235v1454h225l764 -1081q-9 84 -11 292t-2 789z" />
    <glyph glyph-name="eng" unicode="&#x14b;" horiz-adv-x="1243" 
d="M709 1085q87 0 162 -27t135.5 -81t95.5 -145t35 -209v-1094h-238v1059q0 82 -21.5 141.5t-60 92t-83 47t-97.5 14.5q-129 0 -204 -81t-75 -231v-571h-237v1063h201l32 -178q104 200 355 200z" />
    <glyph glyph-name="Omacron" unicode="&#x14c;" horiz-adv-x="1640" 
d="M477 1606v184h686v-184h-686zM819 -20q-157 0 -294 57t-234 155.5t-153 237.5t-56 297t56 297t153 238t234 156t294 57t294.5 -57t235 -156t154 -238t56.5 -297q0 -211 -96 -382t-265.5 -268t-378.5 -97zM819 205q142 0 257.5 70t179 189.5t63.5 262.5t-63.5 262.5
t-179 189.5t-257.5 70q-214 0 -355.5 -151.5t-141.5 -370.5t141.5 -370.5t355.5 -151.5z" />
    <glyph glyph-name="omacron" unicode="&#x14d;" horiz-adv-x="1282" 
d="M297 1214v185h686v-185h-686zM641 -20q-246 0 -407.5 156.5t-161.5 395.5q0 156 73.5 283t203.5 198.5t292 71.5q247 0 408 -157.5t161 -395.5q0 -239 -161 -395.5t-408 -156.5zM641 190q147 0 244.5 97.5t97.5 244.5q0 148 -97 245t-245 97q-147 0 -244.5 -97.5
t-97.5 -244.5q0 -146 98 -244t244 -98z" />
    <glyph glyph-name="Ohungarumlaut" unicode="&#x150;" horiz-adv-x="1640" 
d="M768 1575h-186l161 317h248zM1087 1575h-186l162 317h246zM819 -20q-157 0 -294 57t-234 155.5t-153 237.5t-56 297t56 297t153 238t234 156t294 57t294.5 -57t235 -156t154 -238t56.5 -297q0 -211 -96 -382t-265.5 -268t-378.5 -97zM819 205q142 0 257.5 70t179 189.5
t63.5 262.5t-63.5 262.5t-179 189.5t-257.5 70q-214 0 -355.5 -151.5t-141.5 -370.5t141.5 -370.5t355.5 -151.5z" />
    <glyph glyph-name="ohungarumlaut" unicode="&#x151;" horiz-adv-x="1282" 
d="M588 1184h-187l162 319h248zM907 1184h-186l162 319h245zM641 -20q-246 0 -407.5 156.5t-161.5 395.5q0 156 73.5 283t203.5 198.5t292 71.5q247 0 408 -157.5t161 -395.5q0 -239 -161 -395.5t-408 -156.5zM641 190q147 0 244.5 97.5t97.5 244.5q0 148 -97 245t-245 97
q-147 0 -244.5 -97.5t-97.5 -244.5q0 -146 98 -244t244 -98z" />
    <glyph glyph-name="OE" unicode="&#x152;" horiz-adv-x="1828" 
d="M1753 0h-903q-181 -3 -329 50t-246 150t-151.5 232t-53.5 295t53.5 295t151.5 232t246 150t329 50h903v-217h-663v-395h540v-211h-540v-414h663v-217zM850 211v1032q-131 2 -235.5 -37.5t-170.5 -110.5t-100.5 -164.5t-34.5 -203.5t34.5 -203.5t100.5 -164.5
t170.5 -110.5t235.5 -37.5z" />
    <glyph glyph-name="oe" unicode="&#x153;" horiz-adv-x="2146" 
d="M1530 1085q250 0 401 -166.5t144 -463.5h-854q10 -124 102 -202.5t225 -78.5q108 0 183 47.5t112 122.5l207 -22q-44 -147 -182.5 -244.5t-321.5 -97.5q-142 0 -259.5 53.5t-192.5 152.5q-76 -98 -194 -152t-259 -54q-246 0 -407.5 156.5t-161.5 395.5q0 156 73.5 283
t203.5 198.5t292 71.5q143 0 261 -55t194 -153q73 98 185.5 153t248.5 55zM1530 895q-126 0 -213 -74t-96 -188h612q-5 114 -89.5 188t-213.5 74zM641 190q147 0 244.5 97.5t97.5 244.5q0 148 -97 245t-245 97q-147 0 -244.5 -97.5t-97.5 -244.5q0 -146 98 -244t244 -98z
" />
    <glyph glyph-name="Racute" unicode="&#x154;" horiz-adv-x="1290" 
d="M696 1894h248l-223 -319h-186zM1223 0h-295l-555 647q11 -80 13.5 -214.5t2.5 -432.5h-239v1454h552q233 0 366.5 -116.5t133.5 -317.5q0 -111 -42 -197.5t-111 -137t-149 -76t-165 -25.5h-51q34 -34 89.5 -94t190.5 -208t259 -282zM963 997q0 110 -73.5 175t-207.5 65
h-293v-481h293q134 0 207.5 65.5t73.5 175.5z" />
    <glyph glyph-name="racute" unicode="&#x155;" horiz-adv-x="739" 
d="M408 1503h247l-223 -319h-186zM313 1063l33 -160q99 196 344 162l-2 -203q-155 20 -241.5 -33.5t-92.5 -175.5l2 -653h-235v1063h192z" />
    <glyph glyph-name="uni0156" unicode="&#x156;" horiz-adv-x="1290" 
d="M735 584h-51q34 -34 89.5 -94t190.5 -208t259 -282h-295l-555 647q11 -80 13.5 -214.5t2.5 -432.5h-239v1454h552q233 0 366.5 -116.5t133.5 -317.5q0 -111 -42 -197.5t-111 -137t-149 -76t-165 -25.5zM963 997q0 110 -73.5 175t-207.5 65h-293v-481h293
q134 0 207.5 65.5t73.5 175.5zM604 -471h-184l98 367h244z" />
    <glyph glyph-name="uni0157" unicode="&#x157;" horiz-adv-x="739" 
d="M313 1063l33 -160q99 196 344 162l-2 -203q-155 20 -241.5 -33.5t-92.5 -175.5l2 -653h-235v1063h192zM313 -471h-184l98 367h244z" />
    <glyph glyph-name="Rcaron" unicode="&#x158;" horiz-adv-x="1290" 
d="M967 1890l-244 -319h-182l-242 319h213q52 -77 78.5 -127.5t40.5 -105.5q17 59 44 110.5t77 122.5h215zM1223 0h-295l-555 647q11 -80 13.5 -214.5t2.5 -432.5h-239v1454h552q233 0 366.5 -116.5t133.5 -317.5q0 -111 -42 -197.5t-111 -137t-149 -76t-165 -25.5h-51
q34 -34 89.5 -94t190.5 -208t259 -282zM963 997q0 110 -73.5 175t-207.5 65h-293v-481h293q134 0 207.5 65.5t73.5 175.5z" />
    <glyph glyph-name="rcaron" unicode="&#x159;" horiz-adv-x="739" 
d="M678 1499l-244 -319h-182l-242 319h213q52 -79 78.5 -129.5t40.5 -105.5q16 59 43.5 110t77.5 125h215zM313 1063l33 -160q99 196 344 162l-2 -203q-155 20 -241.5 -33.5t-92.5 -175.5l2 -653h-235v1063h192z" />
    <glyph glyph-name="Sacute" unicode="&#x15a;" horiz-adv-x="1153" 
d="M666 1575h-187l162 319h248zM588 -20q-237 0 -382 133.5t-151 332.5h248q4 -126 85 -195t200 -69q114 0 181 53.5t67 139.5q0 61 -40 108.5t-104 81t-141 65.5t-154.5 70.5t-141.5 86.5t-104 124t-40 172q0 174 128 283t328 109q212 0 343 -121t139 -318l-242 -6
q-6 113 -69.5 177.5t-166.5 64.5q-93 0 -154 -48.5t-61 -131.5q0 -66 40.5 -115.5t105 -82.5t142.5 -63t155.5 -66t142 -82t105 -121t40.5 -173q0 -187 -140 -298t-359 -111z" />
    <glyph glyph-name="sacute" unicode="&#x15b;" horiz-adv-x="1024" 
d="M602 1184h-186l162 319h247zM526 -20q-95 0 -176.5 21t-147 62t-105.5 109.5t-44 157.5l230 8q9 -82 78 -128t174 -46q89 0 142.5 34t53.5 93q0 43 -35 73t-90.5 48t-123 34.5t-134.5 40t-122.5 56t-90.5 90.5t-35 137q0 95 55 167t146.5 109t204.5 37q181 0 299.5 -92.5
t124.5 -232.5l-223 -6q-9 69 -63 111t-140 42q-76 0 -126 -32.5t-50 -86.5q0 -33 22 -58t59 -41t85 -29.5t101 -27t105.5 -30t100.5 -41.5t85 -58t59 -84t22 -116q0 -152 -121.5 -236.5t-319.5 -84.5z" />
    <glyph glyph-name="Scedilla" unicode="&#x15e;" horiz-adv-x="1153" 
d="M1087 389q0 -167 -112.5 -274t-298.5 -131l-41 -99q66 -14 106.5 -59t40.5 -113q0 -93 -75 -146.5t-199 -53.5q-79 0 -156 32l4 160q82 -27 133 -27q37 0 56.5 13t19.5 33q0 61 -180 61l80 205q-185 35 -295 161t-115 295h248q4 -126 85 -195t200 -69q114 0 181 53.5
t67 139.5q0 61 -40 108.5t-104 81t-141 65.5t-154.5 70.5t-141.5 86.5t-104 124t-40 172q0 174 128 283t328 109q212 0 343 -121t139 -318l-242 -6q-6 113 -69.5 177.5t-166.5 64.5q-93 0 -154 -48.5t-61 -131.5q0 -66 40.5 -115.5t105 -82.5t142.5 -63t155.5 -66t142 -82
t105 -121t40.5 -173z" />
    <glyph glyph-name="scedilla" unicode="&#x15f;" horiz-adv-x="1024" 
d="M967 301q0 -134 -96.5 -216.5t-258.5 -100.5l-41 -99q66 -14 107 -59t41 -113q0 -93 -75.5 -146.5t-199.5 -53.5q-78 0 -155 32l4 160q82 -27 133 -27q37 0 56.5 13t19.5 33q0 61 -180 61l79 205q-151 25 -246 110.5t-102 229.5l230 8q9 -82 78 -128t174 -46
q89 0 142.5 34t53.5 93q0 43 -35 73t-90.5 48t-123 34.5t-134.5 40t-122.5 56t-90.5 90.5t-35 137q0 95 55 167t146.5 109t204.5 37q181 0 299.5 -92.5t124.5 -232.5l-223 -6q-9 69 -63 111t-140 42q-76 0 -126 -32.5t-50 -86.5q0 -33 22 -58t59 -41t85 -29.5t101 -27
t105.5 -30t100.5 -41.5t85 -58t59 -84t22 -116z" />
    <glyph glyph-name="Scaron" unicode="&#x160;" horiz-adv-x="1153" 
d="M911 1890l-243 -319h-183l-241 319h213q51 -76 77 -127t41 -106q17 59 44 110.5t77 122.5h215zM356 1092q0 -66 40.5 -115.5t105 -82.5t142.5 -63t155.5 -66t142 -82t105 -121t40.5 -173q0 -187 -140 -298t-359 -111q-237 0 -382 133.5t-151 332.5h248q4 -126 85 -195
t200 -69q114 0 181 53.5t67 139.5q0 61 -40 108.5t-104 81t-141 65.5t-154.5 70.5t-141.5 86.5t-104 124t-40 172q0 174 128 283t328 109q212 0 343 -121t139 -318l-242 -6q-6 113 -69.5 177.5t-166.5 64.5q-93 0 -154 -48.5t-61 -131.5z" />
    <glyph glyph-name="scaron" unicode="&#x161;" horiz-adv-x="1024" 
d="M850 1499l-244 -319h-182l-242 319h213q52 -79 78.5 -129.5t40.5 -105.5q16 59 43.5 110t77.5 125h215zM328 786q0 -33 22 -58t59 -41t85 -29.5t101 -27t105.5 -30t100.5 -41.5t85 -58t59 -84t22 -116q0 -152 -121.5 -236.5t-319.5 -84.5q-95 0 -176.5 21t-147 62
t-105.5 109.5t-44 157.5l230 8q9 -82 78 -128t174 -46q89 0 142.5 34t53.5 93q0 43 -35 73t-90.5 48t-123 34.5t-134.5 40t-122.5 56t-90.5 90.5t-35 137q0 95 55 167t146.5 109t204.5 37q181 0 299.5 -92.5t124.5 -232.5l-223 -6q-9 69 -63 111t-140 42q-76 0 -126 -32.5
t-50 -86.5z" />
    <glyph glyph-name="uni0162" unicode="&#x162;" horiz-adv-x="1157" 
d="M698 1237v-1237h-18l-47 -115q66 -14 106.5 -59t40.5 -113q0 -93 -75 -146.5t-199 -53.5q-79 0 -156 32l4 160q83 -27 133 -27q37 0 56.5 13t19.5 33q0 61 -180 61l84 215h-8v1237h-396v217h1029v-217h-394z" />
    <glyph glyph-name="uni0163" unicode="&#x163;" horiz-adv-x="733" 
d="M449 879v-879h-19l-47 -115q66 -14 106.5 -59t40.5 -113q0 -93 -75 -146.5t-199 -53.5q-79 0 -156 32l4 160q83 -27 134 -27q36 0 55.5 13t19.5 33q0 61 -180 61l84 215h-2v879h-166v184h166v309h234v-309h235v-184h-235z" />
    <glyph glyph-name="Tcaron" unicode="&#x164;" horiz-adv-x="1157" 
d="M913 1890l-243 -319h-183l-241 319h213q52 -77 78.5 -127.5t40.5 -105.5q29 103 120 233h215zM63 1237v217h1029v-217h-394v-1237h-239v1237h-396z" />
    <glyph glyph-name="tcaron" unicode="&#x165;" horiz-adv-x="663" 
d="M557 1196l109 432h243l-168 -432h-184zM215 1372h234v-309h235v-184h-235v-879h-234v879h-166v184h166v309z" />
    <glyph glyph-name="Tbar" unicode="&#x166;" horiz-adv-x="1157" 
d="M1092 1454v-217h-394v-406h248v-172h-248v-659h-239v659h-246v172h246v406h-396v217h1029z" />
    <glyph glyph-name="tbar" unicode="&#x167;" horiz-adv-x="733" 
d="M684 1063v-184h-235v-320h227v-172h-227v-387h-234v387h-166v172h166v320h-166v184h166v309h234v-309h235z" />
    <glyph glyph-name="Utilde" unicode="&#x168;" horiz-adv-x="1462" 
d="M522 1599l-157 52q11 55 36.5 101t75.5 79t115 33q48 0 95.5 -21.5t88 -43t72.5 -21.5q34 0 53.5 21.5t30.5 64.5l166 -54q-22 -101 -80.5 -157t-147.5 -56q-52 0 -101.5 21.5t-90.5 43t-72 21.5q-34 0 -53 -22t-31 -62zM731 -20q-274 0 -432 162t-158 464v848h240v-854
q0 -199 94 -300t256 -101q163 0 257.5 101t94.5 300v854h238v-848q0 -302 -158 -464t-432 -162z" />
    <glyph glyph-name="utilde" unicode="&#x169;" horiz-adv-x="1241" 
d="M477 1292q-34 0 -53 -22t-31 -62l-157 52q11 55 36.5 101t75.5 79t115 33q48 0 95.5 -21.5t88 -43.5t72.5 -22q34 0 53.5 22t30.5 65l166 -54q-22 -101 -80.5 -157t-147.5 -56q-52 0 -101.5 21.5t-90.5 43t-72 21.5zM883 492v571h237v-1063h-200l-29 188
q-105 -211 -359 -211q-86 0 -161 27t-135 81.5t-95 145.5t-35 209v623h234v-588q0 -82 22 -141.5t60.5 -92.5t83.5 -48t98 -15q128 0 203.5 82t75.5 232z" />
    <glyph glyph-name="Umacron" unicode="&#x16a;" horiz-adv-x="1462" 
d="M387 1606v184h686v-184h-686zM731 -20q-274 0 -432 162t-158 464v848h240v-854q0 -199 94 -300t256 -101q163 0 257.5 101t94.5 300v854h238v-848q0 -302 -158 -464t-432 -162z" />
    <glyph glyph-name="umacron" unicode="&#x16b;" horiz-adv-x="1241" 
d="M258 1399h686v-185h-686v185zM883 492v571h237v-1063h-200l-29 188q-105 -211 -359 -211q-86 0 -161 27t-135 81.5t-95 145.5t-35 209v623h234v-588q0 -82 22 -141.5t60.5 -92.5t83.5 -48t98 -15q128 0 203.5 82t75.5 232z" />
    <glyph glyph-name="Uring" unicode="&#x16e;" horiz-adv-x="1462" 
d="M731 1575q-89 0 -152 63t-63 154q0 89 63 152t152 63q91 0 154 -63t63 -152q0 -91 -63 -154t-154 -63zM731 1700q40 0 67 26t27 66t-27 66t-67 26q-39 0 -65.5 -26.5t-26.5 -65.5t26.5 -65.5t65.5 -26.5zM731 -20q-274 0 -432 162t-158 464v848h240v-854q0 -199 94 -300
t256 -101q163 0 257.5 101t94.5 300v854h238v-848q0 -302 -158 -464t-432 -162z" />
    <glyph glyph-name="uring" unicode="&#x16f;" horiz-adv-x="1241" 
d="M602 1186q-90 0 -152.5 62.5t-62.5 152.5q0 91 63 154t152 63q91 0 154 -63t63 -154t-63 -153t-154 -62zM602 1493q-39 0 -65.5 -26.5t-26.5 -65.5t26.5 -65.5t65.5 -26.5q40 0 67 26t27 66t-27 66t-67 26zM883 492v571h237v-1063h-200l-29 188q-105 -211 -359 -211
q-86 0 -161 27t-135 81.5t-95 145.5t-35 209v623h234v-588q0 -82 22 -141.5t60.5 -92.5t83.5 -48t98 -15q128 0 203.5 82t75.5 232z" />
    <glyph glyph-name="Uhungarumlaut" unicode="&#x170;" horiz-adv-x="1462" 
d="M680 1575h-186l161 317h248zM999 1575h-186l162 317h246zM731 -20q-274 0 -432 162t-158 464v848h240v-854q0 -199 94 -300t256 -101q163 0 257.5 101t94.5 300v854h238v-848q0 -302 -158 -464t-432 -162z" />
    <glyph glyph-name="uhungarumlaut" unicode="&#x171;" horiz-adv-x="1241" 
d="M526 1503h248l-223 -319h-186zM1092 1503l-222 -319h-186l162 319h246zM883 492v571h237v-1063h-200l-29 188q-105 -211 -359 -211q-86 0 -161 27t-135 81.5t-95 145.5t-35 209v623h234v-588q0 -82 22 -141.5t60.5 -92.5t83.5 -48t98 -15q128 0 203.5 82t75.5 232z" />
    <glyph glyph-name="Uogonek" unicode="&#x172;" horiz-adv-x="1462" 
d="M1083 600v854h238v-848q0 -248 -108.5 -403t-303.5 -203h4q-68 -53 -104.5 -112.5t-36.5 -106.5q0 -46 28 -73t74 -27q77 0 144 59v-158q-74 -63 -197 -63q-107 0 -169 58t-62 155q0 122 112 248q-262 9 -411.5 170.5t-149.5 455.5v848h240v-854q0 -199 94 -300t256 -101
q163 0 257.5 101t94.5 300z" />
    <glyph glyph-name="uogonek" unicode="&#x173;" horiz-adv-x="1241" 
d="M1075 -319q77 0 144 59v-158q-74 -63 -197 -63q-107 0 -169 58t-62 155q0 65 36 136t95 132h-2l-29 188q-105 -211 -359 -211q-86 0 -161 27t-135 81.5t-95 145.5t-35 209v623h234v-588q0 -82 22 -141.5t60.5 -92.5t83.5 -48t98 -15q128 0 203.5 82t75.5 232v571h237
v-1063h-6q-68 -53 -104.5 -112.5t-36.5 -106.5q0 -46 28 -73t74 -27z" />
    <glyph glyph-name="Wcircumflex" unicode="&#x174;" horiz-adv-x="1978" 
d="M989 1759q-49 -94 -121 -194h-213l242 319h182l244 -319h-215q-70 107 -119 194zM1704 1454h242l-402 -1454h-274q-153 580 -209 817.5t-70 358.5q-13 -120 -69.5 -347.5t-221.5 -828.5h-268l-399 1454h252q155 -589 215.5 -837t79.5 -371q17 133 73 370t213 838h260
q251 -939 291 -1186q19 130 78.5 375.5t208.5 810.5z" />
    <glyph glyph-name="wcircumflex" unicode="&#x175;" horiz-adv-x="1716" 
d="M858 1368q-43 -82 -121 -192h-213l242 317h182l244 -317h-215q-78 120 -119 192zM1430 1063h239l-338 -1063h-237q-138 441 -179 589t-53 247q-13 -96 -54 -238.5t-185 -597.5h-240l-334 1063h244q131 -440 170 -588t53 -254q14 103 53 242t181 600h233
q129 -422 168.5 -566.5t56.5 -258.5q13 92 49.5 226.5t172.5 598.5z" />
    <glyph glyph-name="Ycircumflex" unicode="&#x176;" horiz-adv-x="1286" 
d="M643 1759q-49 -94 -121 -194h-213l242 319h182l244 -319h-215q-70 107 -119 194zM999 1454h269l-506 -852v-602h-238v602l-506 852h273q174 -296 250.5 -441.5t103.5 -228.5q26 80 103 225t251 445z" />
    <glyph glyph-name="ycircumflex" unicode="&#x177;" horiz-adv-x="1198" 
d="M600 1368q-43 -82 -121 -192h-213l242 317h182l244 -317h-215q-78 120 -119 192zM915 1063h250l-620 -1534h-244l184 465l-452 1069h256q166 -401 231.5 -575t87.5 -275q21 102 84.5 279t222.5 571z" />
    <glyph glyph-name="Ydieresis" unicode="&#x178;" horiz-adv-x="1286" 
d="M444 1606q-53 0 -87.5 35.5t-34.5 89.5q0 53 35 87.5t87 34.5q53 0 89 -35t36 -87q0 -54 -36 -89.5t-89 -35.5zM838 1606q-53 0 -88 35.5t-35 89.5q0 52 35 87t88 35t89 -35t36 -87q0 -54 -36 -89.5t-89 -35.5zM999 1454h269l-506 -852v-602h-238v602l-506 852h273
q174 -296 250.5 -441.5t103.5 -228.5q26 80 103 225t251 445z" />
    <glyph glyph-name="Zacute" unicode="&#x179;" horiz-adv-x="1275" 
d="M702 1894h248l-223 -319h-186zM78 1454h1139l-764 -1243h745v-211h-1139l770 1243h-751v211z" />
    <glyph glyph-name="zacute" unicode="&#x17a;" horiz-adv-x="985" 
d="M557 1503h248l-223 -319h-187zM70 1063h868l-522 -864h504v-199h-873l524 864h-501v199z" />
    <glyph glyph-name="Zdotaccent" unicode="&#x17b;" horiz-adv-x="1275" 
d="M641 1587q-58 0 -98.5 40t-40.5 97q0 59 40.5 99.5t98.5 40.5q57 0 97 -41t40 -99q0 -57 -40 -97t-97 -40zM78 1454h1139l-764 -1243h745v-211h-1139l770 1243h-751v211z" />
    <glyph glyph-name="zdotaccent" unicode="&#x17c;" horiz-adv-x="985" 
d="M494 1196q-58 0 -99 40t-41 97q0 59 41 99.5t99 40.5q57 0 97 -41t40 -99q0 -57 -40 -97t-97 -40zM70 1063h868l-522 -864h504v-199h-873l524 864h-501v199z" />
    <glyph glyph-name="Zcaron" unicode="&#x17d;" horiz-adv-x="1275" 
d="M975 1890l-244 -319h-182l-242 319h213q52 -77 78.5 -127.5t40.5 -105.5q17 59 44 110.5t77 122.5h215zM78 1454h1139l-764 -1243h745v-211h-1139l770 1243h-751v211z" />
    <glyph glyph-name="zcaron" unicode="&#x17e;" horiz-adv-x="985" 
d="M827 1499l-243 -319h-183l-241 319h213q52 -79 78.5 -129.5t40.5 -105.5q28 101 120 235h215zM70 1063h868l-522 -864h504v-199h-873l524 864h-501v199z" />
    <glyph glyph-name="uni018F" unicode="&#x18f;" horiz-adv-x="1603" 
d="M791 1475q213 0 383 -96t265 -267t95 -385t-94.5 -385t-262.5 -266.5t-378 -95.5q-167 0 -308 60t-239 168t-148.5 267.5t-40.5 351.5h1223q-31 189 -167 305.5t-328 116.5q-138 0 -254.5 -70t-174.5 -184l-245 33q79 199 263.5 323t410.5 124zM799 205q191 0 325.5 119
t163.5 309h-977q32 -208 159.5 -318t328.5 -110z" />
    <glyph glyph-name="florin" unicode="&#x192;" horiz-adv-x="995" 
d="M891 1446v-189q-38 11 -68.5 16t-64.5 5.5t-59 -11t-46 -33.5t-32 -61.5t-11 -95.5v-67h279v-185h-279v-475q0 -98 -29.5 -171.5t-80 -115.5t-117.5 -62t-140.5 -16.5t-150.5 27.5v191q47 -14 83.5 -19.5t75.5 -1t65 25t42.5 64.5t16.5 111v442h-246v185h246v100
q0 97 29.5 170.5t80 115.5t117 62t140 16t149.5 -28z" />
    <glyph glyph-name="uni019D" unicode="&#x19d;" horiz-adv-x="1509" 
d="M1126 1454h234v-1454h-223l-764 1073q12 -138 12 -1073h-2v-471h-233v1925h225l764 -1081q-9 84 -11 292t-2 789z" />
    <glyph glyph-name="uni0218" unicode="&#x218;" horiz-adv-x="1153" 
d="M588 -20q-237 0 -382 133.5t-151 332.5h248q4 -126 85 -195t200 -69q114 0 181 53.5t67 139.5q0 61 -40 108.5t-104 81t-141 65.5t-154.5 70.5t-141.5 86.5t-104 124t-40 172q0 174 128 283t328 109q212 0 343 -121t139 -318l-242 -6q-6 113 -69.5 177.5t-166.5 64.5
q-93 0 -154 -48.5t-61 -131.5q0 -66 40.5 -115.5t105 -82.5t142.5 -63t155.5 -66t142 -82t105 -121t40.5 -173q0 -187 -140 -298t-359 -111zM365 -471l98 367h244l-158 -367h-184z" />
    <glyph glyph-name="uni0219" unicode="&#x219;" horiz-adv-x="1024" 
d="M526 -20q-95 0 -176.5 21t-147 62t-105.5 109.5t-44 157.5l230 8q9 -82 78 -128t174 -46q89 0 142.5 34t53.5 93q0 43 -35 73t-90.5 48t-123 34.5t-134.5 40t-122.5 56t-90.5 90.5t-35 137q0 95 55 167t146.5 109t204.5 37q181 0 299.5 -92.5t124.5 -232.5l-223 -6
q-9 69 -63 111t-140 42q-76 0 -126 -32.5t-50 -86.5q0 -33 22 -58t59 -41t85 -29.5t101 -27t105.5 -30t100.5 -41.5t85 -58t59 -84t22 -116q0 -152 -121.5 -236.5t-319.5 -84.5zM301 -471l98 367h244l-158 -367h-184z" />
    <glyph glyph-name="uni021A" unicode="&#x21a;" horiz-adv-x="1157" 
d="M698 0h-239v1237h-396v217h1029v-217h-394v-1237zM362 -471l99 367h244l-158 -367h-185z" />
    <glyph glyph-name="uni021B" unicode="&#x21b;" horiz-adv-x="733" 
d="M449 1372v-309h235v-184h-235v-879h-234v879h-166v184h166v309h234zM297 -471h-184l98 367h244z" />
    <glyph glyph-name="uni0237" unicode="&#x237;" horiz-adv-x="477" 
d="M121 1063h235v-1534h-235v1534z" />
    <glyph glyph-name="uni0259" unicode="&#x259;" horiz-adv-x="1232" 
d="M600 1083q161 0 288.5 -68t200 -194t72.5 -289q0 -238 -154.5 -396.5t-390.5 -158.5q-250 0 -400.5 167t-143.5 464h854q-10 124 -102.5 202.5t-225.5 78.5q-108 0 -183 -47.5t-112 -122.5l-207 22q44 147 182.5 244.5t321.5 97.5zM616 168q126 0 213.5 74t96.5 188h-613
q5 -114 89.5 -188t213.5 -74z" />
    <glyph glyph-name="uni0272" unicode="&#x272;" horiz-adv-x="1243" 
d="M709 1085q87 0 162 -27t135.5 -81t95.5 -145t35 -209v-623h-238v588q0 82 -21.5 141.5t-60 92t-83 47t-97.5 14.5q-129 0 -204 -81t-75 -231v-1042h-237v1534h201l32 -178q104 200 355 200z" />
    <glyph glyph-name="circumflex" unicode="&#x2c6;" horiz-adv-x="710" 
d="M446 1493l244 -317h-215q-78 120 -119 192q-46 -87 -120 -192h-213l241 317h182z" />
    <glyph glyph-name="caron" unicode="&#x2c7;" horiz-adv-x="710" 
d="M475 1499h215l-244 -319h-182l-241 319h213q52 -78 78 -129t40 -106q16 59 43.5 110t77.5 125z" />
    <glyph glyph-name="breve" unicode="&#x2d8;" horiz-adv-x="821" 
d="M412 1169q-65 0 -124 17.5t-109 53t-79.5 96.5t-29.5 141h184q0 -64 40 -109t118 -45t117.5 45t39.5 109h183q0 -79 -29.5 -140.5t-79.5 -97t-108.5 -53t-122.5 -17.5z" />
    <glyph glyph-name="dotaccent" unicode="&#x2d9;" horiz-adv-x="456" 
d="M229 1196q-58 0 -98.5 40t-40.5 97q0 59 40.5 99.5t98.5 40.5q57 0 97.5 -41t40.5 -99q0 -57 -40.5 -97t-97.5 -40z" />
    <glyph glyph-name="ring" unicode="&#x2da;" horiz-adv-x="591" 
d="M295 1186q-90 0 -152.5 62.5t-62.5 152.5q0 91 63 154t152 63q91 0 154 -63t63 -154t-63 -153t-154 -62zM295 1309q40 0 67 26t27 66t-27 66t-67 26q-39 0 -65.5 -26.5t-26.5 -65.5t26.5 -65.5t65.5 -26.5z" />
    <glyph glyph-name="ogonek" unicode="&#x2db;" horiz-adv-x="563" 
d="M506 -260v-158q-74 -63 -197 -63q-107 0 -169 58t-62 155q0 65 36 136t95 132h192q-68 -53 -104.5 -112.5t-36.5 -106.5q0 -46 28 -73t74 -27q77 0 144 59z" />
    <glyph glyph-name="tilde" unicode="&#x2dc;" horiz-adv-x="886" 
d="M233 1208l-157 52q11 55 36.5 101t75.5 79t115 33q48 0 95.5 -21.5t88 -43.5t72.5 -22q34 0 53.5 22t30.5 65l166 -54q-22 -102 -80 -157.5t-147 -55.5q-52 0 -101.5 21.5t-91 43t-72.5 21.5q-34 0 -53 -22t-31 -62z" />
    <glyph glyph-name="hungarumlaut" unicode="&#x2dd;" horiz-adv-x="794" 
d="M227 1184h-186l162 319h248zM547 1184h-187l162 319h246z" />
    <glyph glyph-name="gravecomb" unicode="&#x300;" 
d="M-203 1503l162 -319h-186l-224 319h248z" />
    <glyph glyph-name="acutecomb" unicode="&#x301;" 
d="M-248 1184h-186l162 319h247z" />
    <glyph glyph-name="uni0302" unicode="&#x302;" 
d="M-264 1493l244 -317h-216q-71 108 -118 192q-43 -82 -121 -192h-213l242 317h182z" />
    <glyph glyph-name="tildecomb" unicode="&#x303;" 
d="M-653 1208l-158 52q11 55 36.5 101t75.5 79t115 33q48 0 95.5 -21.5t88 -43.5t72.5 -22q34 0 53.5 22t30.5 65l166 -54q-22 -102 -80 -157.5t-147 -55.5q-52 0 -101.5 21.5t-90.5 43t-72 21.5q-34 0 -53 -22t-31 -62z" />
    <glyph glyph-name="uni0304" unicode="&#x304;" 
d="M-807 1214v185h686v-185h-686z" />
    <glyph glyph-name="uni0306" unicode="&#x306;" 
d="M-410 1169q-65 0 -124 17.5t-109 53t-79.5 96.5t-29.5 141h185q0 -64 39.5 -109t117.5 -45t118 45t40 109h182q0 -79 -29.5 -140.5t-79.5 -97t-108.5 -53t-122.5 -17.5z" />
    <glyph glyph-name="uni0307" unicode="&#x307;" 
d="M-227 1196q-58 0 -99 40t-41 97q0 59 40.5 99.5t99.5 40.5q57 0 97 -41t40 -99q0 -57 -40 -97t-97 -40z" />
    <glyph glyph-name="uni0308" unicode="&#x308;" 
d="M-616 1214q-53 0 -88 35.5t-35 89.5q0 53 35.5 88t87.5 35q53 0 88.5 -35.5t35.5 -87.5q0 -54 -35.5 -89.5t-88.5 -35.5zM-223 1214q-53 0 -88 35.5t-35 89.5q0 53 35 88t88 35t89 -35.5t36 -87.5q0 -54 -36 -89.5t-89 -35.5z" />
    <glyph glyph-name="uni030A" unicode="&#x30a;" 
d="M-297 1186q-90 0 -152.5 62.5t-62.5 152.5q0 91 63 154t152 63q91 0 154 -63t63 -154t-63 -153t-154 -62zM-297 1309q40 0 67 26t27 66t-27 66t-67 26q-39 0 -65.5 -26.5t-26.5 -65.5t26.5 -65.5t65.5 -26.5z" />
    <glyph glyph-name="uni030B" unicode="&#x30b;" 
d="M-567 1184h-187l162 319h248zM-248 1184h-186l162 319h245z" />
    <glyph glyph-name="uni030C" unicode="&#x30c;" 
d="M-236 1499h216l-244 -319h-182l-242 319h213q52 -79 78.5 -129.5t40.5 -105.5q28 101 120 235z" />
    <glyph glyph-name="uni0312" unicode="&#x312;" 
d="M-70 1978l-106 -325h-248l168 325h186z" />
    <glyph glyph-name="uni0326" unicode="&#x326;" 
d="M-393 -471l98 367h244l-158 -367h-184z" />
    <glyph glyph-name="uni0327" unicode="&#x327;" 
d="M-152 0l-47 -115q66 -14 107 -59t41 -113q0 -93 -75.5 -146.5t-199.5 -53.5q-78 0 -155 32l4 160q82 -27 133 -27q37 0 56.5 13t19.5 33q0 61 -181 61l84 215h213z" />
    <glyph glyph-name="uni0328" unicode="&#x328;" 
d="M-57 -260v-158q-74 -63 -197 -63q-107 0 -169 58t-62 155q0 65 36 136t95 132h192q-68 -53 -104.5 -112.5t-36.5 -106.5q0 -46 28 -73t74 -27q77 0 144 59z" />
    <glyph glyph-name="uni0394" unicode="&#x394;" horiz-adv-x="1294" 
d="M782 1454l467 -1249l2 -205h-1206l-2 199l469 1255h270zM645 1219l-369 -1006h738z" />
    <glyph glyph-name="uni03A9" unicode="&#x3a9;" horiz-adv-x="1662" 
d="M1571 739q0 -180 -74.5 -317.5t-189.5 -214.5h262v-207h-658v190q204 46 315 189t111 338q0 227 -145.5 380.5t-360.5 153.5t-360 -153.5t-145 -380.5q0 -195 111 -338t315 -189l-2 -190h-658v207h264q-115 74 -189.5 212.5t-74.5 319.5q0 153 56 289t153 235t235 156.5
t295 57.5q209 0 379 -98t265.5 -267t95.5 -373z" />
    <glyph glyph-name="pi" unicode="&#x3c0;" horiz-adv-x="1187" 
d="M1044 205q36 0 103 35v-191q-56 -61 -166 -61q-44 0 -83 10.5t-77.5 36.5t-66.5 66t-45 104.5t-17 146.5v492h-266v-844h-233v844h-181v219h1100v-219h-184v-461q0 -87 30 -132.5t86 -45.5z" />
    <glyph glyph-name="uni0400" unicode="&#x400;" horiz-adv-x="1130" 
d="M541 1894l161 -319h-186l-223 319h248zM1055 1454v-217h-666v-395h541v-211h-541v-414h666v-217h-905v1454h905z" />
    <glyph glyph-name="uni0401" unicode="&#x401;" horiz-adv-x="1130" 
d="M408 1606q-53 0 -88 35.5t-35 89.5q0 52 35 87t88 35t88.5 -35t35.5 -87q0 -54 -35.5 -89.5t-88.5 -35.5zM801 1606q-53 0 -88 35.5t-35 89.5q0 52 35 87t88 35t89 -35t36 -87q0 -54 -36 -89.5t-89 -35.5zM1055 1454v-217h-666v-395h541v-211h-541v-414h666v-217h-905
v1454h905z" />
    <glyph glyph-name="uni0402" unicode="&#x402;" horiz-adv-x="1581" 
d="M954 899q265 0 416.5 -155t151.5 -410q0 -45 -6 -93t-23 -109t-44.5 -116.5t-74 -109.5t-106.5 -93t-147.5 -63t-192.5 -24v211q86 0 151.5 26.5t103 65.5t61 93t31 100t7.5 95q0 166 -90.5 268.5t-271.5 102.5q-114 0 -222 -41v-647h-239v1237h-396v217h1029v-217h-394
v-383q105 45 256 45z" />
    <glyph glyph-name="uni0403" unicode="&#x403;" horiz-adv-x="1030" 
d="M569 1894h248l-223 -319h-186zM999 1454v-217h-610v-1237h-239v1454h849z" />
    <glyph glyph-name="uni0404" unicode="&#x404;" horiz-adv-x="1331" 
d="M838 1255q-192 0 -334 -120.5t-174 -311.5h737v-198h-737q34 -188 176 -307t332 -119q140 0 239.5 43.5t157.5 99.5v-236q-63 -51 -171 -88.5t-255 -37.5q-151 0 -285.5 58t-231.5 157.5t-153.5 238t-56.5 293.5t56.5 293.5t153.5 238.5t232 158t285 58q147 0 255 -38
t171 -89v-236q-56 56 -156 99.5t-241 43.5z" />
    <glyph glyph-name="uni0405" unicode="&#x405;" horiz-adv-x="1153" 
d="M588 -20q-237 0 -382 133.5t-151 332.5h248q4 -126 85 -195t200 -69q114 0 181 53.5t67 139.5q0 61 -40 108.5t-104 81t-141 65.5t-154.5 70.5t-141.5 86.5t-104 124t-40 172q0 174 128 283t328 109q212 0 343 -121t139 -318l-242 -6q-6 113 -69.5 177.5t-166.5 64.5
q-93 0 -154 -48.5t-61 -131.5q0 -66 40.5 -115.5t105 -82.5t142.5 -63t155.5 -66t142 -82t105 -121t40.5 -173q0 -187 -140 -298t-359 -111z" />
    <glyph glyph-name="uni0406" unicode="&#x406;" horiz-adv-x="540" 
d="M389 0h-239v1454h239v-1454z" />
    <glyph glyph-name="uni0407" unicode="&#x407;" horiz-adv-x="540" 
d="M72 1606q-53 0 -88 35.5t-35 89.5q0 52 35 87t88 35t89 -35t36 -87q0 -54 -36 -89.5t-89 -35.5zM465 1606q-53 0 -88 35.5t-35 89.5q0 52 35 87t88 35t89 -35t36 -87q0 -54 -36 -89.5t-89 -35.5zM389 0h-239v1454h239v-1454z" />
    <glyph glyph-name="uni0408" unicode="&#x408;" horiz-adv-x="872" 
d="M27 117l77 194q50 -45 96.5 -70t102.5 -26q92 -2 144.5 58t52.5 204v977h239v-989q0 -121 -33 -216t-90 -152.5t-129.5 -87t-156.5 -29.5q-108 0 -186 42.5t-117 94.5z" />
    <glyph glyph-name="uni0409" unicode="&#x409;" horiz-adv-x="2166" 
d="M1278 971h293q241 0 390.5 -132t149.5 -360q0 -152 -69.5 -261.5t-187.5 -163.5t-271 -54h-545v1237h-571v-756q0 -238 -122 -366.5t-314 -116.5l2 217q198 10 198 270v969h1047v-483zM1278 219h305q129 0 209 69t80 197q0 129 -80 199t-209 70h-305v-535z" />
    <glyph glyph-name="uni040A" unicode="&#x40a;" horiz-adv-x="2207" 
d="M1321 971h291q241 0 390.5 -132t149.5 -360q0 -152 -69.5 -261.5t-187.5 -163.5t-271 -54h-545v621h-690v-621h-239v1454h239v-620h690v620h242v-483zM1321 219h303q129 0 209 69t80 197q0 129 -80 199t-209 70h-303v-535z" />
    <glyph glyph-name="uni040B" unicode="&#x40b;" horiz-adv-x="1544" 
d="M938 899q537 0 537 -543v-356h-240v344q0 178 -78.5 261t-243.5 83q-134 0 -249 -43v-645h-240v1237h-393v217h1028v-217h-395v-383q108 45 274 45z" />
    <glyph glyph-name="uni040C" unicode="&#x40c;" horiz-adv-x="1273" 
d="M721 1894h248l-224 -319h-186zM950 1454h283l-608 -709l600 -745h-289l-557 702q10 -156 10 -702h-239v1454h239q0 -520 -10 -657z" />
    <glyph glyph-name="uni040D" unicode="&#x40d;" horiz-adv-x="1507" 
d="M690 1894l162 -319h-186l-224 319h248zM1135 1454h223v-1454h-240q0 633 5 854t24 326q-24 -45 -54 -97.5t-58 -98.5t-77 -121t-82 -125t-104 -154.5t-112 -164.5t-137 -200t-150 -219h-223v1454h239q0 -619 -5.5 -849.5t-25.5 -336.5q81 154 234.5 386.5t542.5 799.5z
" />
    <glyph glyph-name="uni040F" unicode="&#x40f;" horiz-adv-x="1458" 
d="M1069 1454h240v-1454h-473v-229h-213v229h-473v1454h239v-1237h680v1237z" />
    <glyph glyph-name="uni0410" unicode="&#x410;" horiz-adv-x="1415" 
d="M1368 0h-258q-17 50 -59 171t-62 179h-575l-119 -350h-248l522 1454h273zM479 549h443q-131 383 -173.5 528t-50.5 228q-10 -88 -52 -236.5t-167 -519.5z" />
    <glyph glyph-name="uni0411" unicode="&#x411;" horiz-adv-x="1265" 
d="M389 901h305q251 0 383.5 -117t132.5 -335q0 -143 -67.5 -245.5t-183 -153t-265.5 -50.5h-544v1454h937v-217h-698v-336zM389 219h305q124 0 200.5 61t76.5 175q0 115 -76 175t-201 60h-305v-471z" />
    <glyph glyph-name="uni0412" unicode="&#x412;" horiz-adv-x="1314" 
d="M717 0h-567v1454h534q229 0 351 -94.5t122 -265.5q0 -126 -56 -204t-149 -106q131 -23 209 -123t78 -239q0 -192 -135.5 -307t-386.5 -115zM389 1249v-403h295q111 0 171 51t60 152q0 96 -61 148t-170 52h-295zM389 664v-459h328q133 0 206.5 59t73.5 164
q0 108 -72.5 172t-199.5 64h-336z" />
    <glyph glyph-name="uni0413" unicode="&#x413;" horiz-adv-x="1030" 
d="M999 1454v-217h-610v-1237h-239v1454h849z" />
    <glyph glyph-name="uni0414" unicode="&#x414;" horiz-adv-x="1507" 
d="M1284 1454v-1237h146v-446h-213v229h-994v-229h-213v446h137q38 0 65 75t30 208l20 954h1022zM408 217h636v1020h-557l-14 -723q-2 -88 -15.5 -160t-27 -103.5t-22.5 -33.5z" />
    <glyph glyph-name="uni0415" unicode="&#x415;" horiz-adv-x="1130" 
d="M1055 1454v-217h-666v-395h541v-211h-541v-414h666v-217h-905v1454h905z" />
    <glyph glyph-name="uni0416" unicode="&#x416;" horiz-adv-x="1763" 
d="M1466 1454h273l-522 -709l516 -745h-281l-461 692q10 -112 10 -256v-436h-239v436q0 164 8 256l-459 -692h-280l516 745l-522 709h272l473 -647q-8 74 -8 237v410h239v-410q0 -138 -8 -237z" />
    <glyph glyph-name="uni0417" unicode="&#x417;" horiz-adv-x="1312" 
d="M995 774q117 -38 183.5 -127t66.5 -221q0 -197 -156 -321.5t-427 -124.5q-294 0 -447.5 132t-153.5 357h232q0 -90 52.5 -153.5t134 -92t182.5 -28.5q158 0 250 65t92 170q0 215 -365 215h-131v205h137q158 6 227.5 63.5t69.5 141.5q0 93 -82 149t-215 56
q-142 0 -235 -72.5t-93 -190.5h-235q0 212 154.5 345t420.5 133q236 0 380.5 -107.5t144.5 -292.5q0 -105 -47.5 -183.5t-139.5 -117.5z" />
    <glyph glyph-name="uni0418" unicode="&#x418;" horiz-adv-x="1507" 
d="M1135 1454h223v-1454h-240q0 633 5 854t24 326q-24 -45 -54 -97.5t-58 -98.5t-77 -121t-82 -125t-104 -154.5t-112 -164.5t-137 -200t-150 -219h-223v1454h239q0 -619 -5.5 -849.5t-25.5 -336.5q81 154 234.5 386.5t542.5 799.5z" />
    <glyph glyph-name="uni0419" unicode="&#x419;" horiz-adv-x="1507" 
d="M756 1561q-51 0 -99 10.5t-93 34t-78 58.5t-52.5 87.5t-19.5 116.5h184q0 -64 40 -109t118 -45t117.5 45t39.5 109h183q0 -79 -29.5 -140.5t-79.5 -96.5t-108.5 -52.5t-122.5 -17.5zM1135 1454h223v-1454h-240q0 633 5 854t24 326q-24 -45 -54 -97.5t-58 -98.5t-77 -121
t-82 -125t-104 -154.5t-112 -164.5t-137 -200t-150 -219h-223v1454h239q0 -619 -5.5 -849.5t-25.5 -336.5q81 154 234.5 386.5t542.5 799.5z" />
    <glyph glyph-name="uni041A" unicode="&#x41a;" horiz-adv-x="1273" 
d="M950 1454h283l-608 -709l600 -745h-289l-557 702q10 -156 10 -702h-239v1454h239q0 -520 -10 -657z" />
    <glyph glyph-name="uni041B" unicode="&#x41b;" horiz-adv-x="1427" 
d="M31 -2l2 217q198 10 198 270v969h1047v-1454h-240v1237h-571v-756q0 -238 -122 -366.5t-314 -116.5z" />
    <glyph glyph-name="uni041C" unicode="&#x41c;" horiz-adv-x="1759" 
d="M881 725l503 729h226v-1454h-240q0 592 2.5 795.5t13.5 287.5l-507 -743l-504 739q10 -86 12 -290.5t2 -788.5h-239v1454h225z" />
    <glyph glyph-name="uni041D" unicode="&#x41d;" horiz-adv-x="1472" 
d="M1081 834v620h240v-1454h-240v621h-692v-621h-239v1454h239v-620h692z" />
    <glyph glyph-name="uni041E" unicode="&#x41e;" horiz-adv-x="1640" 
d="M819 -20q-157 0 -294 57t-234 155.5t-153 237.5t-56 297t56 297t153 238t234 156t294 57t294.5 -57t235 -156t154 -238t56.5 -297q0 -211 -96 -382t-265.5 -268t-378.5 -97zM819 205q142 0 257.5 70t179 189.5t63.5 262.5t-63.5 262.5t-179 189.5t-257.5 70
q-214 0 -355.5 -151.5t-141.5 -370.5t141.5 -370.5t355.5 -151.5z" />
    <glyph glyph-name="uni041F" unicode="&#x41f;" horiz-adv-x="1458" 
d="M389 0h-239v1454h1159v-1454h-240v1237h-680v-1237z" />
    <glyph glyph-name="uni0420" unicode="&#x420;" horiz-adv-x="1290" 
d="M150 1454h544q153 0 271.5 -54t188 -163.5t69.5 -261.5q0 -228 -150 -360t-391 -132h-293v-483h-239v1454zM389 700h305q129 0 209 70t80 199q0 128 -80 197t-209 69h-305v-535z" />
    <glyph glyph-name="uni0421" unicode="&#x421;" horiz-adv-x="1331" 
d="M809 -20q-151 0 -285.5 58t-231.5 157.5t-153.5 238t-56.5 293.5t56.5 293.5t153.5 238.5t232 158t285 58q147 0 255 -38t171 -89v-236q-56 56 -156 99.5t-241 43.5q-142 0 -260 -67.5t-187 -189t-69 -271.5q0 -226 150 -377t366 -151q140 0 239.5 43.5t157.5 99.5v-236
q-63 -51 -171 -88.5t-255 -37.5z" />
    <glyph glyph-name="uni0422" unicode="&#x422;" horiz-adv-x="1157" 
d="M698 0h-239v1237h-396v217h1029v-217h-394v-1237z" />
    <glyph glyph-name="uni0423" unicode="&#x423;" horiz-adv-x="1284" 
d="M1012 1454h250l-680 -1454h-242l190 410l-510 1044h263q140 -305 188.5 -412t100 -227.5t81.5 -200.5q42 118 113.5 284.5t245.5 555.5z" />
    <glyph glyph-name="uni0424" unicode="&#x424;" horiz-adv-x="1593" 
d="M915 1483v-166q284 0 458.5 -161t174.5 -413q0 -250 -174.5 -410.5t-458.5 -160.5v-197h-239v197q-187 0 -332 75t-223 205t-78 291q0 162 78 292.5t223 206t332 75.5v166h239zM279 743q0 -155 108.5 -256.5t288.5 -101.5v719q-182 0 -289.5 -101t-107.5 -260zM915 1104
v-719q182 1 290 101.5t108 256.5q0 157 -108.5 259t-289.5 102z" />
    <glyph glyph-name="uni0425" unicode="&#x425;" horiz-adv-x="1386" 
d="M1051 1454h290l-510 -713l510 -741h-290q-189 273 -264.5 398t-94.5 186q-20 -62 -94 -184.5t-262 -399.5h-291l510 731l-510 723h291q191 -270 265.5 -392.5t90.5 -178.5q17 54 92.5 176t266.5 395z" />
    <glyph glyph-name="uni0426" unicode="&#x426;" horiz-adv-x="1523" 
d="M1309 1454v-1237h137v-446h-213v229h-1083v1454h239v-1237h680v1237h240z" />
    <glyph glyph-name="uni0427" unicode="&#x427;" horiz-adv-x="1310" 
d="M920 809v645h239v-1454h-239v600q-105 -45 -267 -45q-290 0 -436.5 138t-146.5 405v356h239v-344q0 -178 86.5 -261t268.5 -83q139 0 256 43z" />
    <glyph glyph-name="uni0428" unicode="&#x428;" horiz-adv-x="2086" 
d="M1163 217h533v1237h239v-1454h-1785v1454h239v-1237h535v1237h239v-1237z" />
    <glyph glyph-name="uni0429" unicode="&#x429;" horiz-adv-x="2156" 
d="M1935 1454v-1237h144v-446h-213v229h-1716v1454h239v-1237h535v1237h239v-1237h533v1237h239z" />
    <glyph glyph-name="uni042A" unicode="&#x42a;" horiz-adv-x="1318" 
d="M430 971h293q241 0 391 -132t150 -360q0 -152 -69.5 -261.5t-187.5 -163.5t-270 -54h-544v1243h-193v211h430v-483zM430 219h307q128 0 207.5 69t79.5 197q0 129 -79.5 199t-207.5 70h-307v-535z" />
    <glyph glyph-name="uni042B" unicode="&#x42b;" horiz-adv-x="1816" 
d="M389 971h293q241 0 391 -132t150 -360q0 -152 -69.5 -261.5t-188 -163.5t-271.5 -54h-544v1454h239v-483zM1427 0v1454h240v-1454h-240zM389 219h305q129 0 209 69t80 197q0 129 -80 199t-209 70h-305v-535z" />
    <glyph glyph-name="uni042C" unicode="&#x42c;" horiz-adv-x="1277" 
d="M389 971h293q241 0 391 -132t150 -360q0 -152 -69.5 -261.5t-188 -163.5t-271.5 -54h-544v1454h239v-483zM389 219h305q129 0 209 69t80 197q0 129 -80 199t-209 70h-305v-535z" />
    <glyph glyph-name="uni042D" unicode="&#x42d;" horiz-adv-x="1331" 
d="M522 1475q150 0 285 -58t232 -158t153.5 -238.5t56.5 -293.5t-56.5 -293.5t-153.5 -238t-231.5 -157.5t-285.5 -58q-147 0 -255 37.5t-171 88.5v236q56 -56 156.5 -99.5t241.5 -43.5q192 0 333.5 120.5t173.5 311.5h-737v198h737q-34 188 -175.5 307t-331.5 119
q-140 0 -240 -44t-158 -99v236q63 51 171 89t255 38z" />
    <glyph glyph-name="uni042E" unicode="&#x42e;" horiz-adv-x="2109" 
d="M1298 1475q151 0 284.5 -57.5t229 -156.5t150.5 -238t55 -296q0 -210 -93.5 -381t-258.5 -268.5t-367 -97.5q-139 0 -263 48.5t-217 134t-153.5 206t-76.5 260.5h-199v-629h-239v1454h239v-629h199q16 140 76.5 260.5t153.5 206t217 134.5t263 49zM1298 205
q134 0 244 67.5t173 187.5t63 267t-63 267t-173 187.5t-244 67.5q-203 0 -340 -149t-137 -373t137 -373t340 -149z" />
    <glyph glyph-name="uni042F" unicode="&#x42f;" horiz-adv-x="1275" 
d="M573 1454h553v-1454h-239q0 334 3 464t13 181l-555 -645h-293q365 401 432 469q84 86 131 115h-77q-85 0 -165 25.5t-149 76t-111 137t-42 197.5q0 201 133.5 317.5t365.5 116.5zM313 997q0 -110 73.5 -175.5t207.5 -65.5h293v481h-293q-134 0 -207.5 -65t-73.5 -175z
" />
    <glyph glyph-name="uni0430" unicode="&#x430;" horiz-adv-x="1353" 
d="M995 860l37 203h199v-1063h-236v217q-45 -110 -150.5 -173.5t-250.5 -63.5q-158 0 -278 75t-182 200.5t-62 279.5q0 240 146 395t388 155q121 0 224.5 -57t164.5 -160v-8zM653 190q148 0 244 97.5t96 244.5q0 146 -96 243t-244 97q-151 0 -247.5 -95.5t-96.5 -244.5
q0 -151 96.5 -246.5t247.5 -95.5z" />
    <glyph glyph-name="uni0431" unicode="&#x431;" horiz-adv-x="1239" 
d="M674 1038q226 0 372 -145t146 -377q0 -235 -156 -384.5t-399 -149.5q-116 0 -216 37.5t-176.5 109.5t-120.5 185.5t-44 256.5v193q0 284 133.5 461.5t386.5 224.5l471 90v-201l-424 -82q-162 -32 -247.5 -131t-94.5 -295q28 56 70.5 97.5t92 64.5t100.5 34t106 11z
M639 193q142 0 233 90.5t91 234.5q0 141 -91.5 232.5t-232.5 91.5q-142 0 -234 -91.5t-92 -232.5q0 -144 91.5 -234.5t234.5 -90.5z" />
    <glyph glyph-name="uni0432" unicode="&#x432;" horiz-adv-x="1079" 
d="M805 575q103 -15 167 -85.5t64 -170.5q0 -141 -110.5 -230t-311.5 -89h-493v1061h463q184 0 283.5 -69t99.5 -195q0 -96 -45.5 -151.5t-116.5 -70.5zM596 883h-266v-256h266q77 0 120.5 32t43.5 95q0 62 -44 95.5t-120 33.5zM330 178h303q90 0 142 39.5t52 106.5t-51 106
t-139 39h-307v-291z" />
    <glyph glyph-name="uni0433" unicode="&#x433;" horiz-adv-x="858" 
d="M121 0v1063h727v-209h-496v-854h-231z" />
    <glyph glyph-name="uni0434" unicode="&#x434;" horiz-adv-x="1267" 
d="M1106 1063v-846h139v-446h-213v229h-807v-229h-213v446h138q31 0 51.5 44.5t21.5 139.5l17 662h866zM397 217h477v637h-415l-13 -438q-3 -86 -17 -135.5t-32 -63.5z" />
    <glyph glyph-name="uni0435" unicode="&#x435;" horiz-adv-x="1232" 
d="M616 1085q250 0 401 -166.5t144 -463.5h-854q10 -124 102.5 -202.5t225.5 -78.5q108 0 183 47.5t112 122.5l207 -22q-44 -147 -182.5 -244.5t-321.5 -97.5q-246 0 -403.5 152t-157.5 398q0 238 154 396.5t390 158.5zM616 895q-126 0 -213 -74t-96 -188h613
q-5 113 -90 187.5t-214 74.5z" />
    <glyph glyph-name="uni0436" unicode="&#x436;" horiz-adv-x="1574" 
d="M1106 567l469 -567h-272l-412 512q12 -152 12 -512h-233q0 336 14 514l-416 -514h-270l469 567l-467 496h270l414 -442q-14 164 -14 442h233q0 -300 -12 -438l412 438h270z" />
    <glyph glyph-name="uni0437" unicode="&#x437;" horiz-adv-x="1071" 
d="M842 565q180 -66 180 -241q0 -152 -126.5 -249.5t-358.5 -97.5q-120 0 -214.5 28.5t-154 79t-92 117t-35.5 144.5h225q0 -83 76 -135.5t199 -52.5q114 0 180.5 45t66.5 116t-71.5 108.5t-181.5 37.5h-123v162h106q54 0 101.5 11t84.5 43t37 81q0 67 -61 105t-162 38
q-108 0 -171.5 -48.5t-63.5 -127.5h-226q4 72 35.5 135t89 113t147 79t201.5 29q203 0 323 -85.5t120 -225.5q0 -142 -131 -209z" />
    <glyph glyph-name="uni0438" unicode="&#x438;" horiz-adv-x="1267" 
d="M352 326l580 737h213v-1063h-232v725l-577 -725h-215v1063h231v-737z" />
    <glyph glyph-name="uni0439" unicode="&#x439;" horiz-adv-x="1267" 
d="M637 1167q-65 0 -124 17.5t-109 53t-79.5 96.5t-29.5 141h184q0 -64 40 -109t118 -45t118 45t40 109h182q0 -79 -29.5 -140.5t-79.5 -97t-108.5 -53t-122.5 -17.5zM352 326l580 737h213v-1063h-232v725l-577 -725h-215v1063h231v-737z" />
    <glyph glyph-name="uni043A" unicode="&#x43a;" horiz-adv-x="1093" 
d="M567 567l529 -567h-279l-475 518q14 -181 14 -518h-235v1063h235q0 -354 -12 -442l471 442h279z" />
    <glyph glyph-name="uni043B" unicode="&#x43b;" horiz-adv-x="1193" 
d="M41 -6l2 209q73 4 120.5 53.5t47.5 165.5v641h862v-1063h-231v854h-404v-436q0 -212 -110.5 -319.5t-286.5 -104.5z" />
    <glyph glyph-name="uni043C" unicode="&#x43c;" horiz-adv-x="1366" 
d="M682 621l344 442h217v-1063h-231q0 344 5.5 499t26.5 306q-54 -105 -131 -212.5t-231 -289.5q-143 172 -218.5 278t-139.5 216q19 -143 23.5 -292.5t4.5 -504.5h-231v1063h217z" />
    <glyph glyph-name="uni043D" unicode="&#x43d;" horiz-adv-x="1241" 
d="M887 627v436h231v-1063h-231v424h-535v-424h-231v1063h231v-436h535z" />
    <glyph glyph-name="uni043E" unicode="&#x43e;" horiz-adv-x="1282" 
d="M641 -20q-246 0 -407.5 156.5t-161.5 395.5q0 156 73.5 283t203.5 198.5t292 71.5q247 0 408 -157.5t161 -395.5q0 -239 -161 -395.5t-408 -156.5zM641 190q147 0 244.5 97.5t97.5 244.5q0 148 -97 245t-245 97q-147 0 -244.5 -97.5t-97.5 -244.5q0 -146 98 -244t244 -98
z" />
    <glyph glyph-name="uni043F" unicode="&#x43f;" horiz-adv-x="1224" 
d="M121 1063h983v-1063h-232v854h-520v-854h-231v1063z" />
    <glyph glyph-name="uni0440" unicode="&#x440;" horiz-adv-x="1349" 
d="M756 1083q158 0 278 -75t182 -200.5t62 -279.5q0 -240 -146.5 -395.5t-388.5 -155.5q-121 0 -224.5 57.5t-162.5 160.5v-666h-235v1534h194l41 -211v-6q43 108 150 172.5t250 64.5zM698 190q151 0 247.5 95.5t96.5 244.5q0 151 -96.5 246.5t-247.5 95.5
q-149 0 -245.5 -97.5t-96.5 -244.5q0 -146 97 -243t245 -97z" />
    <glyph glyph-name="uni0441" unicode="&#x441;" horiz-adv-x="1060" 
d="M639 -23q-125 0 -231.5 42t-180 115.5t-114.5 176t-41 221.5q0 240 157.5 396.5t409.5 156.5q200 0 332 -114v-228q-132 129 -309 129q-152 0 -254.5 -98t-102.5 -244t102 -243t255 -97q177 0 309 129v-227q-133 -115 -332 -115z" />
    <glyph glyph-name="uni0442" unicode="&#x442;" horiz-adv-x="888" 
d="M561 0h-231v854h-320v209h869v-209h-318v-854z" />
    <glyph glyph-name="uni0443" unicode="&#x443;" horiz-adv-x="1198" 
d="M915 1063h250l-620 -1534h-244l184 465l-452 1069h256q166 -401 231.5 -575t87.5 -275q21 102 84.5 279t222.5 571z" />
    <glyph glyph-name="uni0444" unicode="&#x444;" horiz-adv-x="1392" 
d="M1343 535q0 -234 -149.5 -388t-390.5 -163v-455h-219v455q-236 9 -386.5 165.5t-150.5 385.5q0 227 150.5 381t386.5 163v457h219v-457q241 -9 390.5 -161t149.5 -383zM262 535q0 -146 89 -245.5t233 -109.5v707q-144 -9 -233 -107t-89 -245zM803 887v-707
q147 9 236 107.5t89 247.5q0 145 -89.5 244t-235.5 108z" />
    <glyph glyph-name="uni0445" unicode="&#x445;" horiz-adv-x="1179" 
d="M854 1063h268l-415 -516l415 -547h-268q-136 176 -197.5 267t-85.5 153q-24 -64 -84 -156.5t-190 -263.5h-268l415 535l-415 528h268q139 -173 196 -254.5t80 -140.5q22 55 81.5 138.5t199.5 256.5z" />
    <glyph glyph-name="uni0446" unicode="&#x446;" horiz-adv-x="1265" 
d="M1104 1063v-846h137v-446h-213v229h-907v1063h231v-854h520v854h232z" />
    <glyph glyph-name="uni0447" unicode="&#x447;" horiz-adv-x="1087" 
d="M735 623v440h232v-1063h-232v420q-80 -31 -205 -31q-240 0 -363.5 110t-123.5 306v258h231v-246q0 -221 267 -221q97 0 194 27z" />
    <glyph glyph-name="uni0448" unicode="&#x448;" horiz-adv-x="1742" 
d="M987 211h404v852h231v-1063h-1501v1063h231v-852h404v852h231v-852z" />
    <glyph glyph-name="uni0449" unicode="&#x449;" horiz-adv-x="1785" 
d="M1622 1063v-846h141v-446h-213v229h-1429v1063h231v-852h404v852h231v-852h404v852h231z" />
    <glyph glyph-name="uni044A" unicode="&#x44a;" horiz-adv-x="1155" 
d="M434 733h266q190 0 306 -99t116 -267q0 -170 -116 -268.5t-306 -98.5h-497v852h-193v211h424v-330zM434 199h242q98 0 156.5 43.5t58.5 124.5t-58.5 125.5t-156.5 44.5h-242v-338z" />
    <glyph glyph-name="uni044B" unicode="&#x44b;" horiz-adv-x="1550" 
d="M352 733h269q189 0 304 -98.5t115 -267.5q0 -170 -114.5 -268.5t-304.5 -98.5h-500v1063h231v-330zM1194 0v1063h236v-1063h-236zM352 199h242q99 0 157 43.5t58 124.5q0 82 -58 126t-157 44h-242v-338z" />
    <glyph glyph-name="uni044C" unicode="&#x44c;" horiz-adv-x="1073" 
d="M352 733h269q189 0 304 -98.5t115 -267.5q0 -170 -114.5 -268.5t-304.5 -98.5h-500v1063h231v-330zM352 199h242q99 0 157 43.5t58 124.5q0 82 -58 126t-157 44h-242v-338z" />
    <glyph glyph-name="uni044D" unicode="&#x44d;" horiz-adv-x="1011" 
d="M399 1081q250 0 408 -156t158 -397q0 -238 -158 -393t-408 -155q-201 0 -336 114l3 215q138 -131 311 -131q134 0 233 77t127 198h-510v155h510q-26 122 -126 198.5t-234 76.5q-177 0 -311 -131l-3 213q134 116 336 116z" />
    <glyph glyph-name="uni044E" unicode="&#x44e;" horiz-adv-x="1636" 
d="M1020 1083q236 0 390.5 -157t154.5 -396q0 -238 -154.5 -393t-390.5 -155q-214 0 -362.5 128t-176.5 332h-129v-442h-231v1063h231v-428h131q34 200 180.5 324t356.5 124zM1020 193q138 0 229.5 96t91.5 243t-91.5 243.5t-229.5 96.5q-137 0 -227.5 -96.5t-90.5 -243.5
t90.5 -243t227.5 -96z" />
    <glyph glyph-name="uni044F" unicode="&#x44f;" horiz-adv-x="1075" 
d="M451 1063h503v-1063h-223q0 267 3.5 361.5t15.5 107.5h-2l-437 -469h-274q339 342 426 401h-47q-48 0 -96 10.5t-96 36t-84.5 62.5t-59.5 94.5t-23 128.5q0 156 105 243t289 87zM283 713q0 -69 48.5 -110.5t135.5 -41.5h264v299h-264q-88 0 -136 -39.5t-48 -107.5z" />
    <glyph glyph-name="uni0450" unicode="&#x450;" horiz-adv-x="1232" 
d="M553 1503l162 -319h-187l-223 319h248zM616 1085q250 0 401 -166.5t144 -463.5h-854q10 -124 102.5 -202.5t225.5 -78.5q108 0 183 47.5t112 122.5l207 -22q-44 -147 -182.5 -244.5t-321.5 -97.5q-246 0 -403.5 152t-157.5 398q0 238 154 396.5t390 158.5zM616 895
q-126 0 -213 -74t-96 -188h613q-5 113 -90 187.5t-214 74.5z" />
    <glyph glyph-name="uni0451" unicode="&#x451;" horiz-adv-x="1232" 
d="M418 1214q-53 0 -88 35.5t-35 89.5q0 53 35.5 88t87.5 35q53 0 89 -35.5t36 -87.5q0 -54 -36 -89.5t-89 -35.5zM811 1214q-53 0 -88 35.5t-35 89.5q0 53 35 88t88 35t89 -35.5t36 -87.5q0 -54 -36 -89.5t-89 -35.5zM616 1085q250 0 401 -166.5t144 -463.5h-854
q10 -124 102.5 -202.5t225.5 -78.5q108 0 183 47.5t112 122.5l207 -22q-44 -147 -182.5 -244.5t-321.5 -97.5q-246 0 -403.5 152t-157.5 398q0 238 154 396.5t390 158.5zM616 895q-126 0 -213 -74t-96 -188h613q-5 113 -90 187.5t-214 74.5z" />
    <glyph glyph-name="uni0452" unicode="&#x452;" horiz-adv-x="1230" 
d="M705 1085q87 0 162.5 -27t136.5 -81t96 -145t35 -209v-1094h-238v1059q0 82 -21.5 141.5t-60 92t-83 47t-97.5 14.5q-130 0 -204.5 -81t-74.5 -231v-571h-235v1174h-250v172h250v190h235v-190h248v-172h-248v-281q106 192 349 192z" />
    <glyph glyph-name="uni0453" unicode="&#x453;" horiz-adv-x="858" 
d="M559 1184h-186l162 319h247zM121 0v1063h727v-209h-496v-854h-231z" />
    <glyph glyph-name="uni0454" unicode="&#x454;" horiz-adv-x="1013" 
d="M635 180q177 0 311 131l2 -213q-134 -116 -336 -116q-250 0 -407.5 156t-157.5 397q0 238 157.5 393t407.5 155q201 0 336 -114l-2 -215q-138 131 -311 131q-134 0 -233.5 -77t-127.5 -198h510v-155h-510q26 -122 126 -198.5t235 -76.5z" />
    <glyph glyph-name="uni0455" unicode="&#x455;" horiz-adv-x="1024" 
d="M526 -20q-95 0 -176.5 21t-147 62t-105.5 109.5t-44 157.5l230 8q9 -82 78 -128t174 -46q89 0 142.5 34t53.5 93q0 43 -35 73t-90.5 48t-123 34.5t-134.5 40t-122.5 56t-90.5 90.5t-35 137q0 95 55 167t146.5 109t204.5 37q181 0 299.5 -92.5t124.5 -232.5l-223 -6
q-9 69 -63 111t-140 42q-76 0 -126 -32.5t-50 -86.5q0 -33 22 -58t59 -41t85 -29.5t101 -27t105.5 -30t100.5 -41.5t85 -58t59 -84t22 -116q0 -152 -121.5 -236.5t-319.5 -84.5z" />
    <glyph glyph-name="uni0456" unicode="&#x456;" horiz-adv-x="477" 
d="M240 1196q-58 0 -99 40t-41 97q0 59 41 99.5t99 40.5q57 0 97 -41t40 -99q0 -57 -40 -97t-97 -40zM121 1063h235v-1063h-235v1063z" />
    <glyph glyph-name="uni0457" unicode="&#x457;" horiz-adv-x="477" 
d="M41 1214q-53 0 -88 35.5t-35 89.5q0 53 35 88t88 35t89 -35.5t36 -87.5q0 -54 -36 -89.5t-89 -35.5zM434 1214q-53 0 -88 35.5t-35 89.5q0 53 35.5 88t87.5 35q53 0 89 -35.5t36 -87.5q0 -54 -36 -89.5t-89 -35.5zM121 1063h235v-1063h-235v1063z" />
    <glyph glyph-name="uni0458" unicode="&#x458;" horiz-adv-x="477" 
d="M242 1196q-58 0 -99 40t-41 97q0 59 41 99.5t99 40.5q57 0 97 -41t40 -99q0 -57 -40 -97t-97 -40zM-70 -471l191 485v1049h235v-1063l-180 -471h-246z" />
    <glyph glyph-name="uni0459" unicode="&#x459;" horiz-adv-x="1794" 
d="M1073 733h268q189 0 304.5 -98.5t115.5 -267.5q0 -170 -115 -268.5t-305 -98.5h-499v854h-404v-436q0 -212 -110.5 -319.5t-286.5 -104.5l2 209q73 4 120.5 53.5t47.5 165.5v641h862v-330zM1073 199h242q99 0 157 43.5t58 124.5q0 82 -58 126t-157 44h-242v-338z" />
    <glyph glyph-name="uni045A" unicode="&#x45a;" horiz-adv-x="1839" 
d="M1118 733h268q189 0 304.5 -98.5t115.5 -267.5q0 -170 -115 -268.5t-305 -98.5h-499v424h-535v-424h-231v1063h231v-436h535v436h231v-330zM1118 199h242q99 0 157 43.5t58 124.5q0 82 -58 126t-157 44h-242v-338z" />
    <glyph glyph-name="uni045B" unicode="&#x45b;" horiz-adv-x="1230" 
d="M705 1085q87 0 162.5 -27t136.5 -81t96 -145t35 -209v-623h-238v588q0 82 -21.5 141.5t-60 92t-83 47t-97.5 14.5q-130 0 -204.5 -81t-74.5 -231v-571h-235v1174h-250v172h250v190h235v-190h248v-172h-248v-281q106 192 349 192z" />
    <glyph glyph-name="uni045C" unicode="&#x45c;" horiz-adv-x="1093" 
d="M602 1503h248l-223 -319h-187zM567 567l529 -567h-279l-475 518q14 -181 14 -518h-235v1063h235q0 -354 -12 -442l471 442h279z" />
    <glyph glyph-name="uni045D" unicode="&#x45d;" horiz-adv-x="1267" 
d="M571 1501l162 -319h-186l-223 319h247zM352 326l580 737h213v-1063h-232v725l-577 -725h-215v1063h231v-737z" />
    <glyph glyph-name="uni045F" unicode="&#x45f;" horiz-adv-x="1224" 
d="M872 1063h232v-1063h-385v-229h-213v229h-385v1063h231v-854h520v854z" />
    <glyph glyph-name="uni0490" unicode="&#x490;" horiz-adv-x="1030" 
d="M772 1454v176h227v-393h-610v-1237h-239v1454h622z" />
    <glyph glyph-name="uni0491" unicode="&#x491;" horiz-adv-x="858" 
d="M621 1063v176h227v-385h-496v-854h-231v1063h500z" />
    <glyph glyph-name="Wgrave" unicode="&#x1e80;" horiz-adv-x="1978" 
d="M926 1894l161 -319h-186l-223 319h248zM1704 1454h242l-402 -1454h-274q-153 580 -209 817.5t-70 358.5q-13 -120 -69.5 -347.5t-221.5 -828.5h-268l-399 1454h252q155 -589 215.5 -837t79.5 -371q17 133 73 370t213 838h260q251 -939 291 -1186q19 130 78.5 375.5
t208.5 810.5z" />
    <glyph glyph-name="wgrave" unicode="&#x1e81;" horiz-adv-x="1716" 
d="M795 1503l161 -319h-186l-223 319h248zM1430 1063h239l-338 -1063h-237q-138 441 -179 589t-53 247q-13 -96 -54 -238.5t-185 -597.5h-240l-334 1063h244q131 -440 170 -588t53 -254q14 103 53 242t181 600h233q129 -422 168.5 -566.5t56.5 -258.5q13 92 49.5 226.5
t172.5 598.5z" />
    <glyph glyph-name="Wacute" unicode="&#x1e82;" horiz-adv-x="1978" 
d="M1053 1894h247l-223 -319h-186zM1704 1454h242l-402 -1454h-274q-153 580 -209 817.5t-70 358.5q-13 -120 -69.5 -347.5t-221.5 -828.5h-268l-399 1454h252q155 -589 215.5 -837t79.5 -371q17 133 73 370t213 838h260q251 -939 291 -1186q19 130 78.5 375.5t208.5 810.5z
" />
    <glyph glyph-name="wacute" unicode="&#x1e83;" horiz-adv-x="1716" 
d="M922 1503h247l-223 -319h-186zM1430 1063h239l-338 -1063h-237q-138 441 -179 589t-53 247q-13 -96 -54 -238.5t-185 -597.5h-240l-334 1063h244q131 -440 170 -588t53 -254q14 103 53 242t181 600h233q129 -422 168.5 -566.5t56.5 -258.5q13 92 49.5 226.5t172.5 598.5z
" />
    <glyph glyph-name="Wdieresis" unicode="&#x1e84;" horiz-adv-x="1978" 
d="M793 1606q-53 0 -88 35.5t-35 89.5q0 52 35 87t88 35t89 -35t36 -87q0 -54 -36 -89.5t-89 -35.5zM1186 1606q-53 0 -88 35.5t-35 89.5q0 52 35 87t88 35t89 -35t36 -87q0 -54 -36 -89.5t-89 -35.5zM1704 1454h242l-402 -1454h-274q-153 580 -209 817.5t-70 358.5
q-13 -120 -69.5 -347.5t-221.5 -828.5h-268l-399 1454h252q155 -589 215.5 -837t79.5 -371q17 133 73 370t213 838h260q251 -939 291 -1186q19 130 78.5 375.5t208.5 810.5z" />
    <glyph glyph-name="wdieresis" unicode="&#x1e85;" horiz-adv-x="1716" 
d="M662 1214q-53 0 -88 35.5t-35 89.5q0 53 35.5 88t87.5 35q53 0 88.5 -35.5t35.5 -87.5q0 -54 -35.5 -89.5t-88.5 -35.5zM1055 1214q-53 0 -88 35.5t-35 89.5q0 53 35 88t88 35t89 -35.5t36 -87.5q0 -54 -36 -89.5t-89 -35.5zM1430 1063h239l-338 -1063h-237
q-138 441 -179 589t-53 247q-13 -96 -54 -238.5t-185 -597.5h-240l-334 1063h244q131 -440 170 -588t53 -254q14 103 53 242t181 600h233q129 -422 168.5 -566.5t56.5 -258.5q13 92 49.5 226.5t172.5 598.5z" />
    <glyph glyph-name="uni1E9E" unicode="&#x1e9e;" horiz-adv-x="1368" 
d="M1288 1454l-334 -600q164 -23 257.5 -136t93.5 -276q0 -194 -128.5 -328t-324.5 -134q-185 0 -305 102v223q115 -112 258 -112q108 0 182 67.5t74 175.5q0 123 -88.5 190.5t-247.5 67.5h-102l323 561h-557v-1255h-239v1454h1138z" />
    <glyph glyph-name="uni1EBC" unicode="&#x1ebc;" horiz-adv-x="1130" 
d="M479 1683q-34 0 -53 -22t-31 -62l-157 52q11 55 36.5 101t75.5 79t115 33q48 0 95.5 -21.5t88 -43t72.5 -21.5q34 0 53.5 21.5t30.5 64.5l166 -54q-22 -101 -80.5 -157t-147.5 -56q-52 0 -101.5 21.5t-90.5 43t-72 21.5zM1055 1454v-217h-666v-395h541v-211h-541v-414
h666v-217h-905v1454h905z" />
    <glyph glyph-name="uni1EBD" unicode="&#x1ebd;" horiz-adv-x="1232" 
d="M492 1292q-34 0 -53 -22t-31 -62l-158 52q11 55 36.5 101t75.5 79t115 33q48 0 95.5 -21.5t88 -43.5t72.5 -22q34 0 53.5 22t30.5 65l166 -54q-22 -102 -80 -157.5t-147 -55.5q-52 0 -101.5 21.5t-90.5 43t-72 21.5zM616 1085q250 0 401 -166.5t144 -463.5h-854
q10 -124 102.5 -202.5t225.5 -78.5q108 0 183 47.5t112 122.5l207 -22q-44 -147 -182.5 -244.5t-321.5 -97.5q-246 0 -403.5 152t-157.5 398q0 238 154 396.5t390 158.5zM616 895q-126 0 -213 -74t-96 -188h613q-5 113 -90 187.5t-214 74.5z" />
    <glyph glyph-name="Ygrave" unicode="&#x1ef2;" horiz-adv-x="1286" 
d="M580 1894l161 -319h-186l-223 319h248zM999 1454h269l-506 -852v-602h-238v602l-506 852h273q174 -296 250.5 -441.5t103.5 -228.5q26 80 103 225t251 445z" />
    <glyph glyph-name="ygrave" unicode="&#x1ef3;" horiz-adv-x="1198" 
d="M537 1503l161 -319h-186l-223 319h248zM915 1063h250l-620 -1534h-244l184 465l-452 1069h256q166 -401 231.5 -575t87.5 -275q21 102 84.5 279t222.5 571z" />
    <glyph glyph-name="uni1EF8" unicode="&#x1ef8;" horiz-adv-x="1286" 
d="M518 1683q-34 0 -53 -22t-31 -62l-158 52q17 87 75 150t153 63q48 0 95.5 -21.5t88 -43t72.5 -21.5q34 0 53.5 21.5t30.5 64.5l166 -54q-22 -101 -80.5 -157t-147.5 -56q-52 0 -101.5 21.5t-90.5 43t-72 21.5zM999 1454h269l-506 -852v-602h-238v602l-506 852h273
q174 -296 250.5 -441.5t103.5 -228.5q26 80 103 225t251 445z" />
    <glyph glyph-name="uni1EF9" unicode="&#x1ef9;" horiz-adv-x="1198" 
d="M475 1292q-34 0 -53 -22t-31 -62l-158 52q17 87 75 150t153 63q48 0 95.5 -21.5t88 -43.5t72.5 -22q34 0 53.5 22t30.5 65l166 -54q-22 -101 -80.5 -157t-147.5 -56q-52 0 -101.5 21.5t-90.5 43t-72 21.5zM915 1063h250l-620 -1534h-244l184 465l-452 1069h256
q166 -401 231.5 -575t87.5 -275q21 102 84.5 279t222.5 571z" />
    <glyph glyph-name="endash" unicode="&#x2013;" horiz-adv-x="1230" 
d="M0 444v213h1231v-213h-1231z" />
    <glyph glyph-name="emdash" unicode="&#x2014;" horiz-adv-x="1513" 
d="M0 444v213h1513v-213h-1513z" />
    <glyph glyph-name="quoteleft" unicode="&#x2018;" horiz-adv-x="565" 
d="M451 1452l-109 -430h-244l168 430h185z" />
    <glyph glyph-name="quoteright" unicode="&#x2019;" horiz-adv-x="565" 
d="M117 1022l106 432h244l-166 -432h-184z" />
    <glyph glyph-name="quotesinglbase" unicode="&#x201a;" horiz-adv-x="565" 
d="M117 -213l106 432h244l-166 -432h-184z" />
    <glyph glyph-name="quotedblleft" unicode="&#x201c;" horiz-adv-x="923" 
d="M451 1452l-109 -430h-244l168 430h185zM809 1452l-109 -430h-243l168 430h184z" />
    <glyph glyph-name="quotedblright" unicode="&#x201d;" horiz-adv-x="923" 
d="M117 1022l106 432h244l-166 -432h-184zM475 1022l107 432h243l-166 -432h-184z" />
    <glyph glyph-name="quotedblbase" unicode="&#x201e;" horiz-adv-x="923" 
d="M117 -213l106 432h244l-166 -432h-184zM475 -213l107 432h243l-166 -432h-184z" />
    <glyph glyph-name="dagger" unicode="&#x2020;" horiz-adv-x="935" 
d="M582 1108h292v-201h-292v-1071h-228v1071h-293v201h293v453h228v-453z" />
    <glyph glyph-name="daggerdbl" unicode="&#x2021;" horiz-adv-x="993" 
d="M903 1110v-199h-293v-440h293v-199h-293v-436h-227v436h-293v199h293v440h-293v199h293v451h227v-451h293z" />
    <glyph glyph-name="bullet" unicode="&#x2022;" horiz-adv-x="765" 
d="M383 500q-83 0 -141 58t-58 142q0 82 58 139.5t141 57.5t142 -57.5t59 -139.5q0 -84 -58.5 -142t-142.5 -58z" />
    <glyph glyph-name="perthousand" unicode="&#x2030;" horiz-adv-x="2899" 
d="M479 692q-175 0 -288 110t-113 279q0 168 113.5 278.5t287.5 110.5q173 0 286.5 -110.5t113.5 -278.5t-114 -278.5t-286 -110.5zM1243 1454h195l-664 -1454h-196zM479 860q95 0 159 63t64 158t-63 158.5t-160 63.5q-95 0 -159 -63.5t-64 -158.5t64 -158t159 -63z
M1538 -23q-173 0 -286 110.5t-113 279.5q0 167 113 277t286 110t287 -110t114 -277q0 -169 -114 -279.5t-287 -110.5zM2421 -23q-173 0 -286.5 110.5t-113.5 279.5q0 167 113.5 277t286.5 110t287 -110t114 -277q0 -169 -114 -279.5t-287 -110.5zM1538 145q96 0 159.5 63.5
t63.5 158.5q0 96 -62.5 158.5t-160.5 62.5q-94 0 -157.5 -63t-63.5 -158t63.5 -158.5t157.5 -63.5zM2421 145q97 0 161 63.5t64 158.5q0 96 -63.5 158.5t-161.5 62.5q-94 0 -157.5 -63t-63.5 -158t63.5 -158.5t157.5 -63.5z" />
    <glyph glyph-name="guilsinglleft" unicode="&#x2039;" horiz-adv-x="581" 
d="M301 866h238l-250 -370l250 -373h-238l-258 371z" />
    <glyph glyph-name="guilsinglright" unicode="&#x203a;" horiz-adv-x="581" 
d="M43 866h238l258 -372l-258 -371h-238l252 373z" />
    <glyph glyph-name="fraction" unicode="&#x2044;" horiz-adv-x="368" 
d="M418 1454h196l-665 -1454h-195z" />
    <glyph glyph-name="uni2070" unicode="&#x2070;" horiz-adv-x="862" 
d="M430 713q-93 0 -172.5 37t-131.5 115t-52 184v268q0 107 52.5 185.5t132 115.5t171.5 37q94 0 174 -37.5t132 -116t52 -184.5v-268q0 -157 -106 -246.5t-252 -89.5zM430 879q75 0 127.5 46.5t52.5 123.5v268q0 77 -52.5 123.5t-127.5 46.5q-74 0 -127 -46.5t-53 -123.5
v-268q0 -77 53 -123.5t127 -46.5z" />
    <glyph glyph-name="uni2074" unicode="&#x2074;" horiz-adv-x="790" 
d="M614 1640v-596h129v-141h-129v-178h-172v178h-415v121l426 616h161zM211 1044h231q0 255 23 420q-96 -191 -254 -420z" />
    <glyph glyph-name="uni2075" unicode="&#x2075;" horiz-adv-x="796" 
d="M403 713q-151 0 -244 89t-93 210h176q5 -58 50 -98t111 -40t113 45t47 117t-45.5 117t-114.5 45q-47 0 -91.5 -25.5t-63.5 -70.5h-174l82 538h520v-155h-379l-29 -195q66 60 174 60q130 0 213.5 -86.5t83.5 -221.5q0 -138 -93 -233.5t-243 -95.5z" />
    <glyph glyph-name="uni2076" unicode="&#x2076;" horiz-adv-x="749" 
d="M428 1339q120 0 202.5 -85t82.5 -214q0 -139 -94 -233t-242 -94t-243 92.5t-95 224.5q0 102 61 205l236 405h194l-180 -311q38 10 78 10zM377 879q70 0 115 45t45 116q0 70 -44.5 115t-115.5 45t-116.5 -45t-45.5 -115t46.5 -115.5t115.5 -45.5z" />
    <glyph glyph-name="uni2077" unicode="&#x2077;" horiz-adv-x="679" 
d="M651 1640v-133l-321 -782h-189l320 760h-438v155h628z" />
    <glyph glyph-name="uni2078" unicode="&#x2078;" horiz-adv-x="776" 
d="M592 1212q123 -72 123 -215q0 -124 -92.5 -205t-235.5 -81q-141 0 -233.5 81t-92.5 205q0 65 30.5 122t90.5 93q-88 66 -88 183q0 113 84 184.5t211 71.5q125 0 209 -72t84 -184q0 -120 -90 -183zM389 1505q-52 0 -88.5 -31t-36.5 -83q0 -51 36 -82t89 -31t90 31t37 82
t-37 82.5t-90 31.5zM389 870q65 0 108.5 38.5t43.5 97.5q0 58 -43.5 96.5t-108.5 38.5t-108 -38.5t-43 -96.5q0 -60 43 -98t108 -38z" />
    <glyph glyph-name="uni2079" unicode="&#x2079;" horiz-adv-x="749" 
d="M373 1655q147 0 241.5 -94t94.5 -226q0 -98 -60 -202l-235 -408h-195l180 311q-31 -10 -77 -10q-120 0 -203.5 86t-83.5 215q0 138 95 233t243 95zM373 1167q70 0 114.5 45.5t44.5 114.5t-45 114.5t-114 45.5q-70 0 -116 -45.5t-46 -114.5t46 -114.5t116 -45.5z" />
    <glyph glyph-name="uni207D" unicode="&#x207d;" horiz-adv-x="501" 
d="M453 496v-158q-157 0 -245.5 83.5t-88.5 244.5v643q0 162 88.5 245.5t245.5 83.5v-157q-77 0 -124.5 -43t-47.5 -127v-645q0 -84 47.5 -127t124.5 -43z" />
    <glyph glyph-name="uni207E" unicode="&#x207e;" horiz-adv-x="501" 
d="M49 1481v157q157 0 244.5 -83t87.5 -244v-643q0 -163 -87.5 -246.5t-244.5 -83.5v158q77 0 124.5 43t47.5 127v645q0 84 -47.5 127t-124.5 43z" />
    <glyph glyph-name="uni2080" unicode="&#x2080;" horiz-adv-x="862" 
d="M430 -483q-93 0 -172.5 37t-131.5 115t-52 184v268q0 107 52.5 185.5t132 115.5t171.5 37q94 0 174 -37.5t132 -116t52 -184.5v-268q0 -157 -106 -246.5t-252 -89.5zM430 -317q75 0 127.5 46.5t52.5 123.5v268q0 77 -52.5 123.5t-127.5 46.5q-74 0 -127 -46.5t-53 -123.5
v-268q0 -77 53 -123.5t127 -46.5z" />
    <glyph glyph-name="uni2081" unicode="&#x2081;" horiz-adv-x="688" 
d="M629 -471h-563v156h192v567l-186 -49v157l362 84v-759h195v-156z" />
    <glyph glyph-name="uni2082" unicode="&#x2082;" horiz-adv-x="778" 
d="M250 -303h455v-168h-639v119q0 67 25.5 122t66 92.5t89.5 69t98 58t89.5 52.5t66 59.5t25.5 72.5q0 51 -37 87t-98 36q-65 0 -104.5 -39.5t-42.5 -107.5h-178q0 132 93.5 220.5t231.5 88.5q133 0 222 -76t89 -207q0 -63 -22 -114.5t-58.5 -86t-80.5 -63t-91 -51.5
t-87 -46t-71 -53t-42 -65z" />
    <glyph glyph-name="uni2083" unicode="&#x2083;" horiz-adv-x="782" 
d="M592 10q129 -71 129 -215q0 -118 -86.5 -198t-237.5 -80q-158 0 -252 87t-94 224h172q0 -73 48 -115.5t118 -42.5q68 0 111 37.5t43 95.5q0 36 -16.5 61.5t-43.5 37.5t-53 17t-55 5h-72v152h76q61 0 96 30t35 80q0 53 -37.5 85t-95.5 32q-62 0 -104 -39t-42 -106h-172
q0 130 88.5 215.5t237.5 85.5q135 0 218 -68t83 -182q0 -126 -94 -199z" />
    <glyph glyph-name="uni2084" unicode="&#x2084;" horiz-adv-x="790" 
d="M614 444v-596h129v-141h-129v-178h-172v178h-415v121l426 616h161zM211 -152h231q0 255 23 420q-96 -191 -254 -420z" />
    <glyph glyph-name="uni2085" unicode="&#x2085;" horiz-adv-x="796" 
d="M403 -483q-151 0 -244 89t-93 210h176q5 -58 50 -98t111 -40t113 45t47 117t-45.5 117t-114.5 45q-47 0 -91.5 -25.5t-63.5 -70.5h-174l82 538h520v-155h-379l-29 -195q66 60 174 60q130 0 213.5 -86.5t83.5 -221.5q0 -138 -93 -233.5t-243 -95.5z" />
    <glyph glyph-name="uni2086" unicode="&#x2086;" horiz-adv-x="749" 
d="M428 143q120 0 202.5 -85t82.5 -214q0 -139 -94 -233t-242 -94t-243 92.5t-95 224.5q0 102 61 205l236 405h194l-180 -311q38 10 78 10zM377 -317q70 0 115 45t45 116q0 70 -44.5 115t-115.5 45t-116.5 -45t-45.5 -115t46.5 -115.5t115.5 -45.5z" />
    <glyph glyph-name="uni2087" unicode="&#x2087;" horiz-adv-x="679" 
d="M651 444v-133l-321 -782h-189l320 760h-438v155h628z" />
    <glyph glyph-name="uni2088" unicode="&#x2088;" horiz-adv-x="776" 
d="M592 16q123 -72 123 -215q0 -124 -92.5 -205t-235.5 -81q-141 0 -233.5 81t-92.5 205q0 65 30.5 122t90.5 93q-88 66 -88 183q0 113 84 184.5t211 71.5q125 0 209 -72t84 -184q0 -120 -90 -183zM389 309q-52 0 -88.5 -31t-36.5 -83q0 -51 36 -82t89 -31t90 31t37 82
t-37 82.5t-90 31.5zM389 -326q65 0 108.5 38.5t43.5 97.5q0 58 -43.5 96.5t-108.5 38.5t-108 -38.5t-43 -96.5q0 -60 43 -98t108 -38z" />
    <glyph glyph-name="uni2089" unicode="&#x2089;" horiz-adv-x="749" 
d="M373 459q147 0 241.5 -94t94.5 -226q0 -98 -60 -202l-235 -408h-195l180 311q-31 -10 -77 -10q-120 0 -203.5 86t-83.5 215q0 138 95 233t243 95zM373 -29q70 0 114.5 45.5t44.5 114.5t-45 114.5t-114 45.5q-70 0 -116 -45.5t-46 -114.5t46 -114.5t116 -45.5z" />
    <glyph glyph-name="uni208D" unicode="&#x208d;" horiz-adv-x="501" 
d="M453 -43v-158q-157 0 -245.5 83.5t-88.5 244.5v643q0 162 88.5 246t245.5 84v-160q-78 0 -125 -42.5t-47 -127.5v-643q0 -85 47 -127.5t125 -42.5z" />
    <glyph glyph-name="uni208E" unicode="&#x208e;" horiz-adv-x="501" 
d="M49 942v158q157 0 244.5 -83.5t87.5 -244.5v-643q0 -163 -87.5 -246.5t-244.5 -83.5v158q77 0 124.5 43t47.5 127v645q0 84 -47.5 127t-124.5 43z" />
    <glyph glyph-name="Euro" unicode="&#x20ac;" horiz-adv-x="1525" 
d="M1020 1255q-155 0 -281 -81.5t-188 -219.5h704l-41 -145h-704q-6 -41 -6 -82t2 -59h682l-41 -146h-604q57 -147 186.5 -235t290.5 -88q141 0 241.5 44t157.5 99v-236q-63 -51 -171.5 -88.5t-256.5 -37.5q-251 0 -443.5 151t-256.5 391h-182v146h157q-2 20 -2 59
q0 28 4 82h-159v145h188q70 232 259.5 376.5t434.5 144.5q148 0 256.5 -38t171.5 -89v-236q-56 56 -157 99.5t-242 43.5z" />
    <glyph glyph-name="uni20B4" unicode="&#x20b4;" horiz-adv-x="1462" 
d="M1112 946h240v-149h-1248v149h719q133 39 133 152q0 76 -61 123t-154 47q-100 0 -163.5 -55t-69.5 -146h-246q6 177 142 292.5t350 115.5q199 0 320.5 -97t121.5 -231q0 -117 -84 -201zM299 498h-195v151h1248v-151h-736q-129 -34 -129 -136q0 -80 66.5 -128t185.5 -48
q111 0 189 50t84 145h250q-5 -174 -148 -287.5t-383 -113.5q-232 0 -363.5 99.5t-131.5 252.5q0 100 63 166z" />
    <glyph glyph-name="uni20B8" unicode="&#x20b8;" horiz-adv-x="1222" 
d="M1124 1296h-1026v158h1026v-158zM731 0h-239v997h-394v160h1026v-160h-393v-997z" />
    <glyph glyph-name="uni20BD" unicode="&#x20bd;" horiz-adv-x="1484" 
d="M874 1454q237 0 376 -119.5t139 -339.5t-141.5 -342.5t-385.5 -122.5h-272v-137h270v-157h-270v-236h-240v236h-250v157h250v137h-250v158h250v766h524zM590 741h284q123 0 199 63.5t76 182.5q0 120 -76 184t-199 64h-284v-494z" />
    <glyph glyph-name="uni20BF" unicode="&#x20bf;" horiz-adv-x="1314" 
d="M1239 422q0 -163 -100.5 -273t-288.5 -139v-194h-145v184h-150v-184h-147v184h-258v1454h258v184h147v-184h129h21v184h145v-200q150 -31 228.5 -119t78.5 -225q0 -126 -56 -204t-149 -106q131 -23 209 -123t78 -239zM684 1249h-295v-403h295q111 0 171 51t60 152
q0 96 -61 148t-170 52zM389 205h328q133 0 206.5 59t73.5 164q0 108 -72.5 172t-199.5 64h-336v-459z" />
    <glyph glyph-name="uni2116" unicode="&#x2116;" horiz-adv-x="2424" 
d="M1966 692q-173 0 -286 110t-113 279q0 168 113 278.5t286 110.5q174 0 287.5 -110.5t113.5 -278.5q0 -169 -114 -279t-287 -110zM375 1454l764 -1081q-9 84 -11 292t-2 789h234v-1454h-223l-764 1073q12 -138 12 -1073h-235v1454h225zM1966 1303q-94 0 -157.5 -63.5
t-63.5 -158.5t63.5 -158t157.5 -63q97 0 161 63t64 158q0 96 -63.5 159t-161.5 63zM2335 410h-733v172h733v-172z" />
    <glyph glyph-name="trademark" unicode="&#x2122;" horiz-adv-x="1712" 
d="M279 1303h-205v151h573v-151h-203v-609h-165v609zM1133 1133l243 321h156v-760h-166q0 288 4 398t19 165q-35 -69 -90 -145t-166 -213q-107 131 -162.5 210.5t-96.5 158.5q18 -56 22.5 -163t4.5 -411h-168v760h158z" />
    <glyph glyph-name="uni2153" unicode="&#x2153;" horiz-adv-x="1837" 
d="M434 694h195v-155h-563v155h192v568l-186 -50v158l362 84v-760zM442 0l664 1454h197l-666 -1454h-195zM1649 481q129 -71 129 -215q0 -118 -86.5 -198t-237.5 -80q-158 0 -252 87t-94 224h172q0 -73 48 -115.5t118 -42.5q67 0 110 37t43 96q0 36 -16 61.5t-43 37.5
t-53 17t-55 5h-72v152h76q61 0 96 30t35 80q0 53 -37.5 85t-95.5 32q-62 0 -104 -39t-42 -106h-172q0 130 88.5 215.5t237.5 85.5q135 0 218 -68t83 -182q0 -126 -94 -199z" />
    <glyph glyph-name="uni2154" unicode="&#x2154;" horiz-adv-x="1927" 
d="M250 707h455v-168h-639v118q0 67 25.5 122t66 92.5t89.5 69.5t98 58.5t89.5 52.5t66 59.5t25.5 72.5q0 51 -37 87t-98 36q-64 0 -104 -40t-43 -108h-178q0 132 93.5 220.5t231.5 88.5q133 0 222 -75.5t89 -206.5q0 -63 -22 -114.5t-58.5 -86t-80.5 -63t-91 -51.5t-87 -46
t-71 -53t-42 -65zM532 0l664 1454h197l-666 -1454h-195zM1739 481q129 -71 129 -215q0 -118 -86.5 -198t-237.5 -80q-158 0 -252 87t-94 224h172q0 -73 48 -115.5t118 -42.5q68 0 111 37.5t43 95.5q0 36 -16.5 61.5t-43.5 37.5t-53 17t-55 5h-72v152h76q61 0 96 30t35 80
q0 53 -37.5 85t-95.5 32q-62 0 -104 -39t-42 -106h-172q0 130 88.5 215.5t237.5 85.5q135 0 218 -68t83 -182q0 -126 -94 -199z" />
    <glyph glyph-name="oneeighth" unicode="&#x215b;" horiz-adv-x="1832" 
d="M434 694h195v-155h-563v155h192v568l-186 -50v158l362 84v-760zM442 0l664 1454h197l-666 -1454h-195zM1649 487q123 -72 123 -215q0 -124 -92.5 -205t-235.5 -81q-141 0 -233.5 81t-92.5 205q0 65 30.5 122t90.5 93q-88 66 -88 183q0 113 84 184.5t211 71.5
q125 0 209 -72t84 -184q0 -120 -90 -183zM1446 780q-52 0 -88.5 -31t-36.5 -83q0 -51 36 -82t89 -31t90 31t37 82t-37 82.5t-90 31.5zM1446 145q65 0 108 38t43 98q0 58 -43 96.5t-108 38.5t-108.5 -38.5t-43.5 -96.5q0 -59 43.5 -97.5t108.5 -38.5z" />
    <glyph glyph-name="threeeighths" unicode="&#x215c;" horiz-adv-x="1927" 
d="M721 805q0 -118 -86.5 -198.5t-237.5 -80.5q-157 0 -251.5 87.5t-94.5 224.5h172q0 -73 48 -115.5t118 -42.5q68 0 111 37.5t43 95.5q0 36 -16.5 61.5t-43.5 37.5t-53 17t-55 5h-72v151h76q61 0 96 30.5t35 80.5q0 53 -37.5 85t-95.5 32q-62 0 -104 -39.5t-42 -106.5
h-172q0 130 88.5 215.5t237.5 85.5q135 0 218 -67.5t83 -181.5q0 -126 -94 -199q129 -71 129 -215zM537 0l663 1454h197l-666 -1454h-194zM1743 487q123 -72 123 -215q0 -124 -92.5 -205t-235.5 -81q-141 0 -233.5 81t-92.5 205q0 65 30.5 122t90.5 93q-88 66 -88 183
q0 113 84 184.5t211 71.5q125 0 209 -72t84 -184q0 -120 -90 -183zM1540 780q-52 0 -88.5 -31t-36.5 -83q0 -51 36 -82t89 -31t90 31t37 82t-37 82.5t-90 31.5zM1540 145q65 0 108.5 38.5t43.5 97.5q0 58 -43.5 96.5t-108.5 38.5t-108 -38.5t-43 -96.5q0 -60 43 -98t108 -38
z" />
    <glyph glyph-name="fiveeighths" unicode="&#x215d;" horiz-adv-x="1941" 
d="M739 856q0 -138 -93 -234t-243 -96q-151 0 -244 89t-93 210h176q5 -58 50 -97.5t111 -39.5t113 45t47 117t-45.5 117t-114.5 45q-47 0 -91.5 -26t-63.5 -71h-174l82 539h520v-156h-379l-29 -194q65 59 174 59q131 0 214 -86t83 -221zM551 0l663 1454h197l-666 -1454h-194
zM1757 487q123 -72 123 -215q0 -124 -92.5 -205t-235.5 -81q-141 0 -233 81t-92 205q0 65 30.5 122t90.5 93q-88 66 -88 183q0 113 83.5 184.5t210.5 71.5q125 0 209 -72t84 -184q0 -120 -90 -183zM1554 780q-52 0 -88 -31t-36 -83q0 -51 35.5 -82t88.5 -31t90 31t37 82
t-37 82.5t-90 31.5zM1554 145q65 0 108.5 38.5t43.5 97.5q0 58 -43.5 96.5t-108.5 38.5t-108 -38.5t-43 -96.5q0 -60 43 -98t108 -38z" />
    <glyph glyph-name="seveneighths" unicode="&#x215e;" horiz-adv-x="1748" 
d="M23 1454h628v-133l-321 -782h-189l320 759h-438v156zM358 0l664 1454h197l-666 -1454h-195zM1565 487q123 -72 123 -215q0 -124 -92.5 -205t-235.5 -81q-141 0 -233.5 81t-92.5 205q0 65 30.5 122t90.5 93q-88 66 -88 183q0 113 84 184.5t211 71.5q125 0 209 -72t84 -184
q0 -120 -90 -183zM1362 780q-52 0 -88.5 -31t-36.5 -83q0 -51 36 -82t89 -31t90 31t37 82t-37 82.5t-90 31.5zM1362 145q65 0 108 38t43 98q0 58 -43 96.5t-108 38.5t-108.5 -38.5t-43.5 -96.5q0 -59 43.5 -97.5t108.5 -38.5z" />
    <glyph glyph-name="arrowleft" unicode="&#x2190;" horiz-adv-x="1589" 
d="M1511 676v-213q-607 0 -805.5 2.5t-293.5 13.5l483 -481h-266l-574 569l572 572l268 -2l-481 -478q98 10 319 13.5t778 3.5z" />
    <glyph glyph-name="arrowup" unicode="&#x2191;" horiz-adv-x="1343" 
d="M670 1470l600 -600v-266l-508 512q11 -93 13.5 -293.5t2.5 -822.5h-213q0 598 3 808.5t14 305.5l-506 -510l-4 266z" />
    <glyph glyph-name="arrowright" unicode="&#x2192;" horiz-adv-x="1589" 
d="M694 1139h267l573 -570l-571 -571l-269 2l484 479q-93 -11 -292 -13.5t-808 -2.5v211q586 0 794.5 -2.5t303.5 -12.5z" />
    <glyph glyph-name="arrowdown" unicode="&#x2193;" horiz-adv-x="1343" 
d="M760 342l508 510l2 -264l-598 -600l-600 600l2 266l508 -510q-12 98 -15.5 318.5t-3.5 793.5h213q0 -620 -2.5 -820.5t-13.5 -293.5z" />
    <glyph glyph-name="arrowboth" unicode="&#x2194;" horiz-adv-x="2015" 
d="M1120 1139h269l571 -572l-574 -567h-266l475 473q-139 -11 -590.5 -11t-586.5 11l475 -473h-266l-574 567l572 572h268l-473 -473q141 10 584.5 10t588.5 -10z" />
    <glyph glyph-name="arrowupdn" unicode="&#x2195;" horiz-adv-x="1150" 
d="M578 1489l473 -395v-232q-278 231 -375 320q6 -153 5.5 -449t-7.5 -448q85 78 377 319v-231l-473 -396h-5l-471 396v231q322 -268 375 -319q-6 164 -6 448.5t6 450.5q-57 -57 -375 -322v232l471 395h5z" />
    <glyph glyph-name="uni2196" unicode="&#x2196;" horiz-adv-x="1325" 
d="M1268 287l-150 -152q-412 412 -563.5 568t-212.5 233l4 -721l-190 188v848l848 -2l184 -190l-717 4q75 -61 224 -206.5t573 -569.5z" />
    <glyph glyph-name="uni2197" unicode="&#x2197;" horiz-adv-x="1325" 
d="M137 1059l187 190l845 2v-848l-188 -188l2 721q-60 -77 -212 -234t-564 -567l-150 152q407 407 564.5 560t234.5 216z" />
    <glyph glyph-name="uni2198" unicode="&#x2198;" horiz-adv-x="1325" 
d="M983 557l-2 721l188 -188v-848l-845 2l-187 190l719 -4q-77 63 -234.5 216t-564.5 560l150 152q412 -410 564 -567t212 -234z" />
    <glyph glyph-name="uni2199" unicode="&#x2199;" horiz-adv-x="1325" 
d="M1118 1356l150 -152q-424 -424 -573 -569.5t-224 -206.5l717 4l-184 -190l-848 -2v847l190 189l-4 -721q61 77 212.5 233t563.5 568z" />
    <glyph glyph-name="partialdiff" unicode="&#x2202;" horiz-adv-x="1224" 
d="M653 1456l385 -647q101 -170 101 -330q0 -101 -39 -192.5t-107 -159t-168 -107.5t-215 -40q-153 0 -273.5 68.5t-185.5 185.5t-65 260q0 208 132 343.5t327 135.5q80 0 147 -25l-301 506zM610 205q124 0 206.5 82.5t82.5 206.5q0 125 -81.5 206.5t-207.5 81.5
q-123 0 -204.5 -82t-81.5 -206t81.5 -206.5t204.5 -82.5z" />
    <glyph glyph-name="emptyset" unicode="&#x2205;" horiz-adv-x="1652" 
d="M1526 1495l-172 -229q103 -103 159 -241.5t56 -297.5q0 -211 -96 -382t-265.5 -268t-378.5 -97q-199 0 -366 90l-82 -111h-256l174 236q-100 101 -154.5 238t-54.5 294q0 158 56 297t154 238t235 156t294 57q196 0 359 -86l80 106h258zM330 727q0 -199 114 -338l605 811
q-104 49 -220 49q-142 0 -257 -70t-178.5 -189.5t-63.5 -262.5zM829 205q142 0 257 70t179 189.5t64 262.5q0 200 -119 344l-606 -813q100 -53 225 -53z" />
    <glyph glyph-name="product" unicode="&#x220f;" horiz-adv-x="1232" 
d="M59 1454h1115v-190h-183v-1264h-225v1264h-299v-1264h-227v1264h-181v190z" />
    <glyph glyph-name="summation" unicode="&#x2211;" horiz-adv-x="1081" 
d="M90 1454h905v-203h-671q25 -26 53.5 -58t50.5 -58t64 -80t64.5 -82.5t84 -109t92.5 -120.5q-58 -76 -136.5 -181.5t-115 -154.5t-82.5 -106t-84 -98h680v-203h-905v176l387 565l-387 535v178z" />
    <glyph glyph-name="minus" unicode="&#x2212;" horiz-adv-x="1175" 
d="M164 444v213h813v-213h-813z" />
    <glyph glyph-name="radical" unicode="&#x221a;" horiz-adv-x="1355" 
d="M805 1536h493v-190h-313l-354 -1346h-260l-303 1063h237q168 -634 195 -821q14 107 72 354.5t233 939.5z" />
    <glyph glyph-name="infinity" unicode="&#x221e;" horiz-adv-x="1648" 
d="M1153 1038q162 0 268.5 -107.5t106.5 -266.5q0 -157 -106.5 -262t-268.5 -105q-111 0 -198 49.5t-138 134.5q-60 -95 -137 -139.5t-184 -44.5q-161 0 -268 106.5t-107 266.5q0 157 107 262.5t268 105.5q119 0 207.5 -49t136.5 -137q61 95 136 140.5t177 45.5zM500 481
q139 0 215 146l18 32l-16 33q-37 78 -88 120t-129 42q-86 0 -139.5 -53t-53.5 -131q0 -81 53.5 -135t139.5 -54zM1149 481q86 0 139 53t53 130q0 80 -53 135t-139 55q-73 0 -123 -41.5t-92 -122.5l-10 -20l12 -29q75 -160 213 -160z" />
    <glyph glyph-name="integral" unicode="&#x222b;" horiz-adv-x="784" 
d="M182 -485q-73 0 -127 26v191q35 -21 72 -21q75 0 111 41t36 133v1301q0 96 28 168.5t75.5 114t104 61.5t120.5 20q71 0 129 -26v-191q-40 21 -74 21q-75 0 -111 -41t-36 -133v-1301q0 -96 -28 -168.5t-75.5 -114t-104 -61.5t-120.5 -20z" />
    <glyph glyph-name="approxequal" unicode="&#x2248;" horiz-adv-x="1191" 
d="M295 694l-164 49q13 99 81.5 170.5t178.5 71.5q53 0 113 -20.5t104 -45t92.5 -45t81.5 -20.5q91 0 109 107l170 -50q-17 -109 -86.5 -175t-171.5 -66q-66 0 -144.5 33t-146 65.5t-106.5 32.5q-89 0 -111 -107zM295 279l-164 49q13 98 81.5 169.5t178.5 71.5
q53 0 113 -20.5t104 -45t92.5 -45t81.5 -20.5q91 0 109 107l170 -51q-17 -109 -87 -175.5t-171 -66.5q-52 0 -113 21t-106.5 45.5t-95.5 45.5t-82 21q-89 0 -111 -106z" />
    <glyph glyph-name="notequal" unicode="&#x2260;" horiz-adv-x="1175" 
d="M993 848v-199h-272l-72 -194h344v-199h-420l-63 -172h-191l64 172h-203v199h279l71 194h-350v199h426l62 166h190l-61 -166h196z" />
    <glyph glyph-name="lessequal" unicode="&#x2264;" horiz-adv-x="1030" 
d="M94 883l813 309v-205q-51 -20 -117 -45t-100.5 -38.5t-81 -31t-70.5 -26.5t-55 -20.5t-48.5 -17.5t-38 -12.5t-36 -10.5t-30.5 -7q16 -4 31.5 -8.5t37 -11.5t38.5 -13t49 -18t55 -20.5t70 -26.5t80.5 -30.5t100 -38t115.5 -44.5v-205l-813 310v211zM907 78h-813v211h813
v-211z" />
    <glyph glyph-name="greaterequal" unicode="&#x2265;" horiz-adv-x="1030" 
d="M123 987v205l813 -309v-211l-813 -310v205q304 119 408 157t171 52q-90 25 -491 177q-57 22 -88 34zM936 78h-813v211h813v-211z" />
    <glyph glyph-name="uni2460" unicode="&#x2460;" horiz-adv-x="1802" 
d="M901 -70q-167 0 -316.5 62.5t-257 169t-170.5 255t-63 314.5t63 315t170.5 256t257 169.5t316.5 62.5t317 -62.5t258 -169.5t171 -256t63 -315t-63 -314.5t-171 -255t-258 -169t-317 -62.5zM901 70q135 0 256.5 51.5t209 139.5t138.5 210.5t51 259.5t-51 259.5
t-138.5 211t-209 140t-256.5 51.5t-256.5 -51.5t-208 -140t-137.5 -211t-51 -259.5q0 -183 86 -334.5t236 -239t331 -87.5zM1186 285h-563v155h192v568l-186 -50v158l362 84v-760h195v-155z" />
    <glyph glyph-name="uni2461" unicode="&#x2461;" horiz-adv-x="1802" 
d="M901 1534q167 0 317 -62.5t258 -169.5t171 -256t63 -315t-63 -314.5t-171 -255t-258 -169t-317 -62.5t-316.5 62.5t-257 169t-170.5 255t-63 314.5t63 315t170.5 256t257 169.5t316.5 62.5zM901 70q135 0 256.5 51.5t209 139.5t138.5 210.5t51 259.5t-51 259.5
t-138.5 211t-209 140t-256.5 51.5t-256.5 -51.5t-208 -140t-137.5 -211t-51 -259.5q0 -183 86 -334.5t236 -239t331 -87.5zM1212 932q0 -63 -22 -114.5t-58.5 -86t-80.5 -63t-91 -51.5t-87 -46t-71 -53t-42 -65h454v-168h-639v118q0 67 25.5 122t66 92.5t90 69.5t98.5 58.5
t89.5 52.5t66 59.5t25.5 72.5q0 51 -37 87t-98 36q-64 0 -104 -40t-43 -108h-179q0 132 94 220.5t232 88.5q133 0 222 -75.5t89 -206.5z" />
    <glyph glyph-name="uni2462" unicode="&#x2462;" horiz-adv-x="1802" 
d="M901 1534q167 0 317 -62.5t258 -169.5t171 -256t63 -315t-63 -314.5t-171 -255t-258 -169t-317 -62.5t-316.5 62.5t-257 169t-170.5 255t-63 314.5t63 315t170.5 256t257 169.5t316.5 62.5zM901 70q135 0 256.5 51.5t209 139.5t138.5 210.5t51 259.5t-51 259.5
t-138.5 211t-209 140t-256.5 51.5t-256.5 -51.5t-208 -140t-137.5 -211t-51 -259.5q0 -183 86 -334.5t236 -239t331 -87.5zM1102 766q129 -71 129 -215q0 -118 -86.5 -198.5t-237.5 -80.5q-157 0 -251.5 87.5t-94.5 224.5h172q0 -73 48 -115.5t118 -42.5q68 0 111 37.5
t43 95.5q0 36 -16.5 61.5t-43.5 37.5t-53 17t-55 5h-72v151h76q61 0 96 30.5t35 80.5q0 53 -37.5 85t-95.5 32q-62 0 -104 -39.5t-42 -106.5h-172q0 130 88.5 215.5t237.5 85.5q135 0 218 -67.5t83 -181.5q0 -126 -94 -199z" />
    <glyph glyph-name="uni2463" unicode="&#x2463;" horiz-adv-x="1802" 
d="M901 1534q167 0 317 -62.5t258 -169.5t171 -256t63 -315t-63 -314.5t-171 -255t-258 -169t-317 -62.5t-316.5 62.5t-257 169t-170.5 255t-63 314.5t63 315t170.5 256t257 169.5t316.5 62.5zM901 70q135 0 256.5 51.5t209 139.5t138.5 210.5t51 259.5t-51 259.5
t-138.5 211t-209 140t-256.5 51.5t-256.5 -51.5t-208 -140t-137.5 -211t-51 -259.5q0 -183 86 -334.5t236 -239t331 -87.5zM915 1200h162v-596h129v-141h-129v-178h-172v178h-416v121zM674 604h231q0 255 23 420q-96 -191 -254 -420z" />
    <glyph glyph-name="uni2464" unicode="&#x2464;" horiz-adv-x="1802" 
d="M901 -70q-167 0 -316.5 62.5t-257 169t-170.5 255t-63 314.5t63 315t170.5 256t257 169.5t316.5 62.5t317 -62.5t258 -169.5t171 -256t63 -315t-63 -314.5t-171 -255t-258 -169t-317 -62.5zM901 70q135 0 256.5 51.5t209 139.5t138.5 210.5t51 259.5t-51 259.5
t-138.5 211t-209 140t-256.5 51.5t-256.5 -51.5t-208 -140t-137.5 -211t-51 -259.5q0 -183 86 -334.5t236 -239t331 -87.5zM895 272q-151 0 -244.5 89t-93.5 210h176q5 -58 50.5 -97.5t111.5 -39.5t113 45t47 117t-45.5 117t-114.5 45q-47 0 -92 -25.5t-64 -70.5h-174
l82 538h520v-156h-379l-28 -194q65 59 174 59q131 0 214 -86t83 -221q0 -138 -93 -234t-243 -96z" />
    <glyph glyph-name="uni2465" unicode="&#x2465;" horiz-adv-x="1802" 
d="M901 1534q167 0 317 -62.5t258 -169.5t171 -256t63 -315t-63 -314.5t-171 -255t-258 -169t-317 -62.5t-316.5 62.5t-257 169t-170.5 255t-63 314.5t63 315t170.5 256t257 169.5t316.5 62.5zM901 70q135 0 256.5 51.5t209 139.5t138.5 210.5t51 259.5t-51 259.5
t-138.5 211t-209 140t-256.5 51.5t-256.5 -51.5t-208 -140t-137.5 -211t-51 -259.5q0 -183 86 -334.5t236 -239t331 -87.5zM946 899q120 0 202.5 -85t82.5 -214q0 -139 -94 -233.5t-242 -94.5t-243 93t-95 225q0 102 61 205l236 405h195l-181 -311q38 10 78 10zM895 438
q70 0 115 45.5t45 116.5q0 70 -44.5 115t-115.5 45t-116.5 -45t-45.5 -115t46.5 -116t115.5 -46z" />
    <glyph glyph-name="uni2466" unicode="&#x2466;" horiz-adv-x="1802" 
d="M901 -70q-167 0 -316.5 62.5t-257 169t-170.5 255t-63 314.5t63 315t170.5 256t257 169.5t316.5 62.5t317 -62.5t258 -169.5t171 -256t63 -315t-63 -314.5t-171 -255t-258 -169t-317 -62.5zM901 70q135 0 256.5 51.5t209 139.5t138.5 210.5t51 259.5t-51 259.5
t-138.5 211t-209 140t-256.5 51.5t-256.5 -51.5t-208 -140t-137.5 -211t-51 -259.5q0 -183 86 -334.5t236 -239t331 -87.5zM1210 1200v-133l-321 -782h-189l320 759h-438v156h628z" />
    <glyph glyph-name="uni2467" unicode="&#x2467;" horiz-adv-x="1802" 
d="M901 1534q167 0 317 -62.5t258 -169.5t171 -256t63 -315t-63 -314.5t-171 -255t-258 -169t-317 -62.5t-316.5 62.5t-257 169t-170.5 255t-63 314.5t63 315t170.5 256t257 169.5t316.5 62.5zM901 70q135 0 256.5 51.5t209 139.5t138.5 210.5t51 259.5t-51 259.5
t-138.5 211t-209 140t-256.5 51.5t-256.5 -51.5t-208 -140t-137.5 -211t-51 -259.5q0 -183 86 -334.5t236 -239t331 -87.5zM1100 772q123 -72 123 -215q0 -125 -93 -206t-235 -81q-141 0 -233.5 81.5t-92.5 205.5q0 65 30.5 122t90.5 93q-88 66 -88 182q0 113 84 184.5
t211 71.5q125 0 209 -72t84 -184q0 -119 -90 -182zM897 1065q-52 0 -88.5 -31.5t-36.5 -83.5q0 -51 36 -81.5t89 -30.5t90 30.5t37 81.5t-37 83t-90 32zM897 430q65 0 108.5 38t43.5 97q0 58 -43.5 96.5t-108.5 38.5t-108.5 -38.5t-43.5 -96.5q0 -59 43.5 -97t108.5 -38z
" />
    <glyph glyph-name="uni2468" unicode="&#x2468;" horiz-adv-x="1802" 
d="M901 1534q167 0 317 -62.5t258 -169.5t171 -256t63 -315t-63 -314.5t-171 -255t-258 -169t-317 -62.5t-316.5 62.5t-257 169t-170.5 255t-63 314.5t63 315t170.5 256t257 169.5t316.5 62.5zM901 70q135 0 256.5 51.5t209 139.5t138.5 210.5t51 259.5t-51 259.5
t-138.5 211t-209 140t-256.5 51.5t-256.5 -51.5t-208 -140t-137.5 -211t-51 -259.5q0 -183 86 -334.5t236 -239t331 -87.5zM895 1214q147 0 241.5 -93.5t94.5 -225.5q0 -99 -60 -203l-235 -407h-195l181 311q-31 -10 -78 -10q-120 0 -203.5 86t-83.5 215q0 138 95 232.5
t243 94.5zM895 727q70 0 115 45.5t45 114.5t-45.5 114.5t-114.5 45.5q-70 0 -116 -45.5t-46 -114.5t46 -114.5t116 -45.5z" />
    <glyph glyph-name="uni24EA" unicode="&#x24ea;" horiz-adv-x="1802" 
d="M901 -70q-167 0 -316.5 62.5t-257 169t-170.5 255t-63 314.5t63 315t170.5 256t257 169.5t316.5 62.5t317 -62.5t258 -169.5t171 -256t63 -315t-63 -314.5t-171 -255t-258 -169t-317 -62.5zM901 70q135 0 256.5 51.5t209 139.5t138.5 210.5t51 259.5t-51 259.5
t-138.5 211t-209 140t-256.5 51.5t-256.5 -51.5t-208 -140t-137.5 -211t-51 -259.5q0 -183 86 -334.5t236 -239t331 -87.5zM895 272q-93 0 -172.5 37t-131.5 115t-52 184v269q0 81 30.5 146.5t81 106t113.5 62.5t131 22q146 0 252 -90t106 -247v-269q0 -157 -106 -246.5
t-252 -89.5zM895 438q75 0 127.5 46.5t52.5 123.5v269q0 77 -52.5 123.5t-127.5 46.5q-74 0 -127 -46.5t-53 -123.5v-269q0 -77 53 -123.5t127 -46.5z" />
    <glyph glyph-name="uni24FF" unicode="&#x24ff;" horiz-adv-x="1740" 
d="M868 -39q-214 0 -391.5 102.5t-280 280t-102.5 391.5q0 160 60.5 304t163.5 247.5t246.5 164t303.5 60.5q161 0 305.5 -60.5t248 -164t164.5 -247.5t61 -304t-61 -303.5t-164.5 -246.5t-248 -163.5t-305.5 -60.5zM866 274q94 0 174 37t132.5 115t52.5 184v269
q0 157 -106.5 247.5t-252.5 90.5q-92 0 -171.5 -37t-132 -115.5t-52.5 -185.5v-269q0 -106 52 -184t131.5 -115t172.5 -37zM866 440q-74 0 -127 46.5t-53 123.5v269q0 77 53 123.5t127 46.5q75 0 128 -46.5t53 -123.5v-269q0 -77 -53 -123.5t-128 -46.5z" />
    <glyph glyph-name="filledbox" unicode="&#x25a0;" horiz-adv-x="1767" 
d="M1296 0h-823q-133 0 -225 91.5t-92 223.5v824q0 132 92 223.5t225 91.5h823q132 0 224 -91.5t92 -223.5v-824q0 -132 -92 -223.5t-224 -91.5z" />
    <glyph glyph-name="uni25A1" unicode="&#x25a1;" horiz-adv-x="1837" 
d="M1331 -33h-823q-157 0 -254.5 97.5t-97.5 254.5v838q0 155 97.5 252.5t254.5 97.5h823q157 0 254.5 -97.5t97.5 -252.5v-838q0 -157 -97.5 -254.5t-254.5 -97.5zM508 109h823q93 0 145 55.5t52 154.5v838q0 98 -52.5 154.5t-144.5 56.5h-823q-92 0 -145.5 -56.5
t-53.5 -154.5v-838q0 -99 53 -154.5t146 -55.5z" />
    <glyph glyph-name="lozenge" unicode="&#x25ca;" horiz-adv-x="1089" 
d="M440 1507h211l377 -819l-377 -819h-211l-377 819zM545 4q30 120 86 260.5t186 423.5q-129 282 -185.5 419t-86.5 245q-31 -110 -88 -250t-183 -414q128 -282 184.5 -423t86.5 -261z" />
    <glyph glyph-name="circle" unicode="&#x25cb;" horiz-adv-x="1802" 
d="M901 -70q-167 0 -316.5 62.5t-257 169t-170.5 255t-63 314.5t63 315t170.5 256t257 169.5t316.5 62.5t317 -62.5t258 -169.5t171 -256t63 -315t-63 -314.5t-171 -255t-258 -169t-317 -62.5zM901 70q135 0 256.5 51.5t209 139.5t138.5 210.5t51 259.5t-51 259.5
t-138.5 211t-209 140t-256.5 51.5t-256.5 -51.5t-208 -140t-137.5 -211t-51 -259.5q0 -183 86 -334.5t236 -239t331 -87.5z" />
    <glyph glyph-name="uni25CF" unicode="&#x25cf;" horiz-adv-x="1740" 
d="M868 -39q-214 0 -391.5 102.5t-280 280t-102.5 391.5q0 160 60.5 304t163.5 247.5t246.5 164t303.5 60.5q161 0 305.5 -60.5t248 -164t164.5 -247.5t61 -304t-61 -303.5t-164.5 -246.5t-248 -163.5t-305.5 -60.5z" />
    <glyph glyph-name="smileface" unicode="&#x263a;" horiz-adv-x="1802" 
d="M901 -70q-167 0 -316.5 62.5t-257 169t-170.5 255t-63 314.5t63 315t170.5 256t257 169.5t316.5 62.5t317 -62.5t258 -169.5t171 -256t63 -315t-63 -314.5t-171 -255t-258 -169t-317 -62.5zM901 70q135 0 256.5 51.5t209 139.5t138.5 210.5t51 259.5t-51 259.5
t-138.5 211t-209 140t-256.5 51.5t-256.5 -51.5t-208 -140t-137.5 -211t-51 -259.5q0 -183 86 -334.5t236 -239t331 -87.5zM662 813q-48 0 -83.5 35t-35.5 84q0 47 36 82t83 35q50 0 84 -34t34 -83q0 -50 -34.5 -84.5t-83.5 -34.5zM1153 813q-47 0 -83 36t-36 83t36.5 82
t82.5 35t81.5 -35t35.5 -82q0 -46 -35 -82.5t-82 -36.5zM901 330q-165 0 -267.5 101.5t-103.5 266.5h146q0 -101 60.5 -160t164.5 -59t164.5 59t60.5 160h148q-3 -166 -105 -267t-268 -101z" />
    <glyph glyph-name="invsmileface" unicode="&#x263b;" horiz-adv-x="1804" 
d="M901 -70q-167 0 -316.5 62.5t-257 169t-170.5 255t-63 314.5t63 315t170.5 256t257 169.5t316.5 62.5q168 0 318 -62.5t257.5 -169.5t170.5 -256t63 -315t-63 -314.5t-170.5 -255t-257.5 -169t-318 -62.5zM655 840q50 0 84.5 34.5t34.5 83.5t-34.5 83t-84.5 34
q-47 0 -82.5 -35t-35.5 -82q0 -49 35 -83.5t83 -34.5zM1159 840q47 0 83 36t36 82q0 47 -36 82t-83 35q-46 0 -81.5 -35t-35.5 -82t35.5 -82.5t81.5 -35.5zM901 317q172 0 277.5 101.5t107.5 267.5h-147q2 -106 -62 -166.5t-176 -60.5q-109 0 -173.5 61.5t-63.5 165.5h-146
q1 -165 107.5 -267t275.5 -102z" />
    <glyph glyph-name="uni2776" unicode="&#x2776;" horiz-adv-x="1740" 
d="M868 -39q-214 0 -391.5 102.5t-280 280t-102.5 391.5q0 160 60.5 304t163.5 247.5t246.5 164t303.5 60.5q161 0 305.5 -60.5t248 -164t164.5 -247.5t61 -304t-61 -303.5t-164.5 -246.5t-248 -163.5t-305.5 -60.5zM596 442v-155h563v155h-194v760l-363 -84v-157l186 49
v-568h-192z" />
    <glyph glyph-name="uni2777" unicode="&#x2777;" horiz-adv-x="1740" 
d="M868 -39q-214 0 -391.5 102.5t-280 280t-102.5 391.5q0 160 60.5 304t163.5 247.5t246.5 164t303.5 60.5q161 0 305.5 -60.5t248 -164t164.5 -247.5t61 -304t-61 -303.5t-164.5 -246.5t-248 -163.5t-305.5 -60.5zM547 406v-119h639v168h-455q11 35 42 64.5t71.5 52t87 46
t91 52t81 63t58.5 86t22 115.5q0 131 -89.5 207t-222.5 76q-138 0 -231.5 -89t-93.5 -221h178q3 68 43 108t104 40q61 0 98.5 -36t37.5 -87q0 -39 -25.5 -72.5t-66 -59.5t-89.5 -52.5t-98.5 -58t-90 -69t-66 -92.5t-25.5 -122z" />
    <glyph glyph-name="uni2778" unicode="&#x2778;" horiz-adv-x="1740" 
d="M868 -39q-214 0 -391.5 102.5t-280 280t-102.5 391.5q0 160 60.5 304t163.5 247.5t246.5 164t303.5 60.5q161 0 305.5 -60.5t248 -164t164.5 -247.5t61 -304t-61 -303.5t-164.5 -246.5t-248 -163.5t-305.5 -60.5zM881 274q151 0 237 80.5t86 198.5q0 147 -129 215
q94 74 94 199q0 114 -83 182t-218 68q-148 0 -236.5 -86t-88.5 -216h172q0 67 41.5 106.5t103.5 39.5q58 0 95.5 -32t37.5 -85q0 -50 -35 -80t-96 -30h-76v-152h72q29 0 55 -5t53 -17t43.5 -37.5t16.5 -61.5q0 -58 -43 -95.5t-111 -37.5q-69 0 -117 42.5t-48 115.5h-172
q0 -137 94.5 -224.5t251.5 -87.5z" />
    <glyph glyph-name="uni2779" unicode="&#x2779;" horiz-adv-x="1740" 
d="M868 -39q-214 0 -391.5 102.5t-280 280t-102.5 391.5q0 160 60.5 304t163.5 247.5t246.5 164t303.5 60.5q161 0 305.5 -60.5t248 -164t164.5 -247.5t61 -304t-61 -303.5t-164.5 -246.5t-248 -163.5t-305.5 -60.5zM879 465v-178h172v178h129v141h-129v596h-162l-426 -616
v-121h416zM879 606h-232q154 224 254 422q-22 -158 -22 -422z" />
    <glyph glyph-name="uni277A" unicode="&#x277a;" horiz-adv-x="1740" 
d="M868 -39q-214 0 -391.5 102.5t-280 280t-102.5 391.5q0 160 60.5 304t163.5 247.5t246.5 164t303.5 60.5q161 0 305.5 -60.5t248 -164t164.5 -247.5t61 -304t-61 -303.5t-164.5 -246.5t-248 -163.5t-305.5 -60.5zM868 274q150 0 243 96t93 234q0 135 -83 221t-214 86
q-109 0 -174 -59l29 195h379v155h-520l-82 -538h174q19 45 63.5 70.5t91.5 25.5q69 0 114.5 -45t45.5 -117t-47 -117t-113 -45t-111 39.5t-50 97.5h-177q0 -121 93.5 -210t244.5 -89z" />
    <glyph glyph-name="uni277B" unicode="&#x277b;" horiz-adv-x="1740" 
d="M868 -39q-214 0 -391.5 102.5t-280 280t-102.5 391.5q0 160 60.5 304t163.5 247.5t246.5 164t303.5 60.5q161 0 305.5 -60.5t248 -164t164.5 -247.5t61 -304t-61 -303.5t-164.5 -246.5t-248 -163.5t-305.5 -60.5zM868 274q148 0 242 94.5t94 233.5q0 129 -82 214t-202 85
q-49 0 -78 -10l180 311h-195l-235 -405q-62 -105 -62 -205q0 -132 95 -225t243 -93zM868 440q-69 0 -115 46t-46 116t45 115t116 45q70 0 115 -45t45 -115q0 -71 -45 -116.5t-115 -45.5z" />
    <glyph glyph-name="uni277C" unicode="&#x277c;" horiz-adv-x="1740" 
d="M868 -39q-214 0 -391.5 102.5t-280 280t-102.5 391.5q0 160 60.5 304t163.5 247.5t246.5 164t303.5 60.5q161 0 305.5 -60.5t248 -164t164.5 -247.5t61 -304t-61 -303.5t-164.5 -246.5t-248 -163.5t-305.5 -60.5zM993 1047l-319 -760h188l322 782v133h-629v-155h438z" />
    <glyph glyph-name="uni277D" unicode="&#x277d;" horiz-adv-x="1740" 
d="M868 -39q-214 0 -391.5 102.5t-280 280t-102.5 391.5q0 160 60.5 304t163.5 247.5t246.5 164t303.5 60.5q161 0 305.5 -60.5t248 -164t164.5 -247.5t61 -304t-61 -303.5t-164.5 -246.5t-248 -163.5t-305.5 -60.5zM868 272q142 0 235 81t93 206q0 144 -123 213
q90 66 90 184q0 112 -84 184t-209 72q-127 0 -211 -71.5t-84 -184.5q0 -115 89 -182q-60 -37 -90.5 -93.5t-30.5 -121.5q0 -125 92 -206t233 -81zM870 840q-53 0 -89 30.5t-36 81.5q0 52 36.5 83.5t88.5 31.5q53 0 90 -32t37 -83t-37 -81.5t-90 -30.5zM870 432
q-65 0 -108 38t-43 97q0 58 43 96.5t108 38.5t108.5 -38.5t43.5 -96.5q0 -59 -43.5 -97t-108.5 -38z" />
    <glyph glyph-name="uni277E" unicode="&#x277e;" horiz-adv-x="1740" 
d="M868 -39q-214 0 -391.5 102.5t-280 280t-102.5 391.5q0 160 60.5 304t163.5 247.5t246.5 164t303.5 60.5q161 0 305.5 -60.5t248 -164t164.5 -247.5t61 -304t-61 -303.5t-164.5 -246.5t-248 -163.5t-305.5 -60.5zM895 598l-180 -311h194l236 407q59 102 59 203
q0 132 -94.5 226t-241.5 94q-148 0 -243 -95t-95 -233q0 -129 83.5 -215t203.5 -86q44 0 78 10zM868 729q-70 0 -115.5 45.5t-45.5 114.5t45.5 114.5t115.5 45.5q69 0 114.5 -45.5t45.5 -114.5t-45 -114.5t-115 -45.5z" />
    <glyph glyph-name="Q.ss01" horiz-adv-x="1632" 
d="M1544 762q0 -79 -19.5 -160.5t-59.5 -160.5t-110.5 -143.5t-162.5 -98.5l346 4v-203h-645q-187 0 -343 56t-261.5 153t-164 230.5t-58.5 287.5q0 209 97 380.5t266.5 269.5t375.5 98q155 0 292.5 -55t235 -150t154.5 -227t57 -281zM805 223q142 0 257.5 67.5t179 183
t63.5 253.5q0 143 -63.5 262.5t-179 189.5t-257.5 70t-257 -70t-179 -189.5t-64 -262.5q0 -138 64 -253.5t179 -183t257 -67.5z" />
    <glyph glyph-name="J.ss03" horiz-adv-x="540" 
d="M193 -483l-166 170l123 831l14 936l225 -514l-59 -1106z" />
    <glyph glyph-name="T_i.dlig" horiz-adv-x="1452" 
d="M698 0h-239v1237h-396v217h1029v-217h-394v-1237zM1098 1063h235v-1063h-235v1063z" />
    <glyph glyph-name="i.loclTRK" horiz-adv-x="477" 
d="M240 1196q-58 0 -99 40t-41 97q0 59 41 99.5t99 40.5q57 0 97 -41t40 -99q0 -57 -40 -97t-97 -40zM121 1063h235v-1063h-235v1063z" />
    <glyph glyph-name="m.ss01" horiz-adv-x="1826" 
d="M1276 1085q205 0 330 -124.5t125 -356.5v-604h-234v604q0 139 -62.5 209t-164.5 70q-107 0 -173.5 -71.5t-66.5 -207.5v-604h-233v604q0 136 -66.5 207.5t-173.5 71.5q-102 0 -164.5 -70t-62.5 -209v-604h-234v604q0 232 124.5 356.5t328.5 124.5q253 0 364 -182
q53 86 144.5 134t218.5 48z" />
    <glyph glyph-name="n.ss01" horiz-adv-x="1177" 
d="M330 0h-238v588q0 233 138 365t360 132t358.5 -132t136.5 -365v-588h-237v588q0 143 -71.5 219t-186.5 76t-187.5 -76.5t-72.5 -218.5v-588z" />
    <glyph glyph-name="nacute.ss01" horiz-adv-x="1177" 
d="M678 1184h-186l161 319h248zM330 0h-238v588q0 233 138 365t360 132t358.5 -132t136.5 -365v-588h-237v588q0 143 -71.5 219t-186.5 76t-187.5 -76.5t-72.5 -218.5v-588z" />
    <glyph glyph-name="ncaron.ss01" horiz-adv-x="1177" 
d="M924 1499l-244 -319h-182l-242 319h213q52 -79 78.5 -129.5t40.5 -105.5q16 59 43.5 110t77.5 125h215zM590 1085q222 0 358.5 -132t136.5 -365v-588h-237v588q0 143 -71.5 219t-186.5 76t-187.5 -76.5t-72.5 -218.5v-588h-238v588q0 233 138 365t360 132z" />
    <glyph glyph-name="uni0146.ss01" horiz-adv-x="1177" 
d="M330 0h-238v588q0 233 138 365t360 132t358.5 -132t136.5 -365v-588h-237v588q0 143 -71.5 219t-186.5 76t-187.5 -76.5t-72.5 -218.5v-588zM377 -471l98 367h244l-158 -367h-184z" />
    <glyph glyph-name="uni0272.ss01" horiz-adv-x="1177" 
d="M590 1085q222 0 358.5 -132t136.5 -365v-588h-237v588q0 143 -71.5 219t-186.5 76t-187.5 -76.5t-72.5 -218.5v-1059h-238v1059q0 233 138 365t360 132z" />
    <glyph glyph-name="ntilde.ss01" horiz-adv-x="1177" 
d="M381 1208l-158 52q17 87 75 150t153 63q48 0 95.5 -21.5t88 -43.5t72.5 -22q34 0 53.5 22t30.5 65l165 -54q-22 -102 -80 -157.5t-147 -55.5q-52 0 -101.5 21.5t-90.5 43t-72 21.5q-34 0 -53 -22t-31 -62zM330 0h-238v588q0 233 138 365t360 132t358.5 -132t136.5 -365
v-588h-237v588q0 143 -71.5 219t-186.5 76t-187.5 -76.5t-72.5 -218.5v-588z" />
    <glyph glyph-name="eng.ss01" horiz-adv-x="1177" 
d="M590 1085q222 0 358.5 -132t136.5 -365v-1059h-237v1059q0 143 -71.5 219t-186.5 76t-187.5 -76.5t-72.5 -218.5v-588h-238v588q0 233 138 365t360 132z" />
    <glyph glyph-name="u.ss01" horiz-adv-x="1179" 
d="M848 1063h237v-588q0 -233 -137.5 -365.5t-359.5 -132.5t-359 132.5t-137 365.5v588h238v-588q0 -143 71.5 -219t186.5 -76t187.5 76.5t72.5 218.5v588z" />
    <glyph glyph-name="uacute.ss01" horiz-adv-x="1179" 
d="M676 1184h-187l162 319h248zM848 1063h237v-588q0 -233 -137.5 -365.5t-359.5 -132.5t-359 132.5t-137 365.5v588h238v-588q0 -143 71.5 -219t186.5 -76t187.5 76.5t72.5 218.5v588z" />
    <glyph glyph-name="ucircumflex.ss01" horiz-adv-x="1179" 
d="M588 1368q-43 -82 -121 -192h-213l242 317h182l244 -317h-215q-78 120 -119 192zM848 475v588h237v-588q0 -233 -137.5 -365.5t-359.5 -132.5t-359 132.5t-137 365.5v588h238v-588q0 -143 71.5 -219t186.5 -76t187.5 76.5t72.5 218.5z" />
    <glyph glyph-name="udieresis.ss01" horiz-adv-x="1179" 
d="M389 1214q-53 0 -88 35.5t-35 89.5q0 53 35 88t88 35t89 -35.5t36 -87.5q0 -54 -36 -89.5t-89 -35.5zM782 1214q-53 0 -88 35.5t-35 89.5q0 53 35.5 88t87.5 35q53 0 89 -35.5t36 -87.5q0 -54 -36 -89.5t-89 -35.5zM848 1063h237v-588q0 -233 -137.5 -365.5
t-359.5 -132.5t-359 132.5t-137 365.5v588h238v-588q0 -143 71.5 -219t186.5 -76t187.5 76.5t72.5 218.5v588z" />
    <glyph glyph-name="ugrave.ss01" horiz-adv-x="1179" 
d="M524 1503l162 -319h-186l-224 319h248zM848 1063h237v-588q0 -233 -137.5 -365.5t-359.5 -132.5t-359 132.5t-137 365.5v588h238v-588q0 -143 71.5 -219t186.5 -76t187.5 76.5t72.5 218.5v588z" />
    <glyph glyph-name="uhungarumlaut.ss01" horiz-adv-x="1179" 
d="M537 1184h-187l162 319h248zM856 1184h-186l161 319h246zM848 1063h237v-588q0 -233 -137.5 -365.5t-359.5 -132.5t-359 132.5t-137 365.5v588h238v-588q0 -143 71.5 -219t186.5 -76t187.5 76.5t72.5 218.5v588z" />
    <glyph glyph-name="umacron.ss01" horiz-adv-x="1179" 
d="M244 1214v185h686v-185h-686zM848 1063h237v-588q0 -233 -137.5 -365.5t-359.5 -132.5t-359 132.5t-137 365.5v588h238v-588q0 -143 71.5 -219t186.5 -76t187.5 76.5t72.5 218.5v588z" />
    <glyph glyph-name="uring.ss01" horiz-adv-x="1179" 
d="M588 1186q-90 0 -152.5 62.5t-62.5 152.5q0 91 63 154t152 63q91 0 154 -63t63 -154t-63 -153t-154 -62zM588 1309q40 0 67 26t27 66t-27 66t-67 26q-39 0 -65.5 -26.5t-26.5 -65.5t26.5 -65.5t65.5 -26.5zM848 1063h237v-588q0 -233 -137.5 -365.5t-359.5 -132.5
t-359 132.5t-137 365.5v588h238v-588q0 -143 71.5 -219t186.5 -76t187.5 76.5t72.5 218.5v588z" />
    <glyph glyph-name="utilde.ss01" horiz-adv-x="1179" 
d="M379 1208l-158 52q17 87 75 150t153 63q48 0 95.5 -21.5t88 -43.5t72.5 -22q34 0 53 21.5t30 65.5l166 -54q-22 -102 -80 -157.5t-147 -55.5q-52 0 -101.5 21.5t-90.5 43t-72 21.5q-34 0 -53 -22t-31 -62zM848 1063h237v-588q0 -233 -137.5 -365.5t-359.5 -132.5
t-359 132.5t-137 365.5v588h238v-588q0 -143 71.5 -219t186.5 -76t187.5 76.5t72.5 218.5v588z" />
    <glyph glyph-name="w.ss01" horiz-adv-x="1826" 
d="M1497 459v604h234v-604q0 -232 -124.5 -357t-328.5 -125q-253 0 -365 183q-112 -183 -362 -183q-205 0 -330 125t-125 357v604h234v-604q0 -139 62.5 -209t164.5 -70q107 0 173.5 71.5t66.5 207.5v604h233v-604q0 -136 66.5 -207.5t173.5 -71.5q102 0 164.5 70t62.5 209z
" />
    <glyph glyph-name="wacute.ss01" horiz-adv-x="1826" 
d="M977 1503h248l-224 -319h-186zM1497 459v604h234v-604q0 -232 -124.5 -357t-328.5 -125q-253 0 -365 183q-112 -183 -362 -183q-205 0 -330 125t-125 357v604h234v-604q0 -139 62.5 -209t164.5 -70q107 0 173.5 71.5t66.5 207.5v604h233v-604q0 -136 66.5 -207.5
t173.5 -71.5q102 0 164.5 70t62.5 209z" />
    <glyph glyph-name="wcircumflex.ss01" horiz-adv-x="1826" 
d="M913 1368q-46 -87 -120 -192h-213l241 317h183l243 -317h-215q-78 120 -119 192zM1497 459v604h234v-604q0 -232 -124.5 -357t-328.5 -125q-253 0 -365 183q-112 -183 -362 -183q-205 0 -330 125t-125 357v604h234v-604q0 -139 62.5 -209t164.5 -70q107 0 173.5 71.5
t66.5 207.5v604h233v-604q0 -136 66.5 -207.5t173.5 -71.5q102 0 164.5 70t62.5 209z" />
    <glyph glyph-name="wdieresis.ss01" horiz-adv-x="1826" 
d="M715 1214q-53 0 -88 35.5t-35 89.5q0 53 35 88t88 35t89 -35.5t36 -87.5q0 -54 -36 -89.5t-89 -35.5zM1108 1214q-53 0 -88 35.5t-35 89.5q0 53 35.5 88t87.5 35q53 0 89 -35.5t36 -87.5q0 -54 -36 -89.5t-89 -35.5zM1497 459v604h234v-604q0 -232 -124.5 -357
t-328.5 -125q-253 0 -365 183q-112 -183 -362 -183q-205 0 -330 125t-125 357v604h234v-604q0 -139 62.5 -209t164.5 -70q107 0 173.5 71.5t66.5 207.5v604h233v-604q0 -136 66.5 -207.5t173.5 -71.5q102 0 164.5 70t62.5 209z" />
    <glyph glyph-name="wgrave.ss01" horiz-adv-x="1826" 
d="M850 1503l162 -319h-187l-223 319h248zM1497 459v604h234v-604q0 -232 -124.5 -357t-328.5 -125q-253 0 -365 183q-112 -183 -362 -183q-205 0 -330 125t-125 357v604h234v-604q0 -139 62.5 -209t164.5 -70q107 0 173.5 71.5t66.5 207.5v604h233v-604q0 -136 66.5 -207.5
t173.5 -71.5q102 0 164.5 70t62.5 209z" />
    <glyph glyph-name="a.ss02" horiz-adv-x="1124" 
d="M530 1085q134 0 232.5 -37t156 -104t84.5 -152.5t27 -191.5v-600h-235v141q-43 -75 -135 -118t-214 -43q-167 0 -281 98t-114 262q0 165 117 261.5t299 96.5q99 0 186 -32.5t142 -90.5v25q0 287 -306 287q-206 0 -378 -84v201q190 81 419 81zM537 154q112 0 185 53
t73 135q0 83 -74 138t-184 55q-107 0 -176.5 -53.5t-69.5 -137.5q0 -85 69.5 -137.5t176.5 -52.5z" />
    <glyph glyph-name="aacute.ss02" horiz-adv-x="1124" 
d="M625 1503h247l-223 -319h-186zM530 1085q134 0 232.5 -37t156 -104t84.5 -152.5t27 -191.5v-600h-235v141q-43 -75 -135 -118t-214 -43q-167 0 -281 98t-114 262q0 165 117 261.5t299 96.5q99 0 186 -32.5t142 -90.5v25q0 287 -306 287q-206 0 -378 -84v201
q190 81 419 81zM537 154q112 0 185 53t73 135q0 83 -74 138t-184 55q-107 0 -176.5 -53.5t-69.5 -137.5q0 -85 69.5 -137.5t176.5 -52.5z" />
    <glyph glyph-name="abreve.ss02" horiz-adv-x="1124" 
d="M563 1169q-65 0 -124 17.5t-109 53t-79.5 96.5t-29.5 141h185q0 -64 39.5 -109t117.5 -45t118 45t40 109h182q0 -79 -29.5 -140.5t-79.5 -97t-108.5 -53t-122.5 -17.5zM530 1085q134 0 232.5 -37t156 -104t84.5 -152.5t27 -191.5v-600h-235v141q-43 -75 -135 -118
t-214 -43q-167 0 -281 98t-114 262q0 165 117 261.5t299 96.5q99 0 186 -32.5t142 -90.5v25q0 287 -306 287q-206 0 -378 -84v201q190 81 419 81zM537 154q112 0 185 53t73 135q0 83 -74 138t-184 55q-107 0 -176.5 -53.5t-69.5 -137.5q0 -85 69.5 -137.5t176.5 -52.5z" />
    <glyph glyph-name="acircumflex.ss02" horiz-adv-x="1124" 
d="M561 1368q-43 -82 -121 -192h-213l242 317h182l244 -317h-215q-78 120 -119 192zM530 1085q134 0 232.5 -37t156 -104t84.5 -152.5t27 -191.5v-600h-235v141q-43 -75 -135 -118t-214 -43q-167 0 -281 98t-114 262q0 165 117 261.5t299 96.5q99 0 186 -32.5t142 -90.5v25
q0 287 -306 287q-206 0 -378 -84v201q190 81 419 81zM537 154q112 0 185 53t73 135q0 83 -74 138t-184 55q-107 0 -176.5 -53.5t-69.5 -137.5q0 -85 69.5 -137.5t176.5 -52.5z" />
    <glyph glyph-name="adieresis.ss02" horiz-adv-x="1124" 
d="M365 1214q-53 0 -88 35.5t-35 89.5q0 53 35 88t88 35t88.5 -35.5t35.5 -87.5q0 -54 -35.5 -89.5t-88.5 -35.5zM758 1214q-53 0 -88 35.5t-35 89.5q0 53 35.5 88t87.5 35q53 0 89 -35.5t36 -87.5q0 -54 -36 -89.5t-89 -35.5zM530 1085q134 0 232.5 -37t156 -104
t84.5 -152.5t27 -191.5v-600h-235v141q-43 -75 -135 -118t-214 -43q-167 0 -281 98t-114 262q0 165 117 261.5t299 96.5q99 0 186 -32.5t142 -90.5v25q0 287 -306 287q-206 0 -378 -84v201q190 81 419 81zM537 154q112 0 185 53t73 135q0 83 -74 138t-184 55
q-107 0 -176.5 -53.5t-69.5 -137.5q0 -85 69.5 -137.5t176.5 -52.5z" />
    <glyph glyph-name="agrave.ss02" horiz-adv-x="1124" 
d="M498 1503l161 -319h-186l-223 319h248zM530 1085q134 0 232.5 -37t156 -104t84.5 -152.5t27 -191.5v-600h-235v141q-43 -75 -135 -118t-214 -43q-167 0 -281 98t-114 262q0 165 117 261.5t299 96.5q99 0 186 -32.5t142 -90.5v25q0 287 -306 287q-206 0 -378 -84v201
q190 81 419 81zM537 154q112 0 185 53t73 135q0 83 -74 138t-184 55q-107 0 -176.5 -53.5t-69.5 -137.5q0 -85 69.5 -137.5t176.5 -52.5z" />
    <glyph glyph-name="amacron.ss02" horiz-adv-x="1124" 
d="M219 1399h686v-185h-686v185zM530 1085q134 0 232.5 -37t156 -104t84.5 -152.5t27 -191.5v-600h-235v141q-43 -75 -135 -118t-214 -43q-167 0 -281 98t-114 262q0 165 117 261.5t299 96.5q99 0 186 -32.5t142 -90.5v25q0 287 -306 287q-206 0 -378 -84v201q190 81 419 81
zM537 154q112 0 185 53t73 135q0 83 -74 138t-184 55q-107 0 -176.5 -53.5t-69.5 -137.5q0 -85 69.5 -137.5t176.5 -52.5z" />
    <glyph glyph-name="aogonek.ss02" horiz-adv-x="1124" 
d="M950 -319q77 0 144 59v-158q-74 -63 -197 -63q-107 0 -169 58t-62 155q0 65 36 136t95 132h-2v141q-43 -75 -135 -118t-214 -43q-167 0 -281 98t-114 262q0 165 117 261.5t299 96.5q99 0 186 -32.5t142 -90.5v25q0 287 -306 287q-206 0 -378 -84v201q190 81 419 81
q134 0 232.5 -37t156 -104t84.5 -152.5t27 -191.5v-600h-41q-68 -53 -104.5 -112.5t-36.5 -106.5q0 -46 28 -73t74 -27zM537 154q112 0 185 53t73 135q0 83 -74 138t-184 55q-107 0 -176.5 -53.5t-69.5 -137.5q0 -85 69.5 -137.5t176.5 -52.5z" />
    <glyph glyph-name="aring.ss02" horiz-adv-x="1124" 
d="M561 1186q-90 0 -152.5 62.5t-62.5 152.5q0 91 63 154t152 63q91 0 154 -63t63 -154t-63 -153t-154 -62zM561 1493q-39 0 -65.5 -26.5t-26.5 -65.5t26.5 -65.5t65.5 -26.5q40 0 67 26t27 66t-27 66t-67 26zM530 1085q134 0 232.5 -37t156 -104t84.5 -152.5t27 -191.5
v-600h-235v141q-43 -75 -135 -118t-214 -43q-167 0 -281 98t-114 262q0 165 117 261.5t299 96.5q99 0 186 -32.5t142 -90.5v25q0 287 -306 287q-206 0 -378 -84v201q190 81 419 81zM537 154q112 0 185 53t73 135q0 83 -74 138t-184 55q-107 0 -176.5 -53.5t-69.5 -137.5
q0 -85 69.5 -137.5t176.5 -52.5z" />
    <glyph glyph-name="atilde.ss02" horiz-adv-x="1124" 
d="M436 1292q-34 0 -53 -22t-31 -62l-157 52q11 55 36.5 101t75.5 79t115 33q48 0 95.5 -21.5t88 -43.5t72.5 -22q34 0 53.5 22t30.5 65l166 -54q-22 -101 -80.5 -157t-147.5 -56q-52 0 -101.5 21.5t-90.5 43t-72 21.5zM530 1085q134 0 232.5 -37t156 -104t84.5 -152.5
t27 -191.5v-600h-235v141q-43 -75 -135 -118t-214 -43q-167 0 -281 98t-114 262q0 165 117 261.5t299 96.5q99 0 186 -32.5t142 -90.5v25q0 287 -306 287q-206 0 -378 -84v201q190 81 419 81zM537 154q112 0 185 53t73 135q0 83 -74 138t-184 55q-107 0 -176.5 -53.5
t-69.5 -137.5q0 -85 69.5 -137.5t176.5 -52.5z" />
    <glyph glyph-name="e.ss02" horiz-adv-x="1146" 
d="M592 1085q239 0 378.5 -175.5t129.5 -467.5h-815q11 -126 117 -196t255 -70q182 0 371 109v-197q-74 -49 -180 -78.5t-217 -29.5q-169 0 -300 67t-205.5 194t-74.5 296q0 245 149 396.5t392 151.5zM586 889q-128 0 -210 -77.5t-91 -195.5h585q-19 130 -90 201.5
t-194 71.5z" />
    <glyph glyph-name="eacute.ss02" horiz-adv-x="1146" 
d="M639 1503h248l-223 -319h-187zM592 1085q239 0 378.5 -175.5t129.5 -467.5h-815q11 -126 117 -196t255 -70q182 0 371 109v-197q-74 -49 -180 -78.5t-217 -29.5q-169 0 -300 67t-205.5 194t-74.5 296q0 245 149 396.5t392 151.5zM586 889q-128 0 -210 -77.5t-91 -195.5
h585q-19 130 -90 201.5t-194 71.5z" />
    <glyph glyph-name="ecaron.ss02" horiz-adv-x="1146" 
d="M909 1499l-243 -319h-183l-241 319h213q52 -78 78 -129t40 -106q16 59 43.5 110t77.5 125h215zM592 1085q239 0 378.5 -175.5t129.5 -467.5h-815q11 -126 117 -196t255 -70q182 0 371 109v-197q-74 -49 -180 -78.5t-217 -29.5q-169 0 -300 67t-205.5 194t-74.5 296
q0 245 149 396.5t392 151.5zM586 889q-128 0 -210 -77.5t-91 -195.5h585q-19 130 -90 201.5t-194 71.5z" />
    <glyph glyph-name="ecircumflex.ss02" horiz-adv-x="1146" 
d="M575 1368q-46 -87 -120 -192h-213l241 317h183l243 -317h-215q-78 120 -119 192zM592 1085q239 0 378.5 -175.5t129.5 -467.5h-815q11 -126 117 -196t255 -70q182 0 371 109v-197q-74 -49 -180 -78.5t-217 -29.5q-169 0 -300 67t-205.5 194t-74.5 296q0 245 149 396.5
t392 151.5zM586 889q-128 0 -210 -77.5t-91 -195.5h585q-19 130 -90 201.5t-194 71.5z" />
    <glyph glyph-name="edieresis.ss02" horiz-adv-x="1146" 
d="M377 1214q-53 0 -88 35.5t-35 89.5q0 53 35 88t88 35t89 -35.5t36 -87.5q0 -54 -36 -89.5t-89 -35.5zM770 1214q-53 0 -88 35.5t-35 89.5q0 53 35.5 88t87.5 35q53 0 89 -35.5t36 -87.5q0 -54 -36 -89.5t-89 -35.5zM592 1085q239 0 378.5 -175.5t129.5 -467.5h-815
q11 -126 117 -196t255 -70q182 0 371 109v-197q-74 -49 -180 -78.5t-217 -29.5q-169 0 -300 67t-205.5 194t-74.5 296q0 245 149 396.5t392 151.5zM586 889q-128 0 -210 -77.5t-91 -195.5h585q-19 130 -90 201.5t-194 71.5z" />
    <glyph glyph-name="edotaccent.ss02" horiz-adv-x="1146" 
d="M575 1196q-58 0 -98.5 40t-40.5 97q0 59 40.5 99.5t98.5 40.5q57 0 97.5 -41t40.5 -99q0 -57 -40.5 -97t-97.5 -40zM592 1085q239 0 378.5 -175.5t129.5 -467.5h-815q11 -126 117 -196t255 -70q182 0 371 109v-197q-74 -49 -180 -78.5t-217 -29.5q-169 0 -300 67
t-205.5 194t-74.5 296q0 245 149 396.5t392 151.5zM586 889q-128 0 -210 -77.5t-91 -195.5h585q-19 130 -90 201.5t-194 71.5z" />
    <glyph glyph-name="egrave.ss02" horiz-adv-x="1146" 
d="M512 1503l162 -319h-187l-223 319h248zM592 1085q239 0 378.5 -175.5t129.5 -467.5h-815q11 -126 117 -196t255 -70q182 0 371 109v-197q-74 -49 -180 -78.5t-217 -29.5q-169 0 -300 67t-205.5 194t-74.5 296q0 245 149 396.5t392 151.5zM586 889q-128 0 -210 -77.5
t-91 -195.5h585q-19 130 -90 201.5t-194 71.5z" />
    <glyph glyph-name="emacron.ss02" horiz-adv-x="1146" 
d="M231 1399h687v-185h-687v185zM592 1085q239 0 378.5 -175.5t129.5 -467.5h-815q11 -126 117 -196t255 -70q182 0 371 109v-197q-74 -49 -180 -78.5t-217 -29.5q-169 0 -300 67t-205.5 194t-74.5 296q0 245 149 396.5t392 151.5zM586 889q-128 0 -210 -77.5t-91 -195.5
h585q-19 130 -90 201.5t-194 71.5z" />
    <glyph glyph-name="eogonek.ss02" horiz-adv-x="1146" 
d="M592 1085q239 0 378.5 -175.5t129.5 -467.5h-815q11 -126 117 -196t255 -70q182 0 371 109v-197q-122 -81 -295 -102q-60 -50 -92.5 -105.5t-32.5 -99.5q0 -45 28.5 -72.5t74.5 -27.5q76 0 143 59v-158q-74 -63 -197 -63q-107 0 -169 58t-62 155q0 61 32 127.5t85 124.5
q-222 27 -357 174.5t-135 378.5q0 245 149 396.5t392 151.5zM586 889q-128 0 -210 -77.5t-91 -195.5h585q-19 130 -90 201.5t-194 71.5z" />
    <glyph glyph-name="uni1EBD.ss02" horiz-adv-x="1146" 
d="M451 1292q-34 0 -53 -22t-31 -62l-158 52q11 55 36.5 101t75.5 79t115 33q48 0 95.5 -21.5t88 -43.5t72.5 -22q34 0 53.5 22t30.5 65l166 -54q-22 -102 -80 -157.5t-147 -55.5q-52 0 -101.5 21.5t-90.5 43t-72 21.5zM592 1085q239 0 378.5 -175.5t129.5 -467.5h-815
q11 -126 117 -196t255 -70q182 0 371 109v-197q-74 -49 -180 -78.5t-217 -29.5q-169 0 -300 67t-205.5 194t-74.5 296q0 245 149 396.5t392 151.5zM586 889q-128 0 -210 -77.5t-91 -195.5h585q-19 130 -90 201.5t-194 71.5z" />
    <glyph glyph-name="j.ss02" horiz-adv-x="477" 
d="M242 1196q-58 0 -99 40t-41 97q0 59 41 99.5t99 40.5q57 0 97 -41t40 -99q0 -57 -40 -97t-97 -40zM-70 -471l191 485v1049h235v-1063l-180 -471h-246z" />
    <glyph glyph-name="y.ss02" horiz-adv-x="1239" 
d="M885 492v571h233v-961q0 -286 -140 -445t-398 -159q-124 0 -250 41.5t-189 89.5v205q41 -25 71 -41.5t84 -40.5t115 -36.5t124 -12.5q350 0 350 399v72q-107 -197 -350 -197q-86 0 -161 27t-135 81.5t-95 145.5t-35 209v623h233v-588q0 -82 22 -142t60.5 -92.5t83 -47.5
t96.5 -15q130 0 205.5 82t75.5 232z" />
    <glyph glyph-name="yacute.ss02" horiz-adv-x="1239" 
d="M690 1503h248l-223 -319h-187zM885 492v571h233v-961q0 -286 -140 -445t-398 -159q-124 0 -250 41.5t-189 89.5v205q41 -25 71 -41.5t84 -40.5t115 -36.5t124 -12.5q350 0 350 399v72q-107 -197 -350 -197q-86 0 -161 27t-135 81.5t-95 145.5t-35 209v623h233v-588
q0 -82 22 -142t60.5 -92.5t83 -47.5t96.5 -15q130 0 205.5 82t75.5 232z" />
    <glyph glyph-name="ycircumflex.ss02" horiz-adv-x="1239" 
d="M627 1368q-43 -82 -121 -192h-213l242 317h182l244 -317h-216q-71 108 -118 192zM885 492v571h233v-961q0 -286 -140 -445t-398 -159q-124 0 -250 41.5t-189 89.5v205q41 -25 71 -41.5t84 -40.5t115 -36.5t124 -12.5q350 0 350 399v72q-107 -197 -350 -197q-86 0 -161 27
t-135 81.5t-95 145.5t-35 209v623h233v-588q0 -82 22 -142t60.5 -92.5t83 -47.5t96.5 -15q130 0 205.5 82t75.5 232z" />
    <glyph glyph-name="ydieresis.ss02" horiz-adv-x="1239" 
d="M428 1214q-53 0 -88 35.5t-35 89.5q0 53 35.5 88t87.5 35q53 0 89 -35.5t36 -87.5q0 -54 -36 -89.5t-89 -35.5zM821 1214q-53 0 -88 35.5t-35 89.5q0 53 35 88t88 35t89 -35.5t36 -87.5q0 -54 -36 -89.5t-89 -35.5zM885 492v571h233v-961q0 -286 -140 -445t-398 -159
q-124 0 -250 41.5t-189 89.5v205q41 -25 71 -41.5t84 -40.5t115 -36.5t124 -12.5q350 0 350 399v72q-107 -197 -350 -197q-86 0 -161 27t-135 81.5t-95 145.5t-35 209v623h233v-588q0 -82 22 -142t60.5 -92.5t83 -47.5t96.5 -15q130 0 205.5 82t75.5 232z" />
    <glyph glyph-name="ygrave.ss02" horiz-adv-x="1239" 
d="M563 1503l162 -319h-186l-224 319h248zM885 492v571h233v-961q0 -286 -140 -445t-398 -159q-124 0 -250 41.5t-189 89.5v205q41 -25 71 -41.5t84 -40.5t115 -36.5t124 -12.5q350 0 350 399v72q-107 -197 -350 -197q-86 0 -161 27t-135 81.5t-95 145.5t-35 209v623h233
v-588q0 -82 22 -142t60.5 -92.5t83 -47.5t96.5 -15q130 0 205.5 82t75.5 232z" />
    <glyph glyph-name="uni1EF9.ss02" horiz-adv-x="1239" 
d="M502 1292q-34 0 -53 -22t-31 -62l-158 52q11 55 36.5 101t75.5 79t115 33q48 0 95.5 -21.5t88 -43.5t72.5 -22q34 0 53.5 22t30.5 65l166 -54q-22 -102 -80 -157.5t-147 -55.5q-52 0 -101.5 21.5t-90.5 43t-72 21.5zM885 492v571h233v-961q0 -286 -140 -445t-398 -159
q-124 0 -250 41.5t-189 89.5v205q41 -25 71 -41.5t84 -40.5t115 -36.5t124 -12.5q350 0 350 399v72q-107 -197 -350 -197q-86 0 -161 27t-135 81.5t-95 145.5t-35 209v623h233v-588q0 -82 22 -142t60.5 -92.5t83 -47.5t96.5 -15q130 0 205.5 82t75.5 232z" />
    <glyph glyph-name="uni0237.ss03" horiz-adv-x="477" 
d="M121 14v1049h235v-1063l-180 -471h-246z" />
    <glyph glyph-name="uni0414.loclBGR" horiz-adv-x="1544" 
d="M907 1454l463 -1237h143v-446h-213v229h-1054v-229h-213v446h141l463 1237h270zM770 1219l-369 -1006h738z" />
    <glyph glyph-name="uni041B.loclBGR" horiz-adv-x="1374" 
d="M821 1454l527 -1454h-261q-241 693 -317 930.5t-90 335.5q-14 -99 -90 -337.5t-314 -928.5h-249l522 1454h272z" />
    <glyph glyph-name="uni0424.loclBGR" horiz-adv-x="1685" 
d="M1618 725q0 -194 -83 -351t-233 -248t-341 -97v-146h-240v146q-189 7 -339 100.5t-232 249.5t-82 346q0 292 182.5 488.5t470.5 211.5v146h240v-141q191 -7 341 -99.5t233 -251t83 -354.5zM303 725q0 -197 117 -335t301 -148v975q-122 -7 -217.5 -73t-148 -175.5
t-52.5 -243.5zM961 1214v-972q187 12 304 146.5t117 336.5q0 201 -117.5 338.5t-303.5 150.5z" />
    <glyph glyph-name="uni0432.loclBGR" horiz-adv-x="1101" 
d="M813 809q117 -57 180.5 -152t63.5 -223q0 -201 -134.5 -327.5t-351.5 -126.5q-218 0 -348.5 132t-130.5 363v606q0 216 129.5 349t339.5 133q197 0 317.5 -115.5t120.5 -300.5q0 -225 -186 -338zM553 1352q-108 0 -173 -74.5t-65 -196.5v-196h195q118 5 190 70t72 173
q0 97 -62 160.5t-157 63.5zM571 190q116 0 188 71t72 181q0 119 -89 188.5t-238 69.5h-189v-223q0 -130 70 -208.5t186 -78.5z" />
    <glyph glyph-name="uni0433.loclBGR" horiz-adv-x="995" 
d="M481 -20q-197 0 -316.5 84.5t-119.5 236.5q0 72 27.5 127t72 87.5t102 57.5t117 38t117 29.5t102 32.5t72 44.5t27.5 68.5q0 54 -50 86.5t-124 32.5q-86 0 -140 -42t-63 -111l-223 6q6 140 124 232.5t298 92.5q174 0 290.5 -85.5t116.5 -227.5q0 -68 -27 -122
t-71.5 -86.5t-101 -59t-115.5 -42t-115.5 -33t-101 -33.5t-71.5 -42t-27 -61q0 -59 53.5 -93t142.5 -34q105 0 174 46t78 128l229 -8q-7 -118 -74.5 -198.5t-169.5 -116t-233 -35.5z" />
    <glyph glyph-name="uni0434.loclBGR" horiz-adv-x="1349" 
d="M995 858l41 205h193v-961q0 -286 -146.5 -445t-418.5 -159q-127 0 -256 35.5t-211 95.5v205q223 -131 419 -131q379 0 379 399v115q-45 -110 -150.5 -173.5t-250.5 -63.5q-158 0 -278 75t-182 200.5t-62 279.5q0 240 146 395t388 155q121 0 224.5 -57t164.5 -160v-10z
M653 190q148 0 244 97.5t96 244.5q0 146 -96 243t-244 97q-151 0 -247.5 -95.5t-96.5 -244.5q0 -151 96.5 -246.5t247.5 -95.5z" />
    <glyph glyph-name="uni0436.loclBGR" horiz-adv-x="1574" 
d="M1106 567l469 -567h-272l-412 512q12 -152 12 -512h-233q0 336 14 514l-416 -514h-270l469 567l-467 496h270l414 -442q-14 164 -14 442v500h235v-500h-2q0 -300 -12 -438l412 438h270z" />
    <glyph glyph-name="uni0437.loclBGR" horiz-adv-x="1044" 
d="M786 332q104 -45 163 -139t59 -222q0 -211 -129 -337t-347 -126q-222 0 -360 135.5t-145 374.5h223q0 -142 75.5 -227.5t200.5 -85.5q115 0 181.5 72.5t66.5 191.5t-76.5 183.5t-193.5 64.5h-109v193h107q98 0 160.5 63.5t62.5 169.5q0 110 -60 173t-163 63
q-108 0 -171 -83t-63 -221h-227q10 235 139.5 367.5t339.5 132.5q200 0 318 -110t118 -306q0 -107 -45.5 -193t-124.5 -134z" />
    <glyph glyph-name="uni0438.loclBGR" horiz-adv-x="1241" 
d="M883 492v571h237v-1063h-200l-29 188q-105 -211 -359 -211q-86 0 -161 27t-135 81.5t-95 145.5t-35 209v623h234v-588q0 -82 22 -141.5t60.5 -92.5t83.5 -48t98 -15q128 0 203.5 82t75.5 232z" />
    <glyph glyph-name="uni0439.loclBGR" horiz-adv-x="1267" 
d="M637 1167q-65 0 -124 17.5t-109 53t-79.5 96.5t-29.5 141h184q0 -64 40 -109t118 -45t118 45t40 109h182q0 -79 -29.5 -140.5t-79.5 -97t-108.5 -53t-122.5 -17.5zM352 326l580 737h213v-1063h-232v725l-577 -725h-215v1063h231v-737z" />
    <glyph glyph-name="uni045D.loclBGR" horiz-adv-x="1267" 
d="M571 1501l162 -319h-186l-223 319h247zM352 326l580 737h213v-1063h-232v725l-577 -725h-215v1063h231v-737z" />
    <glyph glyph-name="uni043A.loclBGR" horiz-adv-x="1124" 
d="M567 567l529 -567h-279l-475 518q14 -181 14 -518h-235v1536h235q0 -434 -2.5 -612t-13.5 -308l475 447h279z" />
    <glyph glyph-name="uni043B.loclBGR" horiz-adv-x="1155" 
d="M688 1063l434 -1063h-254q-159 419 -218.5 588.5t-84.5 269.5q-19 -105 -72.5 -266.5t-211.5 -591.5h-248l416 1063h239z" />
    <glyph glyph-name="uni043F.loclBGR" horiz-adv-x="1243" 
d="M709 1085q87 0 162 -27t135.5 -81t95.5 -145t35 -209v-623h-238v588q0 82 -21.5 141.5t-60 92t-83 47t-97.5 14.5q-129 0 -204 -81t-75 -231v-571h-237v1063h201l32 -178q104 200 355 200z" />
    <glyph glyph-name="uni0442.loclBGR" horiz-adv-x="1863" 
d="M1356 1085q181 0 291 -113.5t110 -307.5v-664h-233v604q0 139 -63 209t-167 70q-106 0 -171.5 -71.5t-65.5 -207.5v-604h-234v604q0 138 -63 208.5t-164 70.5q-107 0 -173.5 -71.5t-66.5 -207.5v-604h-235v1063h194l35 -160q102 182 324 182q107 0 192.5 -48t132.5 -136
q118 184 357 184z" />
    <glyph glyph-name="uni0446.loclBGR" horiz-adv-x="1265" 
d="M1104 1063v-846h139v-446h-213v229h-125l-28 188q-105 -211 -359 -211q-86 0 -161 27t-135 81.5t-95 145.5t-35 209v623h234v-588q0 -82 22 -142t60.5 -92.5t83 -47.5t96.5 -15q130 0 205 82t75 232v571h236z" />
    <glyph glyph-name="uni0448.loclBGR" horiz-adv-x="1855" 
d="M1518 459v604h235v-1063h-194l-35 162q-104 -185 -324 -185q-108 0 -193.5 48t-134.5 137q-54 -86 -143 -135.5t-211 -49.5q-183 0 -292 113.5t-109 308.5v664h233v-604q0 -139 63 -210t165 -71q107 0 173 72.5t66 208.5v604h234v-604q0 -139 62.5 -210t164.5 -71
q107 0 173.5 72.5t66.5 208.5z" />
    <glyph glyph-name="uni0449.loclBGR" horiz-adv-x="1914" 
d="M1753 1063v-846h137v-446h-213v229h-116l-35 162q-104 -185 -326 -185q-107 0 -191.5 48.5t-134.5 136.5q-119 -185 -356 -185q-182 0 -291.5 113.5t-109.5 308.5v664h235v-604q0 -139 62.5 -210t165.5 -71q106 0 171.5 72.5t65.5 208.5v604h236v-604q0 -139 62.5 -210
t164.5 -71q106 0 173 72.5t67 208.5v604h233z" />
    <glyph glyph-name="uni044C.loclBGR" horiz-adv-x="1052" 
d="M332 733h289q180 0 288.5 -98.5t108.5 -267.5q0 -178 -123 -280.5t-334 -102.5q-231 0 -346 109.5t-115 309.5v660h232v-330zM561 182q102 0 163.5 48t61.5 137q0 82 -52 126t-140 44h-262v-123q0 -116 55 -174t174 -58z" />
    <glyph glyph-name="uni044A.loclBGR" horiz-adv-x="1155" 
d="M432 733h289q180 0 289.5 -98.5t109.5 -267.5q0 -178 -122.5 -280.5t-335.5 -102.5q-230 0 -345.5 109.5t-115.5 309.5v449h-191v211h422v-330zM662 182q103 0 165 48t62 137q0 82 -52.5 126t-140.5 44h-264v-123q0 -116 56 -174t174 -58z" />
    <glyph glyph-name="yucy.loclBGR" horiz-adv-x="1636" 
d="M1020 1083q236 0 390.5 -157t154.5 -396q0 -238 -154.5 -393t-390.5 -155q-214 0 -362.5 128t-176.5 332h-129v-442h-231v1538h231v-903h131q34 200 180.5 324t356.5 124zM1020 193q138 0 229.5 96t91.5 243t-91.5 243.5t-229.5 96.5q-137 0 -227.5 -96.5t-90.5 -243.5
t90.5 -243t227.5 -96z" />
    <glyph glyph-name="uni0431.loclSRB" horiz-adv-x="1230" 
d="M463 1364l471 -365q250 -192 250 -467q0 -157 -73.5 -283.5t-203.5 -197.5t-291 -71q-246 0 -407.5 156.5t-161.5 395.5q0 136 58 250t169 183t252 69q27 0 43 -2l-409 346v158h901v-172h-598zM616 190q147 0 244.5 97.5t97.5 244.5q0 148 -97 245t-245 97
q-147 0 -244.5 -97.5t-97.5 -244.5q0 -146 98 -244t244 -98z" />
    <glyph glyph-name="zero.osf" horiz-adv-x="1175" 
d="M588 -20q-99 0 -189.5 32.5t-161.5 92t-113 152t-42 204.5v139q0 112 42 205t113 153t161.5 92.5t189.5 32.5t189.5 -32.5t161.5 -92.5t113 -153t42 -205v-139q0 -112 -42 -204.5t-113 -152t-161.5 -92t-189.5 -32.5zM588 190q119 0 200.5 76t81.5 197v137q0 122 -81 198
t-201 76q-119 0 -201 -76t-82 -198v-137q0 -120 82.5 -196.5t200.5 -76.5z" />
    <glyph glyph-name="one.osf" horiz-adv-x="989" 
d="M952 0h-876v211h325v610l-311 -90v215l537 137v-872h325v-211z" />
    <glyph glyph-name="two.osf" horiz-adv-x="1067" 
d="M985 0h-909v166q0 64 22.5 118t61 92t88 70t104.5 56.5t109.5 46t104 42.5t88 43.5t61 51.5t22.5 64q0 61 -51 100t-137 39q-105 0 -170 -57.5t-68 -135.5l-229 27q26 163 149 263.5t322 100.5q182 0 304 -87t122 -238q0 -82 -36.5 -148.5t-94.5 -109.5t-128 -77.5
t-140.5 -59.5t-129 -48.5t-95.5 -52.5t-38 -63h668v-203z" />
    <glyph glyph-name="three.osf" horiz-adv-x="1103" 
d="M965 891l-342 -352q197 -19 312.5 -137.5t115.5 -305.5q0 -204 -141 -339.5t-355 -135.5q-227 0 -372.5 131t-145.5 324h233q3 -103 80.5 -171.5t196.5 -68.5q116 0 192 69.5t76 184.5q0 118 -85.5 190t-221.5 74h-158l-4 162l328 342h-580v205h871v-172z" />
    <glyph glyph-name="four.osf" horiz-adv-x="1136" 
d="M887 1063v-873h215v-190h-215v-358h-217v358h-635v164l635 899h217zM690 809l-418 -619h398q0 300 3.5 419.5t16.5 199.5z" />
    <glyph glyph-name="five.osf" horiz-adv-x="1134" 
d="M596 590q203 0 338 -133t135 -348q0 -210 -142 -349t-352 -139q-230 0 -375 136.5t-145 340.5l238 2q3 -113 78 -187.5t194 -74.5q114 0 192.5 77.5t78.5 193.5q0 127 -78 202.5t-199 75.5q-80 0 -150 -37t-98 -104l-215 63l148 754h760v-213h-572l-67 -318
q105 58 231 58z" />
    <glyph glyph-name="six.osf" horiz-adv-x="1187" 
d="M680 973q195 0 328 -136t133 -343q0 -218 -147.5 -366t-377.5 -148q-116 0 -216 40t-168.5 107.5t-107 159t-38.5 192.5q0 159 102 330l383 647l265 -2l-304 -506q67 25 148 25zM616 205q122 0 203.5 82.5t81.5 206.5t-81.5 206t-203.5 82q-126 0 -208 -81.5t-82 -206.5
q0 -124 82.5 -206.5t207.5 -82.5z" />
    <glyph glyph-name="seven.osf" horiz-adv-x="1036" 
d="M35 852v211h954v-184l-559 -1237h-246l545 1210h-694z" />
    <glyph glyph-name="eight.osf" horiz-adv-x="1155" 
d="M877 774q103 -54 158 -145t55 -205q0 -195 -145 -319.5t-370 -124.5q-223 0 -367.5 124.5t-144.5 319.5q0 115 54.5 206t158.5 146q-155 105 -155 297q0 180 130.5 291t326.5 111q194 0 324 -111t130 -291q0 -196 -155 -299zM578 1278q-94 0 -161 -55.5t-67 -151.5
q0 -95 67 -152t161 -57t162.5 57.5t68.5 151.5q0 95 -68 151t-163 56zM578 193q120 0 198 67.5t78 173.5q0 108 -78 176t-198 68t-198.5 -68t-78.5 -176q0 -106 78.5 -173.5t198.5 -67.5z" />
    <glyph glyph-name="nine.osf" horiz-adv-x="1198" 
d="M604 1077q116 0 215.5 -39.5t167.5 -107t107 -159t39 -193.5q0 -157 -103 -330l-383 -645h-264l301 506q-67 -25 -145 -25q-195 0 -328 136t-133 343q0 107 38.5 202t106.5 163.5t167 108.5t214 40zM604 274q126 0 207.5 82t81.5 207q0 126 -82 208.5t-207 82.5
q-123 0 -205 -82.5t-82 -208.5q0 -124 82 -206.5t205 -82.5z" />
    <glyph glyph-name="zero.slash" horiz-adv-x="1298" 
d="M649 1475q109 0 208 -35.5t177 -100.5t124 -166.5t46 -224.5v-442q0 -123 -46 -224t-124 -166t-177 -100.5t-208 -35.5q-108 0 -207 35.5t-176.5 100.5t-123.5 166t-46 224v442q0 99 30 184.5t82.5 147.5t122.5 106.5t151 66.5t167 22zM336 948v-442q0 -119 72 -197
l362 920q-62 20 -121 20q-131 0 -222 -84t-91 -217zM965 506v442q0 115 -74 199l-363 -922q62 -20 121 -20q132 0 224 84t92 217z" />
    <glyph glyph-name="uni24FF.ss06" horiz-adv-x="1767" 
d="M1296 0h-823q-133 0 -225 91.5t-92 223.5v824q0 132 92 223.5t225 91.5h823q132 0 224 -91.5t92 -223.5v-824q0 -132 -92 -223.5t-224 -91.5zM881 274q146 0 252 89.5t106 246.5v269q0 106 -52 184.5t-132 116t-174 37.5q-92 0 -171.5 -37t-132.5 -115.5t-53 -185.5v-269
q0 -106 52.5 -184t132 -115t172.5 -37zM881 440q-74 0 -127.5 46.5t-53.5 123.5v269q0 77 53.5 123.5t127.5 46.5q75 0 127.5 -46.5t52.5 -123.5v-269q0 -77 -52.5 -123.5t-127.5 -46.5z" />
    <glyph glyph-name="uni2776.ss06" horiz-adv-x="1767" 
d="M1296 0h-823q-133 0 -225 91.5t-92 223.5v824q0 132 92 223.5t225 91.5h823q132 0 224 -91.5t92 -223.5v-824q0 -132 -92 -223.5t-224 -91.5zM608 442v-155h563v155h-194v760l-363 -84v-157l187 49v-568h-193z" />
    <glyph glyph-name="uni2777.ss06" horiz-adv-x="1767" 
d="M1296 0h-823q-133 0 -225 91.5t-92 223.5v824q0 132 92 223.5t225 91.5h823q132 0 224 -91.5t92 -223.5v-824q0 -132 -92 -223.5t-224 -91.5zM559 406v-119h639v168h-455q11 35 42 64.5t71.5 52t87 46t91 52t81 63t58.5 86t22 115.5q0 131 -89 207t-222 76
q-138 0 -232 -89t-94 -221h178q3 67 43 107.5t105 40.5q61 0 98 -36t37 -87q0 -39 -25.5 -72.5t-66 -59.5t-89.5 -52.5t-98.5 -58t-90 -69t-66 -92.5t-25.5 -122z" />
    <glyph glyph-name="uni2778.ss06" horiz-adv-x="1767" 
d="M1296 0h-823q-133 0 -225 91.5t-92 223.5v824q0 132 92 223.5t225 91.5h823q132 0 224 -91.5t92 -223.5v-824q0 -132 -92 -223.5t-224 -91.5zM893 274q151 0 237.5 80.5t86.5 198.5q0 147 -130 215q95 75 95 199q0 114 -83 182t-218 68q-149 0 -237.5 -86t-88.5 -216h172
q0 67 41.5 106.5t103.5 39.5q58 0 96 -32t38 -85q0 -50 -35.5 -80t-96.5 -30h-75v-152h71q29 0 55 -5t53 -17t43.5 -37.5t16.5 -61.5q0 -59 -43 -96t-110 -37q-70 0 -118 42.5t-48 115.5h-172q0 -137 94.5 -224.5t251.5 -87.5z" />
    <glyph glyph-name="uni2779.ss06" horiz-adv-x="1767" 
d="M1296 0h-823q-133 0 -225 91.5t-92 223.5v824q0 132 92 223.5t225 91.5h823q132 0 224 -91.5t92 -223.5v-824q0 -132 -92 -223.5t-224 -91.5zM891 465v-178h172v178h129v141h-129v596h-162l-426 -616v-121h416zM891 606h-232q154 224 254 422q-22 -158 -22 -422z" />
    <glyph glyph-name="uni277A.ss06" horiz-adv-x="1767" 
d="M1296 0h-823q-133 0 -225 91.5t-92 223.5v824q0 132 92 223.5t225 91.5h823q132 0 224 -91.5t92 -223.5v-824q0 -132 -92 -223.5t-224 -91.5zM881 274q150 0 243 96t93 234q0 135 -83 221t-214 86q-110 0 -175 -59l29 195h379v155h-520l-82 -538h174q19 45 64 70.5
t92 25.5q69 0 114 -45t45 -117t-46.5 -117t-112.5 -45t-111.5 39.5t-50.5 97.5h-176q0 -121 93.5 -210t244.5 -89z" />
    <glyph glyph-name="uni277B.ss06" horiz-adv-x="1767" 
d="M1296 0h-823q-133 0 -225 91.5t-92 223.5v824q0 132 92 223.5t225 91.5h823q132 0 224 -91.5t92 -223.5v-824q0 -132 -92 -223.5t-224 -91.5zM881 274q148 0 242 94.5t94 233.5q0 129 -82.5 214t-202.5 85q-49 0 -78 -10l180 311h-194l-236 -405q-61 -103 -61 -205
q0 -132 95 -225t243 -93zM881 440q-69 0 -115.5 46t-46.5 116t45.5 115t116.5 45q70 0 114.5 -44.5t44.5 -115.5t-44.5 -116.5t-114.5 -45.5z" />
    <glyph glyph-name="uni277C.ss06" horiz-adv-x="1767" 
d="M1296 0h-823q-133 0 -225 91.5t-92 223.5v824q0 132 92 223.5t225 91.5h823q132 0 224 -91.5t92 -223.5v-824q0 -132 -92 -223.5t-224 -91.5zM1006 1047l-320 -760h188l322 782v133h-629v-155h439z" />
    <glyph glyph-name="uni277D.ss06" horiz-adv-x="1767" 
d="M1296 0h-823q-133 0 -225 91.5t-92 223.5v824q0 132 92 223.5t225 91.5h823q132 0 224 -91.5t92 -223.5v-824q0 -132 -92 -223.5t-224 -91.5zM881 272q142 0 234.5 81t92.5 206q0 144 -123 213q91 67 91 184q0 112 -84 184t-209 72q-127 0 -211 -71.5t-84 -184.5
q0 -116 88 -182q-60 -37 -90.5 -93.5t-30.5 -121.5q0 -124 92.5 -205.5t233.5 -81.5zM883 840q-53 0 -89 30.5t-36 81.5q0 52 36.5 83.5t88.5 31.5q53 0 90 -32t37 -83t-37 -81.5t-90 -30.5zM883 432q-65 0 -108.5 38t-43.5 97q0 58 43.5 96.5t108.5 38.5t108 -38.5
t43 -96.5q0 -59 -43 -97t-108 -38z" />
    <glyph glyph-name="uni277E.ss06" horiz-adv-x="1767" 
d="M1296 0h-823q-133 0 -225 91.5t-92 223.5v824q0 132 92 223.5t225 91.5h823q132 0 224 -91.5t92 -223.5v-824q0 -132 -92 -223.5t-224 -91.5zM907 598l-180 -311h195l235 407q60 104 60 203q0 132 -94.5 226t-241.5 94q-148 0 -243 -95t-95 -233q0 -129 83 -215t203 -86
q44 0 78 10zM881 729q-70 0 -116 45.5t-46 114.5t46 114.5t116 45.5q69 0 114 -45.5t45 -114.5t-44.5 -114.5t-114.5 -45.5z" />
    <glyph glyph-name="uni24EA.ss06" horiz-adv-x="1837" 
d="M1331 -33h-823q-157 0 -254.5 97.5t-97.5 254.5v838q0 155 97.5 252.5t254.5 97.5h823q157 0 254.5 -97.5t97.5 -252.5v-838q0 -157 -97.5 -254.5t-254.5 -97.5zM508 109h823q93 0 145 55.5t52 154.5v838q0 98 -52.5 154.5t-144.5 56.5h-823q-92 0 -145.5 -56.5
t-53.5 -154.5v-838q0 -99 53 -154.5t146 -55.5zM915 274q-93 0 -172.5 37t-131.5 115t-52 184v269q0 107 52.5 185.5t132 115.5t171.5 37q146 0 252.5 -90.5t106.5 -247.5v-269q0 -106 -52.5 -184t-132.5 -115t-174 -37zM915 440q75 0 128 46.5t53 123.5v269q0 77 -53 123.5
t-128 46.5q-74 0 -127 -46.5t-53 -123.5v-269q0 -77 53 -123.5t127 -46.5z" />
    <glyph glyph-name="uni2460.ss06" horiz-adv-x="1837" 
d="M1331 -33h-823q-157 0 -254.5 97.5t-97.5 254.5v838q0 155 97.5 252.5t254.5 97.5h823q157 0 254.5 -97.5t97.5 -252.5v-838q0 -157 -97.5 -254.5t-254.5 -97.5zM508 109h823q93 0 145 55.5t52 154.5v838q0 98 -52.5 154.5t-144.5 56.5h-823q-92 0 -145.5 -56.5
t-53.5 -154.5v-838q0 -99 53 -154.5t146 -55.5zM1206 287h-563v155h193v568l-187 -49v157l363 84v-760h194v-155z" />
    <glyph glyph-name="uni2461.ss06" horiz-adv-x="1837" 
d="M508 1507h823q157 0 254.5 -97.5t97.5 -252.5v-838q0 -157 -97.5 -254.5t-254.5 -97.5h-823q-157 0 -254.5 97.5t-97.5 254.5v838q0 155 97.5 252.5t254.5 97.5zM1528 319v838q0 98 -52.5 154.5t-144.5 56.5h-823q-92 0 -145.5 -56.5t-53.5 -154.5v-838q0 -99 53 -154.5
t146 -55.5h823q93 0 145 55.5t52 154.5zM1233 934q0 -73 -30 -131t-75.5 -92.5t-101 -66.5t-105 -55.5t-89.5 -58.5t-52 -75h455v-168h-639v119q0 67 25.5 122t66 92.5t89.5 69t98.5 58t90 52.5t66 59.5t25.5 72.5q0 51 -37 87t-98 36q-64 0 -104.5 -40.5t-43.5 -107.5h-178
q0 132 94 221t232 89q133 0 222 -76t89 -207z" />
    <glyph glyph-name="uni2462.ss06" horiz-adv-x="1837" 
d="M508 1507h823q157 0 254.5 -97.5t97.5 -252.5v-838q0 -157 -97.5 -254.5t-254.5 -97.5h-823q-157 0 -254.5 97.5t-97.5 254.5v838q0 155 97.5 252.5t254.5 97.5zM1528 319v838q0 98 -52.5 154.5t-144.5 56.5h-823q-92 0 -145.5 -56.5t-53.5 -154.5v-838q0 -99 53 -154.5
t146 -55.5h823q93 0 145 55.5t52 154.5zM1122 768q129 -71 129 -215q0 -118 -86 -198.5t-237 -80.5q-157 0 -251.5 87.5t-94.5 224.5h172q0 -73 48 -115.5t118 -42.5q67 0 110 37t43 96q0 36 -16.5 61.5t-43.5 37.5t-53 17t-55 5h-71v152h75q61 0 96 30t35 80q0 53 -37.5 85
t-95.5 32q-62 0 -103.5 -39.5t-41.5 -106.5h-172q0 130 88.5 216t236.5 86q135 0 218.5 -68t83.5 -182q0 -125 -95 -199z" />
    <glyph glyph-name="uni2463.ss06" horiz-adv-x="1837" 
d="M508 1507h823q157 0 254.5 -97.5t97.5 -252.5v-838q0 -157 -97.5 -254.5t-254.5 -97.5h-823q-157 0 -254.5 97.5t-97.5 254.5v838q0 155 97.5 252.5t254.5 97.5zM1528 319v838q0 98 -52.5 154.5t-144.5 56.5h-823q-92 0 -145.5 -56.5t-53.5 -154.5v-838q0 -99 53 -154.5
t146 -55.5h823q93 0 145 55.5t52 154.5zM938 1202h162v-596h129v-141h-129v-178h-172v178h-416v121zM696 606h232q0 262 22 420q-96 -191 -254 -420z" />
    </font>
</defs>
</svg>
