<?xml version="1.0" encoding="UTF-8"?>
<svg xmlns="http://www.w3.org/2000/svg" width="48" height="48" viewBox="0 0 48 48" fill="none">
  <g clip-path="url(#clip0_290_3833)">
    <path d="M0 23.04C0 12.1786 -3.1937e-06 6.74233 3.37339 3.3734C6.74679 0.00446501 12.1786 0 23.04 0H24.96C35.8214 0 41.2577 0 44.6266 3.3734C47.9955 6.74679 48 12.1786 48 23.04V24.96C48 35.8214 48 41.2577 44.6266 44.6266C41.2532 47.9955 35.8214 48 24.96 48H23.04C12.1786 48 6.74232 48 3.37339 44.6266C0.00446181 41.2532 0 35.8214 0 24.96V23.04Z" fill="url(#paint0_radial_290_3833)"></path>
    <path d="M45 24.1929V23.8071C37.0286 23.55 30.39 23.3571 27.4714 20.5286C24.6429 17.61 24.4371 10.9714 24.1929 3H23.8071C23.55 10.9714 23.3571 17.61 20.5286 20.5286C17.61 23.3571 10.9714 23.5629 3 23.8071V24.1929C10.9714 24.45 17.61 24.6429 20.5286 27.4714C23.3571 30.39 23.5629 37.0286 23.8071 45H24.1929C24.45 37.0286 24.6429 30.39 27.4714 27.4714C30.39 24.6429 37.0286 24.4371 45 24.1929Z" fill="white"></path>
  </g>
  <defs>
    <radialGradient id="paint0_radial_290_3833" cx="0" cy="0" r="1" gradientUnits="userSpaceOnUse" gradientTransform="translate(24 24) rotate(90) scale(24)">
      <stop stop-color="#121212"></stop>
      <stop offset="1" stop-color="#34383E"></stop>
    </radialGradient>
    <clipPath id="clip0_290_3833">
      <rect width="48" height="48" fill="white"></rect>
    </clipPath>
  </defs>
</svg>
