<svg width="182" height="48" viewBox="0 0 182 48" fill="none" xmlns="http://www.w3.org/2000/svg">
<g clip-path="url(#clip0_2133_35829)">
<path d="M0 18.1677L3.84058 12.6677C4.67391 13.6968 5.61594 14.4774 6.55797 15.0452C7.53623 15.6129 8.51449 15.8613 9.45652 15.8613C9.8913 15.8613 10.2174 15.7903 10.471 15.6484C10.7246 15.5065 10.8696 15.2935 10.8696 15.0452C10.8696 14.6548 10.3261 14.2645 9.2029 13.8032C8.94928 13.6968 8.76812 13.6258 8.62319 13.5903C6.77536 12.8452 5.43478 11.9935 4.60145 11C3.76812 10.0065 3.33333 8.83548 3.33333 7.45161C3.33333 5.25161 4.16667 3.47742 5.7971 2.09355C7.46377 0.674194 9.60145 0 12.2464 0C13.7681 0 15.1812 0.212903 16.4493 0.674194C17.7536 1.1 18.913 1.77419 20 2.62581L16.9928 7.80645C16.1232 7.06129 15.3261 6.49355 14.6377 6.13871C13.913 5.78387 13.2609 5.60645 12.6812 5.60645C12.3188 5.60645 12.029 5.67742 11.8116 5.85484C11.5942 6.03226 11.4855 6.24516 11.4855 6.52903C11.4855 6.99032 12.1377 7.4871 13.4058 8.01936C13.7319 8.16129 14.0217 8.26774 14.2029 8.37419C15.8696 9.11936 17.0652 9.93548 17.7536 10.8581C18.442 11.7806 18.8043 12.9161 18.8043 14.3355C18.8043 16.5355 17.9348 18.3806 16.1957 19.8355C14.4565 21.2903 12.2464 22 9.56522 22C7.89855 22 6.23188 21.6806 4.60145 21.0419C3.00725 20.3677 1.44928 19.4452 0 18.1677Z" fill="black"/>
<path d="M24.836 21L27.572 6.37437H23L24.224 0H41L39.812 6.37437H35.384L32.648 21H24.836Z" fill="black"/>
<path d="M64 20.9646L68.0033 0H76.414C79.5726 0 81.9232 0.531197 83.576 1.59359C85.192 2.65599 86 4.21417 86 6.30354C86 8.03879 85.5225 9.49073 84.6043 10.6594C83.6861 11.828 82.3639 12.5717 80.6377 12.9258L83.7596 21H75.6795L73.3289 13.3862L71.8598 21L64 20.9646ZM74.1002 9.27825H74.6878C75.8998 9.27825 76.7813 9.10118 77.3322 8.71164C77.8831 8.32209 78.177 7.75548 78.177 6.94098C78.177 6.33895 77.9566 5.87858 77.5159 5.59528C77.0751 5.31197 76.3406 5.17032 75.3856 5.17032H74.9082L74.1002 9.27825Z" fill="black"/>
<path d="M91.836 21L94.572 6.37437H90L91.224 0H108L106.812 6.37437H102.384L99.648 21H91.836Z" fill="black"/>
<path d="M107 18.1616L110.848 12.6527C111.682 13.6834 112.626 14.4653 113.57 15.0339C114.55 15.6026 115.53 15.8514 116.474 15.8514C116.909 15.8514 117.236 15.7803 117.49 15.6381C117.744 15.496 117.889 15.2827 117.889 15.0339C117.889 14.643 117.345 14.252 116.22 13.79C115.966 13.6834 115.784 13.6123 115.639 13.5767C113.788 12.8304 112.445 11.9774 111.61 10.9822C110.775 9.98708 110.339 8.81422 110.339 7.42811C110.339 5.22456 111.174 3.4475 112.808 2.06139C114.441 0.675283 116.583 0 119.232 0C120.757 0 122.172 0.213247 123.443 0.675283C124.713 1.13732 125.911 1.77706 127 2.66559L124.06 7.78352C123.189 7.03716 122.39 6.4685 121.701 6.11309C120.975 5.75767 120.321 5.57997 119.74 5.57997C119.377 5.57997 119.087 5.65105 118.869 5.82876C118.652 6.00646 118.543 6.21971 118.543 6.50404C118.543 6.96607 119.196 7.46365 120.466 7.99677C120.793 8.13893 121.083 8.24556 121.265 8.35218C122.935 9.09855 124.132 9.91599 124.822 10.8401C125.512 11.7641 125.875 12.9015 125.875 14.3231C125.875 16.5267 125.004 18.3748 123.261 19.832C121.519 21.2892 119.269 22 116.619 22C114.949 22 113.279 21.6801 111.646 21.0404C110.013 20.3651 108.488 19.441 107 18.1616Z" fill="black"/>
<path d="M129 21L133.024 0H141L137.012 21H129Z" fill="black"/>
<path d="M145.836 21L148.572 6.37437H144L145.224 0H162L160.812 6.37437H156.384L153.648 21H145.836Z" fill="black"/>
<path d="M163 20.9646L167.014 0H182L180.932 5.70152H173.826L173.421 7.72007H180.122L179.091 13.032H172.426L171.984 15.2985H179.717L178.612 21L163 20.9646Z" fill="black"/>
<path d="M58.1111 0H49.4444L38 22H41.5185L42.8519 20.0708L46.6296 17.3997L45.3333 22H46.5185L49.2593 11.8718L51.8889 6.93761C52.8519 5.75042 52.4074 5.71332 52.8519 7.086L53.963 12.2799L53.1852 22H54.4444L54.7407 17.882L57.6667 21.2209L57.8519 22H61L58.1111 0Z" fill="#120E1E"/>
<path d="M51 18C52.1046 18 53 17.1046 53 16C53 14.8954 52.1046 14 51 14C49.8954 14 49 14.8954 49 16C49 17.1046 49.8954 18 51 18Z" fill="#120E1E"/>
<path d="M28 44.963L29.9453 34H32.7749C33.6592 34 34.4019 34.037 34.9678 34.1481C35.5691 34.2222 36.0289 34.3704 36.418 34.5556C37.2315 35 37.8682 35.5556 38.328 36.3333C38.7524 37.0741 39 37.963 39 38.9259C39 39.8519 38.8232 40.7037 38.4341 41.5185C38.045 42.3333 37.5145 43 36.8071 43.5556C36.1704 44.0741 35.3923 44.4444 34.5434 44.6667C33.6945 44.8889 32.5981 45 31.3248 45H28V44.963ZM32.3859 41.6667C33.2701 41.6667 33.9421 41.4444 34.4019 41C34.8617 40.5556 35.1093 39.9259 35.1093 39.1481C35.1093 38.5556 34.9325 38.1111 34.6141 37.7778C34.2604 37.4444 33.8006 37.2963 33.2347 37.2963H33.164L32.3859 41.6667Z" fill="black"/>
<path d="M40 45L41.4902 37.1869H45.3725L43.8431 45H40V45ZM43.6471 36.7757C43.0588 36.7757 42.5882 36.5888 42.1961 36.2523C41.8039 35.9159 41.6078 35.5047 41.6078 34.9813C41.6078 34.4579 41.8431 33.972 42.3137 33.5981C42.7843 33.1869 43.3333 33 43.9608 33C44.549 33 45.0196 33.1495 45.4118 33.486C45.8039 33.8224 46 34.2336 46 34.757C46 35.2804 45.7647 35.7664 45.2941 36.1402C44.8627 36.5888 44.3137 36.7757 43.6471 36.7757Z" fill="black"/>
<path d="M52.391 37.2164H56L54.6466 44.0328C54.3835 45.3311 53.8571 46.3049 52.9925 46.9902C52.1278 47.6393 51.0376 48 49.6466 48C49.0451 48 48.4436 47.9279 47.8421 47.7836C47.2406 47.6393 46.6391 47.4229 46 47.1344L47.2406 44.9705C47.5789 45.1869 47.9173 45.3672 48.2556 45.4393C48.594 45.5115 48.9323 45.5836 49.2707 45.5836C49.7594 45.5836 50.1353 45.4393 50.4737 45.1869C50.812 44.9344 51.0376 44.5377 51.188 44.0328L51.3759 43.3836C51.0376 43.7803 50.6617 44.1049 50.2857 44.3213C49.8722 44.5377 49.4586 44.6459 49.0075 44.6459C48.1429 44.6459 47.4286 44.3574 46.8647 43.8164C46.3383 43.2754 46.0752 42.518 46.0752 41.6164C46.0752 41.0754 46.188 40.5344 46.3759 39.9934C46.5639 39.4525 46.8271 38.9475 47.1654 38.5148C47.5414 38.0098 47.9925 37.6492 48.4812 37.3967C48.9699 37.1443 49.4962 37 50.0602 37C50.5489 37 51 37.1082 51.3383 37.3246C51.7143 37.541 52.015 37.8656 52.2782 38.2984L52.391 37.2164ZM50.812 39.9574C50.5113 39.9574 50.2481 40.0656 50.0602 40.282C49.8722 40.4984 49.7594 40.7869 49.7594 41.1115C49.7594 41.3639 49.8346 41.5803 49.985 41.7246C50.1353 41.8689 50.3233 41.941 50.5865 41.941C50.9248 41.941 51.188 41.8328 51.3759 41.6164C51.6015 41.4 51.6767 41.1475 51.6767 40.7869C51.6767 40.5344 51.6015 40.318 51.4511 40.1377C51.3008 40.0295 51.1128 39.9574 50.812 39.9574Z" fill="black"/>
<path d="M56 45L57.4902 37.1869H61.3726L59.8431 45H56V45ZM59.6471 36.7757C59.0588 36.7757 58.5882 36.5888 58.1961 36.2523C57.8039 35.9159 57.6078 35.5047 57.6078 34.9813C57.6078 34.4579 57.8431 33.972 58.3137 33.5981C58.7843 33.1869 59.3333 33 59.9608 33C60.549 33 61.0196 33.1495 61.4118 33.486C61.8039 33.8224 62 34.2336 62 34.757C62 35.2804 61.7647 35.7664 61.2941 36.1402C60.8627 36.5888 60.3137 36.7757 59.6471 36.7757Z" fill="black"/>
<path d="M63.0355 45L63.8876 39.9813H63L63.497 37.1723H64.4201L64.8107 35H68.3254L67.9349 37.1723H69L68.503 39.9813H67.4379L66.5503 45H63.0355Z" fill="black"/>
<path d="M75.391 37.2844H79L77.5338 44.7156H74.0376L74.3008 43.72C73.9624 44.1467 73.6241 44.4667 73.2105 44.68C72.8346 44.8933 72.3835 45 71.8947 45C71.0677 45 70.3534 44.68 69.8271 44.0756C69.2632 43.4711 69 42.6533 69 41.6933C69 41.1244 69.1128 40.5911 69.3007 40.0222C69.4887 39.4889 69.7519 38.9911 70.1278 38.5289C70.5038 38.0311 70.9549 37.6756 71.4436 37.3911C71.9323 37.1422 72.4586 37 72.985 37C73.4737 37 73.9248 37.1067 74.2632 37.32C74.6015 37.5333 74.9399 37.8533 75.203 38.3156L75.391 37.2844ZM73.7744 40.0578C73.4737 40.0578 73.2105 40.1644 73.0226 40.3778C72.8346 40.5911 72.7218 40.8756 72.7218 41.2311C72.7218 41.5156 72.797 41.6933 72.9474 41.8356C73.0977 41.9778 73.2857 42.0489 73.5489 42.0489C73.8872 42.0489 74.1504 41.9422 74.3383 41.7289C74.5263 41.5156 74.6391 41.2311 74.6391 40.9111C74.6391 40.6267 74.5639 40.4133 74.4135 40.2711C74.2632 40.1289 74.0376 40.0578 73.7744 40.0578Z" fill="black"/>
<path d="M82.7308 44H79L81.2308 33H85L82.7308 44Z" fill="black"/>
<path d="M90 45L95.4823 34H99.6206L101 45H97.2862L97.2154 43.5507H94.7042L94.1383 45H90V45ZM95.6945 40.9122H97.0386L97.0032 39.723C97.0032 39.6486 97.0032 39.5743 97.0032 39.4628C96.9678 38.9797 96.9678 38.5709 96.9678 38.2736C96.9678 38.0878 96.9678 37.902 96.9678 37.8277C96.9678 37.7534 96.9678 37.6047 96.9678 37.5304C96.8971 37.8277 96.791 38.125 96.7203 38.3851C96.6142 38.6453 96.5434 38.9054 96.4727 39.1284L95.6945 40.9122Z" fill="black"/>
<path d="M108.391 37.2164H112L110.647 44.0328C110.383 45.3311 109.857 46.3049 108.992 46.9902C108.128 47.6393 107.038 48 105.647 48C105.045 48 104.444 47.9279 103.842 47.7836C103.241 47.6393 102.639 47.4229 102 47.1344L103.241 44.9705C103.579 45.1869 103.917 45.3672 104.256 45.4393C104.594 45.5475 104.932 45.5836 105.271 45.5836C105.759 45.5836 106.135 45.4393 106.474 45.1869C106.812 44.9344 107.038 44.5377 107.188 44.0328L107.376 43.3836C107.038 43.7803 106.662 44.1049 106.286 44.3213C105.872 44.5377 105.459 44.6459 105.008 44.6459C104.143 44.6459 103.429 44.3574 102.865 43.8164C102.338 43.2754 102.075 42.518 102.075 41.6164C102.075 41.0754 102.188 40.5344 102.376 39.9934C102.564 39.4525 102.827 38.9475 103.165 38.5148C103.541 38.0098 103.992 37.6492 104.481 37.3967C104.97 37.1443 105.496 37 106.06 37C106.549 37 107 37.1082 107.338 37.3246C107.714 37.541 108.015 37.8656 108.278 38.2984L108.391 37.2164ZM106.812 39.9574C106.511 39.9574 106.248 40.0656 106.06 40.282C105.872 40.4984 105.759 40.7869 105.759 41.1115C105.759 41.3639 105.835 41.5803 105.985 41.7246C106.135 41.8689 106.323 41.941 106.586 41.941C106.925 41.941 107.188 41.8328 107.376 41.6164C107.601 41.4 107.677 41.1475 107.677 40.7869C107.677 40.5344 107.602 40.318 107.451 40.1377C107.301 40.0295 107.075 39.9574 106.812 39.9574Z" fill="black"/>
<path d="M120.896 41.3767H116.117C116.117 41.7713 116.186 42.0583 116.359 42.2377C116.498 42.4529 116.74 42.5605 117.017 42.5605C117.225 42.5605 117.398 42.5247 117.537 42.417C117.675 42.3094 117.848 42.13 118.022 41.9148L120.584 42.4888C120.169 43.3139 119.615 43.9596 118.957 44.3543C118.299 44.7848 117.502 45 116.602 45C115.563 45 114.697 44.6771 114.004 44.0314C113.312 43.3857 113 42.5247 113 41.5202C113 40.9103 113.104 40.3363 113.312 39.7982C113.519 39.2601 113.797 38.7937 114.177 38.3991C114.593 37.9327 115.078 37.6099 115.632 37.3587C116.186 37.1076 116.775 37 117.398 37C118.437 37 119.338 37.3229 119.996 37.9686C120.654 38.6143 121 39.4036 121 40.3722C121 40.5516 121 40.7309 121 40.9103C120.931 41.0538 120.931 41.1973 120.896 41.3767ZM116.29 40.0135H118.022V39.9058C118.022 39.6547 117.952 39.4753 117.848 39.3318C117.745 39.1883 117.571 39.1166 117.364 39.1166C117.087 39.1166 116.879 39.1883 116.706 39.3318C116.532 39.4753 116.394 39.6906 116.29 40.0135Z" fill="black"/>
<path d="M122 45L123.35 37.2593H126.569L126.362 38.3704C126.777 37.9259 127.192 37.5926 127.642 37.3333C128.058 37.1111 128.508 37 128.923 37C129.546 37 130.065 37.2222 130.446 37.6296C130.827 38.037 131 38.6296 131 39.2963C131 39.4815 131 39.7037 130.965 39.963C130.931 40.2222 130.896 40.4815 130.862 40.7407L130.135 44.963H126.708L127.365 41.0741C127.4 40.9259 127.4 40.8148 127.435 40.6667C127.435 40.5556 127.469 40.4074 127.469 40.2963C127.469 40.1481 127.435 40.037 127.365 39.963C127.296 39.8889 127.192 39.8148 127.054 39.8148C126.812 39.8148 126.604 39.9259 126.431 40.1852C126.292 40.4444 126.154 40.8519 126.05 41.4815L125.462 44.9259H122V45V45Z" fill="black"/>
<path d="M137.585 44.713C137.24 44.8206 136.934 44.8924 136.667 44.9283C136.399 44.9641 136.131 45 135.863 45C134.716 45 133.798 44.6771 133.071 44.0314C132.344 43.3857 132 42.5247 132 41.5202C132 40.9103 132.115 40.3363 132.344 39.7982C132.574 39.2601 132.88 38.7937 133.301 38.3632C133.76 37.9327 134.295 37.574 134.907 37.3587C135.519 37.1435 136.169 37 136.858 37C137.24 37 137.623 37.0359 137.967 37.1076C138.311 37.1794 138.656 37.287 139 37.4305L138.464 40.2287C138.235 40.0852 138.005 39.9776 137.776 39.9058C137.585 39.8341 137.393 39.7982 137.202 39.7982C136.781 39.7982 136.437 39.9058 136.169 40.1569C135.902 40.4081 135.787 40.7309 135.787 41.1256C135.787 41.4843 135.902 41.7354 136.131 41.9507C136.361 42.1659 136.667 42.2735 137.049 42.2735C137.202 42.2735 137.393 42.2377 137.546 42.2018C137.738 42.1659 137.891 42.0942 138.12 41.9865L137.585 44.713Z" fill="black"/>
<path d="M139 48L141.746 43.3067L140.092 37H143.401L143.754 38.9067C143.824 39.2 143.859 39.4567 143.894 39.7133C143.93 39.97 143.93 40.1533 143.965 40.3733C144 40.1533 144.07 39.9333 144.176 39.6767C144.246 39.42 144.387 39.1633 144.493 38.9067L145.373 37.0367H149L142.803 48H139Z" fill="black"/>
</g>
<defs>
<clipPath id="clip0_2133_35829">
<rect width="182" height="48" fill="white"/>
</clipPath>
</defs>
</svg>
