<?xml version="1.0" encoding="utf-8"?>
<!-- Generator: Adobe Illustrator 23.1.0, SVG Export Plug-In . SVG Version: 6.00 Build 0)  -->
<svg version="1.1" id="Слой_1" xmlns="http://www.w3.org/2000/svg" xmlns:xlink="http://www.w3.org/1999/xlink" x="0px" y="0px"
	 viewBox="0 0 182 48" style="enable-background:new 0 0 182 48;" xml:space="preserve">
<style type="text/css">
	.st0{clip-path:url(#SVGID_2_);}
	.st1{fill:#FFFFFF;}
</style>
<g>
	<defs>
		<rect id="SVGID_1_" width="182" height="48"/>
	</defs>
	<clipPath id="SVGID_2_">
		<use xlink:href="#SVGID_1_"  style="overflow:visible;"/>
	</clipPath>
	<g class="st0">
		<path class="st1" d="M0,18.2l3.8-5.5c0.8,1,1.8,1.8,2.7,2.4c1,0.6,2,0.8,2.9,0.8c0.4,0,0.8-0.1,1-0.2s0.4-0.4,0.4-0.6
			c0-0.4-0.5-0.8-1.7-1.2c-0.3-0.1-0.4-0.2-0.6-0.2c-1.8-0.7-3.2-1.6-4-2.6S3.3,8.8,3.3,7.5c0-2.2,0.8-4,2.5-5.4
			C7.5,0.7,9.6,0,12.2,0c1.5,0,2.9,0.2,4.2,0.7c1.3,0.4,2.5,1.1,3.6,2l-3,5.2c-0.9-0.7-1.7-1.3-2.4-1.7c-0.7-0.4-1.4-0.5-2-0.5
			c-0.4,0-0.7,0.1-0.9,0.2c-0.2,0.2-0.3,0.4-0.3,0.7c0,0.5,0.7,1,1.9,1.5c0.3,0.1,0.6,0.2,0.8,0.4c1.7,0.7,2.9,1.6,3.6,2.5
			c0.7,0.9,1.1,2.1,1.1,3.5c0,2.2-0.9,4-2.6,5.5c-1.7,1.5-3.9,2.2-6.6,2.2c-1.7,0-3.3-0.3-5-1C3,20.4,1.4,19.4,0,18.2z"/>
		<path class="st1" d="M24.8,21l2.7-14.6H23L24.2,0H41l-1.2,6.4h-4.4L32.6,21H24.8z"/>
		<path class="st1" d="M64,21l4-21h8.4c3.2,0,5.5,0.5,7.2,1.6C85.2,2.7,86,4.2,86,6.3c0,1.7-0.5,3.2-1.4,4.4c-0.9,1.2-2.2,1.9-4,2.3
			l3.1,8.1h-8.1l-2.4-7.6L71.9,21L64,21z M74.1,9.3h0.6c1.2,0,2.1-0.2,2.6-0.6c0.6-0.4,0.8-1,0.8-1.8c0-0.6-0.2-1.1-0.7-1.3
			c-0.4-0.3-1.2-0.4-2.1-0.4h-0.5L74.1,9.3z"/>
		<path class="st1" d="M91.8,21l2.7-14.6H90L91.2,0H108l-1.2,6.4h-4.4L99.6,21H91.8z"/>
		<path class="st1" d="M107,18.2l3.8-5.5c0.8,1,1.8,1.8,2.7,2.4c1,0.6,2,0.8,2.9,0.8c0.4,0,0.8-0.1,1-0.2c0.3-0.1,0.4-0.4,0.4-0.6
			c0-0.4-0.5-0.8-1.7-1.2c-0.3-0.1-0.4-0.2-0.6-0.2c-1.9-0.7-3.2-1.6-4-2.6c-0.8-1-1.3-2.2-1.3-3.6c0-2.2,0.8-4,2.5-5.4
			c1.6-1.4,3.8-2.1,6.4-2.1c1.5,0,2.9,0.2,4.2,0.7c1.3,0.5,2.5,1.1,3.6,2l-2.9,5.1c-0.9-0.7-1.7-1.3-2.4-1.7c-0.7-0.4-1.4-0.5-2-0.5
			c-0.4,0-0.7,0.1-0.9,0.2c-0.2,0.2-0.3,0.4-0.3,0.7c0,0.5,0.7,1,1.9,1.5c0.3,0.1,0.6,0.2,0.8,0.4c1.7,0.7,2.9,1.6,3.6,2.5
			c0.7,0.9,1.1,2.1,1.1,3.5c0,2.2-0.9,4.1-2.6,5.5c-1.7,1.5-4,2.2-6.6,2.2c-1.7,0-3.3-0.3-5-1C110,20.4,108.5,19.4,107,18.2z"/>
		<path class="st1" d="M129,21l4-21h8l-4,21H129z"/>
		<path class="st1" d="M145.8,21l2.7-14.6H144l1.2-6.4H162l-1.2,6.4h-4.4L153.6,21H145.8z"/>
		<path class="st1" d="M163,21l4-21h15l-1.1,5.7h-7.1l-0.4,2h6.7l-1,5.3h-6.7l-0.4,2.3h7.7l-1.1,5.7L163,21z"/>
		<path class="st1" d="M58.1,0h-8.7L38,22h3.5l1.3-1.9l3.8-2.7L45.3,22h1.2l2.7-10.1l2.6-4.9c1-1.2,0.5-1.2,1,0.1l1.1,5.2L53.2,22
			h1.3l0.3-4.1l2.9,3.3l0.2,0.8H61L58.1,0z"/>
		<path class="st1" d="M51,18c1.1,0,2-0.9,2-2s-0.9-2-2-2s-2,0.9-2,2S49.9,18,51,18z"/>
		<path class="st1" d="M28,45l1.9-11h2.8c0.9,0,1.6,0,2.2,0.1c0.6,0.1,1.1,0.2,1.5,0.4c0.8,0.4,1.5,1,1.9,1.8
			c0.4,0.7,0.7,1.6,0.7,2.6c0,0.9-0.2,1.8-0.6,2.6c-0.4,0.8-0.9,1.5-1.6,2c-0.6,0.5-1.4,0.9-2.3,1.1c-0.8,0.2-1.9,0.3-3.2,0.3L28,45
			L28,45z M32.4,41.7c0.9,0,1.6-0.2,2-0.7c0.5-0.4,0.7-1.1,0.7-1.9c0-0.6-0.2-1-0.5-1.4c-0.4-0.3-0.8-0.5-1.4-0.5h-0.1L32.4,41.7z"
			/>
		<path class="st1" d="M40,45l1.5-7.8h3.9L43.8,45H40L40,45z M43.6,36.8c-0.6,0-1.1-0.2-1.5-0.5c-0.4-0.3-0.6-0.7-0.6-1.3
			s0.2-1,0.7-1.4c0.5-0.4,1-0.6,1.6-0.6c0.6,0,1.1,0.1,1.5,0.5c0.4,0.3,0.6,0.7,0.6,1.3s-0.2,1-0.7,1.4
			C44.9,36.6,44.3,36.8,43.6,36.8z"/>
		<path class="st1" d="M52.4,37.2H56L54.6,44c-0.3,1.3-0.8,2.3-1.7,3c-0.9,0.6-2,1-3.3,1c-0.6,0-1.2-0.1-1.8-0.2
			c-0.6-0.1-1.2-0.4-1.8-0.6l1.2-2.2c0.3,0.2,0.7,0.4,1,0.5c0.3,0.1,0.7,0.1,1,0.1c0.5,0,0.9-0.1,1.2-0.4c0.3-0.3,0.6-0.6,0.7-1.2
			l0.2-0.6c-0.3,0.4-0.7,0.7-1.1,0.9c-0.4,0.2-0.8,0.3-1.3,0.3c-0.9,0-1.6-0.3-2.1-0.8c-0.5-0.5-0.8-1.3-0.8-2.2
			c0-0.5,0.1-1.1,0.3-1.6c0.2-0.5,0.5-1,0.8-1.5c0.4-0.5,0.8-0.9,1.3-1.1c0.5-0.3,1-0.4,1.6-0.4c0.5,0,0.9,0.1,1.3,0.3
			c0.4,0.2,0.7,0.5,0.9,1L52.4,37.2z M50.8,40c-0.3,0-0.6,0.1-0.8,0.3c-0.2,0.2-0.3,0.5-0.3,0.8c0,0.3,0.1,0.5,0.2,0.6
			c0.2,0.1,0.3,0.2,0.6,0.2c0.3,0,0.6-0.1,0.8-0.3c0.2-0.2,0.3-0.5,0.3-0.8c0-0.3-0.1-0.5-0.2-0.6C51.3,40,51.1,40,50.8,40z"/>
		<path class="st1" d="M56,45l1.5-7.8h3.9L59.8,45H56L56,45z M59.6,36.8c-0.6,0-1.1-0.2-1.5-0.5c-0.4-0.3-0.6-0.7-0.6-1.3
			s0.2-1,0.7-1.4c0.5-0.4,1-0.6,1.6-0.6c0.6,0,1.1,0.1,1.5,0.5c0.4,0.3,0.6,0.7,0.6,1.3s-0.2,1-0.7,1.4
			C60.9,36.6,60.3,36.8,59.6,36.8z"/>
		<path class="st1" d="M63,45l0.9-5H63l0.5-2.8h0.9l0.4-2.2h3.5l-0.4,2.2H69L68.5,40h-1.1l-0.9,5H63z"/>
		<path class="st1" d="M75.4,37.3H79l-1.5,7.4H74l0.3-1c-0.3,0.4-0.7,0.7-1.1,1c-0.4,0.2-0.8,0.3-1.3,0.3c-0.8,0-1.5-0.3-2.1-0.9
			c-0.6-0.6-0.8-1.4-0.8-2.4c0-0.6,0.1-1.1,0.3-1.7c0.2-0.5,0.5-1,0.8-1.5c0.4-0.5,0.8-0.9,1.3-1.1c0.5-0.2,1-0.4,1.5-0.4
			c0.5,0,0.9,0.1,1.3,0.3c0.3,0.2,0.7,0.5,0.9,1L75.4,37.3z M73.8,40.1c-0.3,0-0.6,0.1-0.8,0.3c-0.2,0.2-0.3,0.5-0.3,0.9
			c0,0.3,0.1,0.5,0.2,0.6c0.2,0.1,0.3,0.2,0.6,0.2c0.3,0,0.6-0.1,0.8-0.3c0.2-0.2,0.3-0.5,0.3-0.8c0-0.3-0.1-0.5-0.2-0.6
			C74.3,40.1,74,40.1,73.8,40.1z"/>
		<path class="st1" d="M82.7,44H79l2.2-11H85L82.7,44z"/>
		<path class="st1" d="M90,45l5.5-11h4.1l1.4,11h-3.7l-0.1-1.4h-2.5L94.1,45H90L90,45z M95.7,40.9H97l0-1.2c0-0.1,0-0.1,0-0.3
			c0-0.5,0-0.9,0-1.2c0-0.2,0-0.4,0-0.4c0-0.1,0-0.2,0-0.3c-0.1,0.3-0.2,0.6-0.2,0.9c-0.1,0.3-0.2,0.5-0.2,0.7L95.7,40.9z"/>
		<path class="st1" d="M108.4,37.2h3.6l-1.4,6.8c-0.3,1.3-0.8,2.3-1.7,3c-0.9,0.6-2,1-3.3,1c-0.6,0-1.2-0.1-1.8-0.2
			c-0.6-0.1-1.2-0.4-1.8-0.6l1.2-2.2c0.3,0.2,0.7,0.4,1,0.5c0.3,0.1,0.7,0.1,1,0.1c0.5,0,0.9-0.1,1.2-0.4c0.3-0.3,0.6-0.6,0.7-1.2
			l0.2-0.6c-0.3,0.4-0.7,0.7-1.1,0.9c-0.4,0.2-0.8,0.3-1.3,0.3c-0.9,0-1.6-0.3-2.1-0.8c-0.5-0.5-0.8-1.3-0.8-2.2
			c0-0.5,0.1-1.1,0.3-1.6c0.2-0.5,0.5-1,0.8-1.5c0.4-0.5,0.8-0.9,1.3-1.1c0.5-0.3,1-0.4,1.6-0.4c0.5,0,0.9,0.1,1.3,0.3
			c0.4,0.2,0.7,0.5,0.9,1L108.4,37.2z M106.8,40c-0.3,0-0.6,0.1-0.8,0.3c-0.2,0.2-0.3,0.5-0.3,0.8c0,0.3,0.1,0.5,0.2,0.6
			c0.2,0.1,0.3,0.2,0.6,0.2c0.3,0,0.6-0.1,0.8-0.3c0.2-0.2,0.3-0.5,0.3-0.8c0-0.3-0.1-0.5-0.2-0.6C107.3,40,107.1,40,106.8,40z"/>
		<path class="st1" d="M120.9,41.4h-4.8c0,0.4,0.1,0.7,0.2,0.9c0.1,0.2,0.4,0.3,0.7,0.3c0.2,0,0.4,0,0.5-0.1
			c0.1-0.1,0.3-0.3,0.5-0.5l2.6,0.6c-0.4,0.8-1,1.5-1.6,1.9c-0.7,0.4-1.5,0.6-2.4,0.6c-1,0-1.9-0.3-2.6-1c-0.7-0.6-1-1.5-1-2.5
			c0-0.6,0.1-1.2,0.3-1.7c0.2-0.5,0.5-1,0.9-1.4c0.4-0.5,0.9-0.8,1.5-1c0.6-0.3,1.1-0.4,1.8-0.4c1,0,1.9,0.3,2.6,1
			c0.7,0.6,1,1.4,1,2.4c0,0.2,0,0.4,0,0.5C120.9,41.1,120.9,41.2,120.9,41.4z M116.3,40h1.7v-0.1c0-0.3-0.1-0.4-0.2-0.6
			c-0.1-0.1-0.3-0.2-0.5-0.2c-0.3,0-0.5,0.1-0.7,0.2C116.5,39.5,116.4,39.7,116.3,40z"/>
		<path class="st1" d="M122,45l1.3-7.7h3.2l-0.2,1.1c0.4-0.4,0.8-0.8,1.3-1c0.4-0.2,0.9-0.3,1.3-0.3c0.6,0,1.1,0.2,1.5,0.6
			c0.4,0.4,0.6,1,0.6,1.7c0,0.2,0,0.4,0,0.7c0,0.3-0.1,0.5-0.1,0.8l-0.7,4.2h-3.4l0.7-3.9c0-0.1,0-0.3,0.1-0.4c0-0.1,0-0.3,0-0.4
			c0-0.1,0-0.3-0.1-0.3c-0.1-0.1-0.2-0.1-0.3-0.1c-0.2,0-0.5,0.1-0.6,0.4c-0.1,0.3-0.3,0.7-0.4,1.3l-0.6,3.4L122,45L122,45L122,45z"
			/>
		<path class="st1" d="M137.6,44.7c-0.3,0.1-0.7,0.2-0.9,0.2c-0.3,0-0.5,0.1-0.8,0.1c-1.1,0-2.1-0.3-2.8-1c-0.7-0.6-1.1-1.5-1.1-2.5
			c0-0.6,0.1-1.2,0.3-1.7c0.2-0.5,0.5-1,1-1.4c0.5-0.4,1-0.8,1.6-1c0.6-0.2,1.3-0.4,2-0.4c0.4,0,0.8,0,1.1,0.1
			c0.3,0.1,0.7,0.2,1,0.3l-0.5,2.8c-0.2-0.1-0.5-0.3-0.7-0.3c-0.2-0.1-0.4-0.1-0.6-0.1c-0.4,0-0.8,0.1-1,0.4c-0.3,0.3-0.4,0.6-0.4,1
			c0,0.4,0.1,0.6,0.3,0.8c0.2,0.2,0.5,0.3,0.9,0.3c0.2,0,0.3,0,0.5-0.1c0.2,0,0.3-0.1,0.6-0.2L137.6,44.7z"/>
		<path class="st1" d="M139,48l2.7-4.7l-1.7-6.3h3.3l0.4,1.9c0.1,0.3,0.1,0.5,0.1,0.8c0,0.3,0,0.4,0.1,0.7c0-0.2,0.1-0.4,0.2-0.7
			c0.1-0.3,0.2-0.5,0.3-0.8l0.9-1.9h3.6l-6.2,11H139z"/>
	</g>
</g>
</svg>
