<svg width="48" height="48" viewBox="0 0 48 48" fill="none" xmlns="http://www.w3.org/2000/svg">
<path d="M0 23.04C0 12.1786 -3.1937e-06 6.74233 3.37339 3.3734C6.74679 0.00446501 12.1786 0 23.04 0H24.96C35.8214 0 41.2577 0 44.6266 3.3734C47.9955 6.74679 48 12.1786 48 23.04V24.96C48 35.8214 48 41.2577 44.6266 44.6266C41.2532 47.9955 35.8214 48 24.96 48H23.04C12.1786 48 6.74232 48 3.37339 44.6266C0.00446181 41.2532 0 35.8214 0 24.96V23.04Z" fill="url(#paint0_linear_2025_11514)"/>
<path fill-rule="evenodd" clip-rule="evenodd" d="M9.99271 23.3326C17.7771 19.9458 22.9682 17.7129 25.566 16.6337C32.9836 13.5521 34.5233 13.0163 35.5286 13.0005C35.8976 12.9917 36.2599 13.1002 36.5633 13.3102C36.7755 13.495 36.9111 13.7522 36.9437 14.0314C36.9978 14.3791 37.013 14.7317 36.989 15.0827C36.586 19.2992 34.847 29.5318 33.9617 34.2525C33.5881 36.2511 32.8523 36.9226 32.1368 36.9881C30.5858 37.1306 29.4084 35.964 27.9072 34.9805C25.5569 33.4431 24.2279 32.4936 21.9478 30.9833C19.31 29.2492 21.0195 28.2951 22.5229 26.7374C22.9169 26.3282 29.748 20.1222 29.8816 19.5592C29.8987 19.4766 29.8964 19.3911 29.8748 19.3094C29.8532 19.2278 29.8129 19.1524 29.7571 19.089C29.676 19.0367 29.5835 19.0045 29.4874 18.9951C29.3913 18.9856 29.2944 18.9992 29.2046 19.0347C28.9691 19.089 25.2143 21.5669 17.9401 26.4684C16.8729 27.2009 15.9076 27.5574 15.0442 27.5378C14.0887 27.5174 12.2547 26.9997 10.8916 26.5566C9.22061 26.014 7.89152 25.7268 8.007 24.8044C8.06586 24.3221 8.72776 23.8315 9.99271 23.3326Z" fill="white"/>
<defs>
<linearGradient id="paint0_linear_2025_11514" x1="0" y1="24" x2="48" y2="24" gradientUnits="userSpaceOnUse">
<stop stop-color="#2AABEE"/>
<stop offset="1" stop-color="#229ED9"/>
</linearGradient>
</defs>
</svg>
