<?xml version="1.0" encoding="UTF-8"?>
<svg xmlns="http://www.w3.org/2000/svg" width="48" height="48" viewBox="0 0 48 48" fill="none">
  <g clip-path="url(#clip0_290_3839)">
    <path d="M0 23.04C0 12.1786 -3.09944e-06 6.74233 3.37339 3.3734C6.74679 0.00446486 12.1786 0 23.04 0H24.96C35.8214 0 41.2577 0 44.6266 3.3734C47.9955 6.74679 48 12.1786 48 23.04V24.96C48 35.8214 48 41.2577 44.6266 44.6266C41.2532 47.9955 35.8214 48 24.96 48H23.04C12.1786 48 6.74232 48 3.37339 44.6266C0.00446177 41.2532 0 35.8214 0 24.96V23.04Z" fill="#1976D2"></path>
    <path d="M39.4182 16.6571C39.4776 16.4621 39.506 16.2812 39.4983 16.1198C39.4789 15.6522 39.1573 15.3125 38.4004 15.3125H35.0189C34.1651 15.3125 33.7711 15.8292 33.5412 16.3471C33.5412 16.3471 31.4332 20.6858 29.0036 23.5468C28.2157 24.3747 27.8153 24.354 27.3891 24.354C27.1605 24.354 26.5831 24.0776 26.5831 23.3194V16.6222C26.5831 15.7258 26.3596 15.3125 25.6376 15.3125H19.6327C19.107 15.3125 18.8332 15.7258 18.8332 16.1404C18.8332 17.002 19.9931 17.2086 20.1248 19.6227V24.3024C20.1248 25.439 19.9272 25.6457 19.501 25.6457C18.3514 25.6457 16.0884 21.7707 14.5733 16.692C14.2453 15.6922 13.9172 15.3125 13.0634 15.3125H9.64957C8.66404 15.3125 8.5 15.7956 8.5 16.3122C8.5 17.2435 9.27499 22.2784 13.5051 28.0675C16.5728 32.2654 20.6144 34.6872 24.1922 34.6872C26.3596 34.6872 26.5818 34.1357 26.5818 33.2742V29.4354C26.5831 28.4008 26.8195 28.229 27.5092 28.229C28.0013 28.229 29.0049 28.5519 30.9424 30.8123C33.177 33.4188 33.5825 34.6872 34.8639 34.6872H38.2454C39.0307 34.6872 39.4815 34.3579 39.4996 33.7185C39.5035 33.5558 39.4802 33.3736 39.4273 33.1708C39.1767 32.4269 38.0271 30.6082 36.5934 28.8748C35.799 27.9151 35.015 26.9645 34.6546 26.4478C34.4131 26.1107 34.3214 25.873 34.333 25.6457C34.3446 25.4067 34.4686 25.1794 34.6546 24.8617C34.621 24.8617 38.992 18.725 39.4182 16.6571Z" fill="white"></path>
  </g>
  <defs>
    <clipPath id="clip0_290_3839">
      <rect width="48" height="48" fill="white"></rect>
    </clipPath>
  </defs>
</svg>
