<svg width="48" height="48" viewBox="0 0 48 48" fill="none" xmlns="http://www.w3.org/2000/svg">
<path d="M0 23.04C0 12.1786 -3.1937e-06 6.74233 3.37339 3.3734C6.74679 0.00446501 12.1786 0 23.04 0H24.96C35.8214 0 41.2577 0 44.6266 3.3734C47.9955 6.74679 48 12.1786 48 23.04V24.96C48 35.8214 48 41.2577 44.6266 44.6266C41.2532 47.9955 35.8214 48 24.96 48H23.04C12.1786 48 6.74232 48 3.37339 44.6266C0.00446181 41.2532 0 35.8214 0 24.96V23.04Z" fill="#25D366"/>
<path d="M11 37L12.8365 30.3216C11.414 27.8639 10.8457 25.0076 11.2198 22.1957C11.5939 19.3837 12.8895 16.7732 14.9056 14.7688C16.9217 12.7644 19.5458 11.4781 22.371 11.1094C25.1961 10.7406 28.0646 11.3101 30.5316 12.7293C32.9987 14.1486 34.9264 16.3385 36.016 18.9594C37.1056 21.5803 37.2962 24.4858 36.5582 27.2255C35.8203 29.9653 34.195 32.3861 31.9343 34.1127C29.6736 35.8393 26.9039 36.7752 24.0545 36.7753C21.8938 36.7757 19.7674 36.2365 17.8702 35.207L11 37ZM18.1756 32.8745L18.5694 33.1057C20.227 34.084 22.1187 34.5998 24.0457 34.5991C26.4306 34.5987 28.7477 33.8094 30.6329 32.3552C32.5181 30.9011 33.8644 28.8646 34.4603 26.5657C35.0562 24.2669 34.8679 21.8362 33.9249 19.6555C32.9819 17.4749 31.3378 15.6679 29.2509 14.5188C27.164 13.3696 24.7527 12.9434 22.396 13.307C20.0392 13.6706 17.8707 14.8036 16.2312 16.5277C14.5916 18.2519 13.5741 20.4695 13.3385 22.832C13.1029 25.1945 13.6626 27.5679 14.9296 29.5793L15.1863 29.9846L14.0999 33.9383L18.1756 32.8745Z" fill="white"/>
<path fill-rule="evenodd" clip-rule="evenodd" d="M29.939 26.913C29.8603 26.7803 29.6458 26.6955 29.3263 26.541C29.0067 26.3866 27.4332 25.6121 27.1377 25.5077C26.8423 25.4033 26.6322 25.3467 26.4177 25.6665C26.2032 25.9863 25.5927 26.6998 25.4044 26.913C25.2162 27.1262 25.0324 27.1523 24.7129 26.9935C23.7699 26.6183 22.8992 26.084 22.1392 25.4142C21.4398 24.7711 20.8402 24.0284 20.3599 23.2105C20.1739 22.8929 20.3402 22.7211 20.5 22.5579C20.6597 22.3948 20.8195 22.1859 20.9793 22.001C21.1107 21.8401 21.2183 21.6614 21.2988 21.4702C21.3418 21.3826 21.3619 21.2857 21.3573 21.1884C21.3527 21.0911 21.3235 20.9965 21.2725 20.9133C21.1937 20.7545 20.5525 19.1882 20.2877 18.5509C20.0229 17.9135 19.7625 18.0157 19.5677 18.0048C19.3729 17.994 19.1672 18.0048 18.9527 18.0048C18.7947 18.0113 18.6397 18.0492 18.4968 18.1165C18.3539 18.1838 18.2261 18.279 18.1211 18.3964C17.7592 18.7372 17.4727 19.1492 17.2798 19.6062C17.0869 20.0631 16.9918 20.5549 17.0006 21.0504C17.0006 22.6145 18.1473 24.1264 18.3137 24.3395C18.48 24.5527 20.57 27.7636 23.7849 29.1406C24.3807 29.3967 24.99 29.6204 25.6102 29.8106C26.2621 30.0091 26.9518 30.0523 27.6236 29.9368C28.2386 29.8454 29.5167 29.1689 29.7836 28.414C30.0506 27.6592 30.0288 27.0457 29.939 26.913Z" fill="white"/>
</svg>
